<svg width="32" height="33" viewBox="0 0 32 33" fill="none" xmlns="http://www.w3.org/2000/svg">
<g clip-path="url(#clip0_119_141)">
<path d="M14.668 5.83333C14.668 6.18696 14.8084 6.52609 15.0585 6.77614C15.3085 7.02619 15.6477 7.16667 16.0013 7.16667C16.3549 7.16667 16.6941 7.02619 16.9441 6.77614C17.1942 6.52609 17.3346 6.18696 17.3346 5.83333C17.3346 5.47971 17.1942 5.14057 16.9441 4.89052C16.6941 4.64048 16.3549 4.5 16.0013 4.5C15.6477 4.5 15.3085 4.64048 15.0585 4.89052C14.8084 5.14057 14.668 5.47971 14.668 5.83333Z" stroke="white" stroke-width="2" stroke-linecap="round" stroke-linejoin="round"/>
<path d="M4 16.5001C4 16.8537 4.14048 17.1928 4.39052 17.4429C4.64057 17.6929 4.97971 17.8334 5.33333 17.8334C5.68696 17.8334 6.02609 17.6929 6.27614 17.4429C6.52619 17.1928 6.66667 16.8537 6.66667 16.5001C6.66667 16.1465 6.52619 15.8073 6.27614 15.5573C6.02609 15.3072 5.68696 15.1667 5.33333 15.1667C4.97971 15.1667 4.64057 15.3072 4.39052 15.5573C4.14048 15.8073 4 16.1465 4 16.5001Z" stroke="white" stroke-width="2" stroke-linecap="round" stroke-linejoin="round"/>
<path d="M25.332 16.4998C25.332 16.8535 25.4725 17.1926 25.7226 17.4426C25.9726 17.6927 26.3117 17.8332 26.6654 17.8332C27.019 17.8332 27.3581 17.6927 27.6082 17.4426C27.8582 17.1926 27.9987 16.8535 27.9987 16.4998C27.9987 16.1462 27.8582 15.8071 27.6082 15.557C27.3581 15.307 27.019 15.1665 26.6654 15.1665C26.3117 15.1665 25.9726 15.307 25.7226 15.557C25.4725 15.8071 25.332 16.1462 25.332 16.4998Z" stroke="white" stroke-width="2" stroke-linecap="round" stroke-linejoin="round"/>
<path d="M14.668 27.1668C14.668 27.5205 14.8084 27.8596 15.0585 28.1096C15.3085 28.3597 15.6477 28.5002 16.0013 28.5002C16.3549 28.5002 16.6941 28.3597 16.9441 28.1096C17.1942 27.8596 17.3346 27.5205 17.3346 27.1668C17.3346 26.8132 17.1942 26.4741 16.9441 26.224C16.6941 25.974 16.3549 25.8335 16.0013 25.8335C15.6477 25.8335 15.3085 25.974 15.0585 26.224C14.8084 26.4741 14.668 26.8132 14.668 27.1668Z" stroke="white" stroke-width="2" stroke-linecap="round" stroke-linejoin="round"/>
<path d="M7.33203 7.8335L11.332 11.8335" stroke="white" stroke-width="2" stroke-linecap="round" stroke-linejoin="round"/>
<path d="M20.668 21.1665L24.668 25.1665" stroke="white" stroke-width="2" stroke-linecap="round" stroke-linejoin="round"/>
<path d="M24.668 7.8335L20.668 11.8335" stroke="white" stroke-width="2" stroke-linecap="round" stroke-linejoin="round"/>
<path d="M11.332 21.1665L7.33203 25.1665" stroke="white" stroke-width="2" stroke-linecap="round" stroke-linejoin="round"/>
</g>
<defs>
<clipPath id="clip0_119_141">
<rect width="32" height="32" fill="white" transform="translate(0 0.5)"/>
</clipPath>
</defs>
</svg>
