<svg width="33" height="33" viewBox="0 0 33 33" fill="none" xmlns="http://www.w3.org/2000/svg">
<g clip-path="url(#clip0_119_102)">
<path d="M26.5017 17.2629L16.5017 27.1669L6.5017 17.2629C5.84211 16.6211 5.32256 15.8496 4.97577 14.9971C4.62897 14.1446 4.46245 13.2295 4.48669 12.3095C4.51092 11.3895 4.72539 10.4844 5.11658 9.65135C5.50777 8.81829 6.06722 8.07524 6.75969 7.46901C7.45215 6.86278 8.26264 6.40649 9.14012 6.12888C10.0176 5.85127 10.943 5.75835 11.8582 5.85597C12.7733 5.95359 13.6584 6.23965 14.4575 6.69611C15.2567 7.15258 15.9527 7.76957 16.5017 8.50824C17.0531 7.77493 17.7499 7.16333 18.5485 6.71171C19.3471 6.26009 20.2304 5.97817 21.1429 5.8836C22.0555 5.78902 22.9778 5.88383 23.8521 6.16209C24.7263 6.44035 25.5337 6.89607 26.2238 7.50072C26.9138 8.10537 27.4716 8.84595 27.8623 9.67609C28.2529 10.5062 28.468 11.4081 28.4941 12.3252C28.5202 13.2423 28.3567 14.1549 28.0139 15.0059C27.671 15.8569 27.1562 16.628 26.5017 17.2709" stroke="white" stroke-width="2" stroke-linecap="round" stroke-linejoin="round"/>
<path d="M16.4998 8.5L12.1091 12.8907C11.8592 13.1407 11.7188 13.4798 11.7188 13.8333C11.7188 14.1869 11.8592 14.526 12.1091 14.776L12.8331 15.5C13.7531 16.42 15.2465 16.42 16.1665 15.5L17.4998 14.1667C18.2955 13.371 19.3746 12.924 20.4998 12.924C21.625 12.924 22.7041 13.371 23.4998 14.1667L26.4998 17.1667" stroke="white" stroke-width="2" stroke-linecap="round" stroke-linejoin="round"/>
<path d="M17.168 21.1665L19.8346 23.8332" stroke="white" stroke-width="2" stroke-linecap="round" stroke-linejoin="round"/>
<path d="M20.5 17.8333L23.1667 20.4999" stroke="white" stroke-width="2" stroke-linecap="round" stroke-linejoin="round"/>
</g>
<defs>
<clipPath id="clip0_119_102">
<rect width="32" height="32" fill="white" transform="translate(0.5 0.5)"/>
</clipPath>
</defs>
</svg>
