<svg width="32" height="33" viewBox="0 0 32 33" fill="none" xmlns="http://www.w3.org/2000/svg">
<g clip-path="url(#clip0_119_92)">
<path d="M8 28.5V25.8333C8 24.4188 8.5619 23.0623 9.5621 22.0621C10.5623 21.0619 11.9188 20.5 13.3333 20.5H16" stroke="white" stroke-width="2" stroke-linecap="round" stroke-linejoin="round"/>
<path d="M29.3333 21.8333C29.3333 27.1666 26 29.8333 24.6667 29.8333C23.3333 29.8333 20 27.1666 20 21.8333C21.3333 21.8333 23.3333 21.1666 24.6667 19.8333C26 21.1666 28 21.8333 29.3333 21.8333Z" stroke="white" stroke-width="2" stroke-linecap="round" stroke-linejoin="round"/>
<path d="M10.668 9.83333C10.668 11.2478 11.2299 12.6044 12.2301 13.6046C13.2303 14.6048 14.5868 15.1667 16.0013 15.1667C17.4158 15.1667 18.7723 14.6048 19.7725 13.6046C20.7727 12.6044 21.3346 11.2478 21.3346 9.83333C21.3346 8.41885 20.7727 7.06229 19.7725 6.0621C18.7723 5.0619 17.4158 4.5 16.0013 4.5C14.5868 4.5 13.2303 5.0619 12.2301 6.0621C11.2299 7.06229 10.668 8.41885 10.668 9.83333Z" stroke="white" stroke-width="2" stroke-linecap="round" stroke-linejoin="round"/>
</g>
<defs>
<clipPath id="clip0_119_92">
<rect width="32" height="32" fill="white" transform="translate(0 0.5)"/>
</clipPath>
</defs>
</svg>
