<svg width="33" height="33" viewBox="0 0 33 33" fill="none" xmlns="http://www.w3.org/2000/svg">
<g clip-path="url(#clip0_119_131)">
<path d="M11.168 9.83333C11.168 11.2478 11.7299 12.6044 12.7301 13.6046C13.7303 14.6048 15.0868 15.1667 16.5013 15.1667C17.9158 15.1667 19.2723 14.6048 20.2725 13.6046C21.2727 12.6044 21.8346 11.2478 21.8346 9.83333C21.8346 8.41885 21.2727 7.06229 20.2725 6.0621C19.2723 5.0619 17.9158 4.5 16.5013 4.5C15.0868 4.5 13.7303 5.0619 12.7301 6.0621C11.7299 7.06229 11.168 8.41885 11.168 9.83333Z" stroke="white" stroke-width="2" stroke-linecap="round" stroke-linejoin="round"/>
<path d="M8.5 28.5V25.8333C8.5 24.4188 9.0619 23.0623 10.0621 22.0621C11.0623 21.0619 12.4188 20.5 13.8333 20.5H14.5" stroke="white" stroke-width="2" stroke-linecap="round" stroke-linejoin="round"/>
<path d="M24.5015 29.8333L28.9681 25.4547C29.242 25.1889 29.4599 24.8709 29.6089 24.5195C29.7579 24.1681 29.835 23.7904 29.8356 23.4087C29.8362 23.027 29.7604 22.6491 29.6125 22.2972C29.4647 21.9454 29.2478 21.6267 28.9748 21.36C28.4176 20.8151 27.6697 20.5093 26.8904 20.5078C26.1111 20.5064 25.362 20.8092 24.8028 21.352L24.5041 21.6453L24.2068 21.352C23.6497 20.8075 22.9021 20.502 22.1231 20.5005C21.3441 20.499 20.5953 20.8016 20.0361 21.344C19.7621 21.6097 19.5441 21.9276 19.395 22.279C19.2459 22.6303 19.1687 23.008 19.168 23.3896C19.1672 23.7713 19.243 24.1493 19.3907 24.5012C19.5384 24.8531 19.7552 25.1719 20.0281 25.4387L24.5015 29.8333Z" stroke="white" stroke-width="2" stroke-linecap="round" stroke-linejoin="round"/>
</g>
<defs>
<clipPath id="clip0_119_131">
<rect width="32" height="32" fill="white" transform="translate(0.5 0.5)"/>
</clipPath>
</defs>
</svg>
