<svg width="32" height="33" viewBox="0 0 32 33" fill="none" xmlns="http://www.w3.org/2000/svg">
<g clip-path="url(#clip0_119_113)">
<path d="M15.9985 28.5C13.9228 27.9616 11.9765 27.0114 10.2752 25.706C8.57396 24.4005 7.15249 22.7664 6.09527 20.9007C5.03805 19.035 4.36666 16.9759 4.12098 14.8456C3.8753 12.7153 4.06035 10.5574 4.66514 8.5C8.81918 8.69009 12.884 7.25543 15.9985 4.5C19.1129 7.25543 23.1778 8.69009 27.3318 8.5C27.967 10.662 28.1387 12.9337 27.8358 15.1667" stroke="white" stroke-width="2" stroke-linecap="round" stroke-linejoin="round"/>
<path d="M24.0015 29.8333L28.4681 25.4547C28.742 25.1889 28.9599 24.8709 29.1089 24.5195C29.2579 24.1681 29.335 23.7904 29.3356 23.4087C29.3362 23.027 29.2604 22.6491 29.1125 22.2972C28.9647 21.9454 28.7478 21.6267 28.4748 21.36C27.9176 20.8151 27.1697 20.5093 26.3904 20.5078C25.6111 20.5064 24.862 20.8092 24.3028 21.352L24.0041 21.6453L23.7068 21.352C23.1497 20.8075 22.4021 20.502 21.6231 20.5005C20.8441 20.499 20.0953 20.8016 19.5361 21.344C19.2621 21.6097 19.0441 21.9276 18.895 22.279C18.7459 22.6303 18.6687 23.008 18.668 23.3896C18.6672 23.7713 18.743 24.1493 18.8907 24.5012C19.0384 24.8531 19.2552 25.1719 19.5281 25.4387L24.0015 29.8333Z" stroke="white" stroke-width="2" stroke-linecap="round" stroke-linejoin="round"/>
</g>
<defs>
<clipPath id="clip0_119_113">
<rect width="32" height="32" fill="white" transform="translate(0 0.5)"/>
</clipPath>
</defs>
</svg>
