<svg width="37" height="30" viewBox="0 0 37 30" fill="none" xmlns="http://www.w3.org/2000/svg">
<g id="PAK flag">
<g id="Mask group">
<mask id="mask0_435_194" style="mask-type:alpha" maskUnits="userSpaceOnUse" x="0" y="0" width="37" height="30">
<path id="Vector" d="M22 0H15C6.71573 0 0 6.71573 0 15C0 23.2843 6.71573 30 15 30H22C30.2843 30 37 23.2843 37 15C37 6.71573 30.2843 0 22 0Z" fill="white"/>
</mask>
<g mask="url(#mask0_435_194)">
<g id="Group">
<path id="Vector_2" d="M18.588 9.87603L12.4 12.424L18.588 15L12.4 17.576L18.588 20.152L12.4 22.7L18.588 25.276L12.4 27.824L13.1 28.132C9.236 26.676 6.156 23.568 4.784 19.676C4.28 18.192 4 16.624 4 15C4 13.376 4.28 11.808 4.784 10.352C6.1 6.68403 8.844 3.71603 12.4 2.17603L18.588 4.75203L12.4 7.30002L18.588 9.87603Z" fill="#FFFFFB"/>
<path id="Vector_3" d="M32 15C32 16.624 31.72 18.192 31.216 19.648C29.368 24.884 24.524 28.692 18.728 28.972C18.476 29 18.252 29 18 29C17.748 29 17.524 29 17.272 28.972C15.816 28.888 14.444 28.608 13.128 28.132L13.1 28.104L12.4 27.796L18.588 25.22L12.4 22.7L18.588 20.124L12.4 17.576L18.588 15L12.4 12.424L18.588 9.848L12.4 7.3L18.588 4.724L12.4 2.176L12.988 1.924C14.332 1.42 15.76 1.084 17.272 1.028C17.496 1.028 17.748 1 18 1C18.252 1 18.476 1 18.728 1.028C24.524 1.308 29.368 5.116 31.216 10.352C31.72 11.808 32 13.376 32 15Z" fill="#231F20"/>
<path id="Vector_4" d="M32 15C32 16.624 31.72 18.192 31.216 19.648C29.368 24.884 24.524 28.692 18.728 28.972C18.476 29 18.252 29 18 29C17.748 29 17.524 29 17.272 28.972C15.816 28.888 14.444 28.608 13.128 28.132L13.1 28.104L12.4 27.796L18.588 25.22L12.4 22.7L18.588 20.124L12.4 17.576L18.588 15L12.4 12.424L18.588 9.848L12.4 7.3L18.588 4.724L12.4 2.176L12.988 1.924C14.332 1.42 15.76 1.084 17.272 1.028C17.496 1.028 17.748 1 18 1C18.252 1 18.476 1 18.728 1.028C24.524 1.308 29.368 5.116 31.216 10.352C31.72 11.808 32 13.376 32 15Z" fill="#A81D44"/>
</g>
</g>
</g>
</g>
</svg>
