<svg width="38" height="22" viewBox="0 0 38 22" fill="none" xmlns="http://www.w3.org/2000/svg">
<g id="PAK flag">
<g id="Mask group">
<mask id="mask0_3765_29" style="mask-type:alpha" maskUnits="userSpaceOnUse" x="0" y="0" width="38" height="22">
<path id="Vector" d="M26.3459 0.149902H10.85C4.85771 0.149902 0 5.00762 0 10.9999C0 16.9922 4.85771 21.8499 10.85 21.8499H26.3459C32.3382 21.8499 37.1959 16.9922 37.1959 10.9999C37.1959 5.00762 32.3382 0.149902 26.3459 0.149902Z" fill="white"/>
</mask>
<g mask="url(#mask0_3765_29)">
<rect id="Rectangle 10502" x="10.9707" y="0.149902" width="26.4439" height="22.085" fill="#2E6934"/>
<rect id="Rectangle 10503" x="-3.19727" y="0.149902" width="14.457" height="22.085" fill="white"/>
</g>
</g>
<path id="Vector_2" d="M22.8776 4.46533C26.4664 4.46533 29.3723 7.37852 29.3723 10.9746C29.3723 14.5707 26.4664 17.4839 22.8776 17.4839C19.2887 17.4839 16.3828 14.5707 16.3828 10.9746C16.3828 7.37852 19.296 4.46533 22.8776 4.46533Z" fill="white"/>
<path id="Vector_3" d="M20.5803 5.03191C23.0358 2.8452 26.8063 3.06314 28.9857 5.52592C31.1724 7.98869 30.9472 11.7591 28.4917 13.9531C26.0362 16.1398 22.2657 15.9219 20.0863 13.4591C17.8996 10.9963 18.1248 7.22589 20.5803 5.03191Z" fill="#2E6934"/>
<path id="Vector_4" d="M26.6136 7.99601C26.8934 7.66129 26.5311 7.17758 26.1312 7.35191C25.9226 7.44285 25.8267 7.68534 25.9167 7.89439C26.0386 8.17734 26.416 8.23238 26.6136 7.99601Z" fill="white"/>
<path id="Vector_5" d="M26.2689 7.61009C26.6335 7.37225 27.0699 7.78868 26.8494 8.16402C26.7342 8.36009 26.4819 8.42579 26.2857 8.31082C26.0215 8.15603 26.0124 7.77739 26.2689 7.61009Z" fill="white"/>
<path id="Vector_6" d="M26.3587 8.5348C26.7635 8.69722 27.1111 8.20314 26.8216 7.87703C26.6698 7.70613 26.4082 7.69088 26.2376 7.84301C26.0088 8.04711 26.0742 8.4206 26.3587 8.5348Z" fill="white"/>
<path id="Vector_7" d="M26.6234 8.08497C26.9628 8.36016 26.7003 8.90532 26.2735 8.81146C26.0501 8.76234 25.9088 8.54151 25.9578 8.3181C26.0238 8.0169 26.3839 7.89078 26.6234 8.08497Z" fill="white"/>
<path id="Vector_8" d="M26.1851 7.59178C25.9533 7.22125 25.3801 7.4163 25.4224 7.85128C25.4446 8.07937 25.648 8.24599 25.876 8.22288C26.181 8.19197 26.3476 7.85169 26.1851 7.59178Z" fill="white"/>
<path id="Vector_9" d="M25.704 7.79782C25.5914 7.37485 26.1258 7.08843 26.4157 7.41638C26.5674 7.58803 26.5512 7.85017 26.3796 8.00189C26.1486 8.20611 25.7834 8.0958 25.704 7.79782Z" fill="white"/>
<path id="Vector_10" d="M25.7681 8.45941C25.7393 8.89583 26.3184 9.07356 26.5394 8.69608C26.6552 8.49812 26.5883 8.24371 26.39 8.12842C26.1241 7.97383 25.7884 8.15251 25.7681 8.45941Z" fill="white"/>
<path id="Vector_11" d="M26.2781 8.57046C26.1227 8.97794 25.5238 8.89749 25.4814 8.46345C25.4593 8.2371 25.6244 8.03549 25.8507 8.01256C26.1563 7.98158 26.3876 8.2834 26.2781 8.57046Z" fill="white"/>
<path id="Vector_12" d="M25.6589 7.87481C25.2365 7.98073 25.2453 8.584 25.6706 8.67753C25.8929 8.72643 26.1128 8.58594 26.1618 8.36366C26.2279 8.06444 25.9561 7.80028 25.6589 7.87481Z" fill="white"/>
<path id="Vector_13" d="M25.7063 8.39549C25.27 8.3719 25.1625 7.77643 25.5631 7.60182C25.7726 7.51048 26.0165 7.60607 26.1082 7.81545C26.232 8.09815 26.0145 8.41214 25.7063 8.39549Z" fill="white"/>
</g>
</svg>
