<svg width="37" height="30" viewBox="0 0 37 30" fill="none" xmlns="http://www.w3.org/2000/svg">
<g id="PAK flag">
<g id="Mask group">
<mask id="mask0_435_155" style="mask-type:alpha" maskUnits="userSpaceOnUse" x="0" y="0" width="37" height="30">
<path id="Vector" d="M22 0H15C6.71573 0 0 6.71573 0 15C0 23.2843 6.71573 30 15 30H22C30.2843 30 37 23.2843 37 15C37 6.71573 30.2843 0 22 0Z" fill="white"/>
</mask>
<g mask="url(#mask0_435_155)">
<g id="Group">
<g id="Group_2">
<path id="Vector_2" d="M32 15C32 17.548 31.328 19.928 30.124 22C27.716 26.172 23.18 29 18 29C15.452 29 13.072 28.328 11 27.124C8.872 25.892 7.108 24.128 5.876 22C4.672 19.928 4 17.548 4 15C4 12.452 4.672 10.044 5.876 8C7.108 5.872 8.872 4.108 11 2.876C13.072 1.672 15.452 1 18 1C23.18 1 27.716 3.8 30.124 8C31.328 10.044 32 12.452 32 15Z" fill="#0D804B"/>
<path id="Vector_3" d="M11 2.87604V27.124C8.872 25.892 7.108 24.128 5.876 22C4.672 19.928 4 17.548 4 15C4 12.452 4.672 10.044 5.876 8.00004C7.108 5.87204 8.872 4.10804 11 2.87604Z" fill="white"/>
</g>
<path id="Vector_4" d="M24.664 17.464C24.02 18.696 22.984 19.704 21.612 20.32C19.484 21.244 17.104 20.908 15.34 19.62C14.472 18.976 13.772 18.108 13.296 17.072C12.848 16.008 12.68 14.916 12.82 13.852C13.072 11.696 14.416 9.70801 16.572 8.78401C16.852 8.67201 17.132 8.56001 17.44 8.47601C15.9 9.42801 14.948 11.024 14.752 12.76C14.64 13.712 14.752 14.72 15.2 15.7C15.62 16.68 16.292 17.464 17.076 18.052C18.7 19.256 20.884 19.564 22.872 18.696C23.544 18.388 24.16 17.968 24.664 17.464Z" fill="white"/>
<path id="Vector_5" d="M20.2121 11.948L21.4161 11.304L21.1641 12.648L22.1441 13.6L20.8001 13.796L20.2121 15L19.5961 13.796L18.2521 13.6L19.2321 12.648L19.0081 11.304L20.2121 11.948Z" fill="white"/>
</g>
</g>
</g>
</g>
</svg>
