<svg width="37" height="30" viewBox="0 0 37 30" fill="none" xmlns="http://www.w3.org/2000/svg">
<g id="PAK flag">
<g id="Mask group">
<mask id="mask0_435_169" style="mask-type:alpha" maskUnits="userSpaceOnUse" x="0" y="0" width="37" height="30">
<path id="Vector" d="M22 0H15C6.71573 0 0 6.71573 0 15C0 23.2843 6.71573 30 15 30H22C30.2843 30 37 23.2843 37 15C37 6.71573 30.2843 0 22 0Z" fill="white"/>
</mask>
<g mask="url(#mask0_435_169)">
<g id="Group">
<g id="Group_2">
<path id="Vector_2" d="M31.188 10.324H11.84V2.428C13.688 1.504 15.788 1 18 1C23.18 1 27.716 3.828 30.124 8C30.544 8.728 30.908 9.512 31.188 10.324Z" fill="#038A45"/>
<path id="Vector_3" d="M32 15C32 16.652 31.72 18.22 31.188 19.676H11.84V10.324H31.188C31.72 11.78 32 13.376 32 15Z" fill="#FFFFFB"/>
<path id="Vector_4" d="M31.188 19.676C30.908 20.488 30.544 21.272 30.124 22C27.716 26.2 23.18 29 18 29C15.788 29 13.688 28.496 11.84 27.572V19.676H31.188Z" fill="#020202"/>
</g>
<path id="Vector_5" d="M11.84 2.42798V27.572C9.348 26.34 7.276 24.408 5.876 22C5.456 21.272 5.092 20.488 4.812 19.676C4.28 18.22 4 16.652 4 15C4 13.376 4.28 11.78 4.784 10.324C5.064 9.51198 5.428 8.72798 5.848 7.99998C7.276 5.59198 9.348 3.65998 11.84 2.42798Z" fill="#EC2025"/>
</g>
</g>
</g>
</g>
</svg>
