<svg width="21" height="24" viewBox="0 0 21 24" fill="none" xmlns="http://www.w3.org/2000/svg">
<path d="M17.2045 12.7632C17.2166 11.8433 17.4669 10.9414 17.9321 10.1413C18.3972 9.34117 19.0621 8.66894 19.8648 8.18712C19.3548 7.47607 18.6821 6.8909 17.9 6.47809C17.1178 6.06529 16.2479 5.83622 15.3592 5.80907C13.4635 5.6148 11.6258 6.91653 10.6598 6.91653C9.67506 6.91653 8.18776 5.82836 6.58616 5.86053C5.55021 5.8932 4.54059 6.18731 3.65568 6.7142C2.77077 7.24108 2.04075 7.98277 1.53674 8.867C-0.646482 12.5574 0.982005 17.981 3.07338 20.9641C4.11975 22.4248 5.34264 24.0565 6.94279 23.9986C8.50863 23.9352 9.09344 23.0238 10.9835 23.0238C12.8561 23.0238 13.4048 23.9986 15.0374 23.9618C16.7176 23.9352 17.7762 22.4946 18.7859 21.0201C19.5377 19.9793 20.1162 18.8289 20.5 17.6117C19.5238 17.2086 18.6908 16.5339 18.1048 15.6717C17.5187 14.8095 17.2056 13.798 17.2045 12.7632Z" fill="black"/>
<path d="M14.1201 3.84713C15.0362 2.77343 15.4875 1.39335 15.3782 0C13.9786 0.143519 12.6857 0.796596 11.7572 1.82911C11.3033 2.33351 10.9556 2.92033 10.734 3.55601C10.5125 4.19168 10.4215 4.86375 10.4661 5.5338C11.1662 5.54084 11.8588 5.3927 12.4917 5.10054C13.1246 4.80838 13.6814 4.37982 14.1201 3.84713Z" fill="black"/>
</svg>
