<svg width="87" height="87" viewBox="0 0 87 87" fill="none" xmlns="http://www.w3.org/2000/svg">
<rect x="0.5" y="0.5" width="86" height="86" rx="43" fill="#7157F8"/>
<rect x="0.5" y="0.5" width="86" height="86" rx="43" stroke="#7157F8"/>
<g clip-path="url(#clip0_3525_167)">
<path d="M21.375 43.5H23.8333M43.5 21.375V23.8333M63.1667 43.5H65.625M27.7667 27.7667L29.4875 29.4875M59.2333 27.7667L57.5125 29.4875" stroke="white" stroke-width="3" stroke-linecap="round" stroke-linejoin="round"/>
<path d="M36.1257 53.3335C34.0618 51.7856 32.5373 49.6276 31.7681 47.1651C30.9989 44.7027 31.0239 42.0606 31.8398 39.6132C32.6556 37.1658 34.2207 35.0371 36.3136 33.5286C38.4064 32.0202 40.9208 31.2085 43.5007 31.2085C46.0805 31.2085 48.5949 32.0202 50.6877 33.5286C52.7806 35.0371 54.3457 37.1658 55.1615 39.6132C55.9774 42.0606 56.0024 44.7027 55.2332 47.1651C54.464 49.6276 52.9395 51.7856 50.8757 53.3335C49.9158 54.2836 49.1932 55.4463 48.7661 56.7275C48.339 58.0088 48.2195 59.3725 48.4173 60.7085C48.4173 62.0125 47.8993 63.263 46.9773 64.1851C46.0552 65.1072 44.8046 65.6252 43.5007 65.6252C42.1967 65.6252 40.9461 65.1072 40.024 64.1851C39.102 63.263 38.584 62.0125 38.584 60.7085C38.7818 59.3725 38.6623 58.0088 38.2352 56.7275C37.8081 55.4463 37.0855 54.2836 36.1257 53.3335Z" stroke="white" stroke-width="3" stroke-linecap="round" stroke-linejoin="round"/>
<path d="M37.8457 55.7915H49.154" stroke="#794EFF" stroke-width="2" stroke-linecap="round" stroke-linejoin="round"/>
</g>
<defs>
<clipPath id="clip0_3525_167">
<rect width="59" height="59" fill="white" transform="translate(14 14)"/>
</clipPath>
</defs>
</svg>
