<svg width="25" height="25" viewBox="0 0 25 25" fill="none" xmlns="http://www.w3.org/2000/svg">
<path id="Path 2125" d="M25.002 12.158V13.5678C24.9879 13.643 24.9718 13.7157 24.9606 13.7909C24.8666 14.3868 24.83 14.9933 24.6787 15.577C24.2231 17.6179 23.2352 19.502 21.8155 21.0373C20.3957 22.5725 18.5948 23.704 16.5958 24.3176C15.9068 24.5545 15.1766 24.6669 14.4472 24.8408V15.3677H17.3251L17.7593 12.0139H14.4416C14.4416 11.1774 14.4293 10.3723 14.4491 9.57062C14.4602 9.33645 14.5195 9.10635 14.623 8.896C14.7292 8.69759 14.8897 8.53383 15.0858 8.42331C15.2819 8.31279 15.5054 8.26003 15.7301 8.27187C16.3552 8.23991 16.982 8.24916 17.6099 8.23882C17.6926 8.23882 17.7743 8.22976 17.8711 8.22506C17.8711 7.25887 17.8712 6.32142 17.8646 5.38249C17.8529 5.34473 17.8319 5.30989 17.8034 5.28244C17.775 5.255 17.7402 5.23584 17.702 5.22554C16.7565 5.18324 15.8091 5.11126 14.8645 5.131C13.9545 5.13915 13.0762 5.46645 12.3823 6.05527C11.9519 6.42827 11.6056 6.88855 11.3665 7.40542C11.1273 7.9223 11.0007 8.48346 10.995 9.05295C10.948 9.94395 10.9696 10.8393 10.9602 11.7303C10.9602 11.8243 10.9602 11.912 10.9602 12.0295H8.0823V15.3898H10.9471V24.7041C10.8889 24.6975 10.8427 24.6969 10.7985 24.6875C8.90549 24.3405 7.1244 23.5407 5.60675 22.3571C3.53428 20.7556 2.04284 18.5196 1.36011 15.991C0.677378 13.4623 0.840801 10.7796 1.82557 8.35264C2.69908 6.20488 4.17372 4.35507 6.07256 3.02454C7.9714 1.69402 10.2138 0.939792 12.5308 0.852002C14.6622 0.75866 16.7784 1.25112 18.6493 2.2765C20.2632 3.12655 21.6589 4.33844 22.7276 5.81663C23.7962 7.29482 24.509 8.99972 24.8103 10.7987C24.9005 11.2433 24.9409 11.7031 25.002 12.158Z" fill="#D8D8D8"/>
</svg>
