<svg width="88" height="87" viewBox="0 0 88 87" fill="none" xmlns="http://www.w3.org/2000/svg">
<rect x="1" y="0.5" width="86" height="86" rx="43" fill="#794EFF"/>
<rect x="1" y="0.5" width="86" height="86" rx="43" stroke="#7157F8"/>
<g clip-path="url(#clip0_3525_175)">
<g clip-path="url(#clip1_3525_175)">
<path d="M32.8631 68.6055C33.7813 68.9226 34.6903 69.2858 35.6195 69.5384C36.6484 69.8187 37.6882 70.0252 38.7318 70.2151C40.8558 70.6041 43.0019 70.6797 45.1462 70.6115C46.6765 70.5617 48.2068 70.4603 49.7298 70.2722C51.0554 70.1026 52.37 69.8297 53.6809 69.531C54.7577 69.2858 55.8234 68.941 56.8964 68.6387C56.8964 69.0885 56.8964 69.59 56.8964 70.086C56.8964 70.1542 56.8927 70.2187 56.889 70.287C56.8559 71.3858 56.9904 71.1978 56.0999 71.7675C55.1172 72.3981 54.0552 72.8018 52.9711 73.1005C52.075 73.3494 51.1697 73.5725 50.2589 73.72C49.2061 73.8897 48.1441 73.9892 47.0803 74.0722C45.4209 74.2013 43.756 74.1404 42.104 73.9505C39.3347 73.626 36.6225 72.9825 34.0284 71.7509C33.7334 71.6145 33.4402 71.467 33.1397 71.3471C32.9572 71.2752 32.8705 71.1701 32.8705 70.9249C32.8687 70.2796 32.8336 69.6361 32.8263 68.9908C32.8244 68.8599 32.8502 68.7308 32.8631 68.6055ZM45.3509 73.6352C46.1935 73.5928 46.931 73.5596 47.6685 73.5025C47.9837 73.4767 48.3009 73.4269 48.5995 73.3328C48.8448 73.2572 48.9167 73.0452 48.8116 72.8111C48.6493 72.4405 48.4668 72.0772 48.2806 71.7196C48.146 71.4596 47.9395 71.2808 47.6279 71.2771C47.2942 71.2734 46.9623 71.2623 46.6286 71.2808C45.8395 71.3232 45.054 71.4577 44.2649 71.2734C43.9183 71.1941 43.5421 71.1554 43.2379 71.4172C42.8065 71.7952 42.4967 72.2635 42.3437 72.8221C42.2478 73.1706 42.3732 73.3513 42.7254 73.4232C42.7954 73.4416 42.8636 73.4601 42.9355 73.4619C43.7708 73.5246 44.6115 73.5854 45.3509 73.6352Z" fill="white"/>
<path d="M43.0114 69.5646C44.9031 69.6254 46.7948 69.5609 48.6828 69.3913C50.9525 69.1903 53.2166 68.923 55.4254 68.3293C57.1567 67.8646 58.8142 67.2064 60.3298 66.2292C61.731 65.3295 62.6714 64.1126 63.0696 62.4809C63.4734 60.8529 63.7905 59.2082 63.973 57.5433M43.0114 69.5646L43.0617 68.0654C43.0615 68.0654 43.0613 68.0654 43.0611 68.0654M43.0114 69.5646L43.0597 68.0654C43.0601 68.0654 43.0606 68.0654 43.0611 68.0654M43.0114 69.5646C39.984 69.4632 36.9916 69.1166 34.084 68.2279C32.3656 67.7024 30.78 66.9354 29.3806 65.7904L41.2156 28.1557M43.0611 68.0654C44.8861 68.124 46.7162 68.0619 48.5486 67.8973L48.5505 67.8971C50.8007 67.6979 52.9582 67.4392 55.0361 66.8807L55.0366 66.8805C56.6582 66.4453 58.1633 65.8414 59.517 64.9686L59.5193 64.967C60.6303 64.2537 61.3145 63.3459 61.6124 62.1252L61.6137 62.1198C62.0049 60.5425 62.308 58.9656 62.4818 57.3813M43.0611 68.0654C40.111 67.9666 37.2607 67.6303 34.5227 66.7934C32.9499 66.3125 31.5489 65.6264 30.3305 64.6295L30.3294 64.6286C29.2746 63.7672 28.6262 62.6873 28.3218 61.3348L28.321 61.3315C27.9336 59.6281 27.6726 57.8911 27.4853 56.1224L27.4853 56.1221C27.0849 52.3496 27.0111 48.5515 27.0913 44.7144C27.124 43.3033 27.1929 41.8834 27.2772 40.4572L27.2774 40.4538C27.3852 38.5547 27.5882 36.6979 27.9823 34.8868C28.0974 34.3696 28.2993 34.0507 28.645 33.7892C29.0768 33.464 29.4938 33.1231 29.8845 32.8038C29.9183 32.7762 29.9518 32.7488 29.9852 32.7215C30.4139 32.3713 30.8146 32.0469 31.2244 31.7472C32.6536 30.7047 34.2509 29.8799 35.9304 29.3064C36.7683 29.0215 37.6265 28.8011 38.5 28.6467C38.9383 28.5697 39.3006 28.4937 39.6346 28.4237C40.1282 28.3201 40.5601 28.2296 41.0847 28.1679C41.0847 28.1679 41.0847 28.1679 41.0847 28.1679C41.0881 28.1676 41.0951 28.1669 41.107 28.1658L41.1768 28.1592C41.189 28.1581 41.2019 28.1569 41.2156 28.1557M62.4818 57.3813C62.4818 57.3816 62.4817 57.382 62.4817 57.3823L63.973 57.5433M62.4818 57.3813C62.4819 57.3808 62.4819 57.3804 62.482 57.3799L63.973 57.5433M62.4818 57.3813C62.6702 55.6366 62.8012 53.8758 62.9304 52.0977M63.973 57.5433C64.1648 55.7678 64.2975 53.9812 64.4266 52.2038M64.4266 52.2038L62.9303 52.0981C62.9303 52.098 62.9304 52.0978 62.9304 52.0977M64.4266 52.2038C64.4832 51.4035 64.4967 50.5967 64.5102 49.7939C64.5112 49.7331 64.5122 49.6723 64.5133 49.6115M64.4266 52.2038L62.9305 52.0952C62.9305 52.096 62.9304 52.0968 62.9304 52.0977M62.9304 52.0977C62.9839 51.3394 62.9969 50.5713 63.0105 49.7596C63.0115 49.7019 63.0125 49.644 63.0135 49.5859M64.5133 49.6115L63.0135 49.5867C63.0135 49.5864 63.0135 49.5861 63.0135 49.5859M64.5133 49.6115C64.5686 46.2706 64.5354 42.9335 64.2773 39.6018L62.7819 39.7199C62.7819 39.7195 62.7819 39.7191 62.7818 39.7187M64.5133 49.6115L63.0135 49.5859M63.0135 49.5859C63.0684 46.2699 63.0348 42.9848 62.7818 39.7187M62.7818 39.7187C62.6775 38.398 62.4997 37.0991 62.2245 35.8207L62.2235 35.8158C62.0738 35.1088 61.826 34.6186 61.4264 34.2517L61.4231 34.2487C61.1421 33.9891 60.8768 33.7225 60.6342 33.4774C60.6138 33.4568 60.5936 33.4363 60.5735 33.416C60.3481 33.1882 60.1426 32.9804 59.9318 32.7804L59.9306 32.7793C58.8674 31.7687 57.6778 30.8994 56.397 30.2204L56.3954 30.2196C56.1408 30.0842 55.8596 29.9667 55.5168 29.8317C55.4622 29.8102 55.4051 29.7879 55.346 29.7648C55.0581 29.6524 54.7228 29.5214 54.4007 29.3739L54.4003 29.3737C54.4077 29.3771 54.406 29.3765 54.3931 29.372C54.3694 29.3636 54.3076 29.3417 54.1936 29.3061C54.0441 29.2595 53.8585 29.2055 53.6601 29.1501C53.2646 29.0394 52.8514 28.9319 52.6444 28.879L52.6364 28.877L52.6364 28.8769C52.4233 28.8212 52.2213 28.7668 52.0271 28.7145C51.3369 28.5286 50.7462 28.3695 50.1097 28.2753L50.1025 28.2742L50.0954 28.2731C50.0965 28.2733 50.095 28.2731 50.0903 28.2725C50.0766 28.2707 50.0356 28.2654 49.9561 28.2561C49.8631 28.2451 49.7405 28.2312 49.5974 28.2154C49.3801 28.1914 49.1201 28.1635 48.8529 28.1355C48.8529 28.2373 48.8532 28.3326 48.8538 28.4176C48.8545 28.5206 48.8556 28.6021 48.857 28.659C48.8574 28.6732 48.8577 28.6843 48.858 28.6929C48.8947 29.0516 48.867 29.7568 48.2333 30.2597C47.7377 30.6528 47.1714 30.6413 47.0351 30.6385C47.0325 30.6385 47.03 30.6384 47.0278 30.6384C46.5611 30.6334 46.0999 30.6345 45.6276 30.6357C45.4201 30.6362 45.2104 30.6367 44.9972 30.6367H44.9933H44.9895H44.9857H44.9819H44.978H44.9742H44.9704H44.9666H44.9627H44.9589H44.9551H44.9513H44.9474H44.9436H44.9398H44.936H44.9322H44.9283H44.9245H44.9207H44.9169H44.913H44.9092H44.9054H44.9016H44.8977H44.8939H44.8901H44.8863H44.8824H44.8786H44.8748H44.871H44.8671H44.8633H44.8595H44.8557H44.8518H44.848H44.8442H44.8404H44.8365H44.8327H44.8289H44.8251H44.8212H44.8174H44.8136H44.8098H44.8059H44.8021H44.7983H44.7945H44.7907H44.7868H44.783H44.7792H44.7754H44.7715H44.7677H44.7639H44.7601H44.7562H44.7524H44.7486H44.7448H44.7409H44.7371H44.7333H44.7295H44.7256H44.7218H44.718H44.7142H44.7103H44.7065H44.7027H44.6989H44.695H44.6912H44.6874H44.6836H44.6797H44.6759H44.6721H44.6683H44.6644H44.6606H44.6568H44.653H44.6492H44.6453H44.6415H44.6377H44.6339H44.63H44.6262H44.6224H44.6186H44.6147H44.6109H44.6071H44.6033H44.5994H44.5956H44.5918H44.588H44.5841H44.5803H44.5765H44.5727H44.5688H44.565H44.5612H44.5574H44.5535H44.5497H44.5459H44.5421H44.5382H44.5344H44.5306H44.5268H44.5229H44.5191H44.5153H44.5115H44.5077H44.5038H44.5H44.4962H44.4924H44.4885H44.4847H44.4809H44.4771H44.4732H44.4694H44.4656H44.4618H44.4579H44.4541H44.4503H44.4465H44.4426H44.4388H44.435H44.4312H44.4273H44.4235H44.4197H44.4159H44.412H44.4082H44.4044H44.4006H44.3967H44.3929H44.3891H44.3853H44.3814H44.3776H44.3738H44.37H44.3662H44.3623H44.3585H44.3547H44.3509H44.347H44.3432H44.3394H44.3356H44.3317H44.3279H44.3241H44.3203H44.3164H44.3126H44.3088H44.305H44.3011H44.2973H44.2935H44.2897H44.2858H44.282H44.2782H44.2744H44.2705H44.2667H44.2629H44.2591H44.2552H44.2514H44.2476H44.2438H44.2399H44.2361H44.2323H44.2285H44.2247H44.2208H44.217H44.2132H44.2094H44.2055H44.2017H44.1979H44.1941H44.1902H44.1864H44.1826H44.1788H44.1749H44.1711H44.1673H44.1635H44.1596H44.1558H44.152H44.1482H44.1443H44.1405H44.1367H44.1329H44.129H44.1252H44.1214H44.1176H44.1137H44.1099H44.1061H44.1023H44.0984H44.0946H44.0908H44.087H44.0832H44.0793H44.0755H44.0717H44.0679H44.064H44.0602H44.0564H44.0526H44.0487H44.0449H44.0411H44.0373H44.0334H44.0296H44.0258H44.022H44.0181H44.0143H44.0105H44.0067H44.0028H43.999H43.9952H43.9914H43.9875H43.9837H43.9799H43.9761H43.9722H43.9684H43.9646H43.9608H43.9569H43.9531H43.9493H43.9455H43.9417H43.9378H43.934H43.9302H43.9264H43.9225H43.9187H43.9149H43.9111H43.9072H43.9034H43.8996H43.8958H43.8919H43.8881H43.8843H43.8805H43.8766H43.8728H43.869H43.8652H43.8613H43.8575H43.8537H43.8499H43.846H43.8422H43.8384H43.8346H43.8307H43.8269H43.8231H43.8193H43.8154H43.8116H43.8078H43.804H43.8002H43.7963H43.7925H43.7887H43.7849H43.781H43.7772H43.7734H43.7696H43.7657H43.7619H43.7581H43.7543H43.7504H43.7466H43.7428H43.739H43.7351H43.7313H43.7275H43.7237H43.7198H43.716H43.7122H43.7084H43.7045H43.7007H43.6969H43.6931H43.6892H43.6854H43.6816H43.6778H43.6739H43.6701H43.6663H43.6625H43.6587H43.6548H43.651H43.6472H43.6434H43.6395H43.6357H43.6319H43.6281H43.6242H43.6204H43.6166H43.6128H43.6089H43.6051H43.6013H43.5975H43.5936H43.5898H43.586H43.5822H43.5783H43.5745H43.5707H43.5669H43.563H43.5592H43.5554H43.5516H43.5477H43.5439H43.5401H43.5363H43.5324H43.5286H43.5248H43.521H43.5172H43.5133H43.5095H43.5057H43.5019H43.498H43.4942H43.4904H43.4866H43.4827H43.4789H43.4751H43.4713H43.4674H43.4636H43.4598H43.456H43.4521H43.4483H43.4445H43.4407H43.4368H43.433H43.4292H43.4254H43.4215H43.4177H43.4139H43.4101H43.4062H43.4024H43.3986H43.3948H43.3909H43.3871H43.3833H43.3795H43.3757H43.3718H43.368H43.3642H43.3604H43.3565H43.3527H43.3489H43.3451H43.3412H43.3374H43.3336H43.3298H43.3259H43.3221H43.3183H43.3145H43.3106H43.3068H43.303H43.2992H43.2953H43.2915H43.2877H43.2839H43.28H43.2762H43.2724H43.2686H43.2647H43.2609H43.2571H43.2533H43.2494H43.2456H43.2418H43.238H43.2342H43.2303H43.2265H43.2227H43.2189H43.215H43.2112H43.2074H43.2036H43.1997H43.1959H43.1921H43.1883H43.1844H43.1806H43.1768H43.173H43.1691H43.1653H43.1615H43.1577H43.1538H43.15H43.1462H43.1424H43.1385H43.1347H43.1309H43.1271H43.1232H43.1194H43.1156H43.1118H43.1079H43.1041H43.1003H43.0965H43.0927H43.0888H43.085H43.0812H43.0774H43.0735H43.0697H43.0659H43.0621H43.0582H43.0544H43.0506H43.0468H43.0429H43.0391C43.0352 30.6367 43.0306 30.6367 43.0252 30.6367C42.9668 30.6369 42.8248 30.6373 42.6913 30.6226C42.5577 30.6079 42.1126 30.5524 41.7254 30.1829C41.3288 29.8045 41.2573 29.3513 41.2378 29.2052C41.2197 29.0694 41.2176 28.9241 41.2169 28.8706C41.2168 28.8655 41.2168 28.8612 41.2167 28.8579L41.2165 28.8494L41.2166 28.8494C41.2159 28.7932 41.2156 28.5084 41.2156 28.1557M62.7818 39.7187L41.2156 28.1557M48.859 28.7147C48.859 28.7148 48.8589 28.7134 48.8587 28.7103L48.859 28.7147Z" stroke="white" stroke-width="3"/>
<path d="M52.8193 15.148V17.4729C52.6275 17.4895 52.4524 17.4951 52.2865 17.5227C51.2208 17.7126 50.6806 18.4391 50.5755 19.4605C50.5294 19.9251 50.5533 20.399 50.5533 20.8691C50.5533 21.2452 50.546 21.6232 50.5755 21.9993C50.6437 22.9212 51.4475 23.7085 52.3731 23.7786C52.8156 23.8136 52.8156 23.8136 52.8156 24.2635C52.8156 24.6986 52.823 25.1374 52.8119 25.5744C52.8082 25.838 52.5741 26.0667 52.3086 26.0427C51.6467 25.9837 50.9829 25.8989 50.3173 25.8399C49.4286 25.7569 48.5326 25.685 47.6384 25.6168C47.3692 25.5965 47.3378 25.5781 47.3784 25.307C47.4171 25.0507 47.3913 25.0342 46.9875 25.0415C46.9322 24.7355 46.9322 24.7355 46.7276 24.6654C46.7276 24.3538 46.687 24.0293 46.7423 23.7232C46.7792 23.5315 46.9433 23.3545 47.0816 23.1941C47.7379 22.4289 48.0348 21.5568 47.8836 20.5483C47.7748 19.8403 47.4521 19.2485 46.923 18.7654C46.864 18.7156 46.8124 18.6529 46.7589 18.5939C47.1387 18.3524 47.2493 17.7016 46.9506 17.3678C46.8548 17.2627 46.6815 17.1853 46.5376 17.1724C46.2058 17.1429 45.8739 17.1577 45.5383 17.1577C44.9188 17.1577 44.2975 17.1632 43.678 17.1595C42.9405 17.1558 42.876 17.5688 42.9479 18.0869C42.9571 18.1551 42.9866 18.2215 43.0106 18.3045C42.4888 18.6327 42.0868 19.0678 41.7881 19.6062C41.1963 20.6608 41.3217 22.0749 42.0997 23.0042C42.4095 23.3748 42.7635 23.6772 43.1949 23.8984C43.2724 23.9371 43.3387 24.057 43.3516 24.1473C43.3775 24.3188 43.359 24.4939 43.359 24.6765C43.276 24.6949 43.2078 24.7115 43.1322 24.7244C43.1212 24.8221 43.1083 24.9162 43.0935 25.0323C42.852 25.0212 42.5939 25.0083 42.7008 25.3863C42.6105 25.3974 42.5496 25.4103 42.4888 25.414C41.624 25.4619 40.7593 25.4896 39.8983 25.5707C39.2622 25.6278 38.6298 25.7587 37.9992 25.8565C37.7854 25.8915 37.4332 25.6242 37.4314 25.4121C37.424 24.9401 37.4221 24.47 37.4332 24.0017C37.4351 23.9427 37.5125 23.8486 37.5752 23.8265C38.5395 23.4799 38.9838 22.7497 39.0244 21.7707C39.0557 21.0185 39.041 20.2625 38.9875 19.5084C38.9303 18.6271 38.4233 18.0519 37.6176 17.7366C37.4793 17.6831 37.4203 17.6352 37.424 17.4711C37.4351 16.7742 37.4277 16.0754 37.4277 15.3803C38.6482 14.9728 50.2915 14.711 52.8193 15.148Z" fill="white"/>
<path d="M36.9629 27.049C36.4946 27.014 36.0503 27.0287 35.628 26.9384C34.7578 26.7485 34.2729 26.1124 34.2047 25.1444C34.1825 24.8365 34.2028 24.5268 34.2028 24.2981C34.5992 24.0566 34.9661 23.8593 35.3054 23.6196C35.6778 23.3541 35.8364 22.9467 35.8696 22.5079C35.9101 21.9326 35.9083 21.3537 35.9193 20.7747C35.9249 20.3304 35.9249 19.8861 35.9157 19.4399C35.9009 18.6931 35.5358 18.1492 34.9274 17.7491C34.7983 17.6643 34.7135 17.6772 34.6619 17.8432C34.566 18.1603 34.4646 18.4756 34.3614 18.7964C34.0092 18.7429 33.6644 18.6876 33.3086 18.6323C33.3823 18.3244 33.6294 18.1732 33.9041 18.1068C34.2083 18.0331 34.3171 17.845 34.3485 17.55C34.1069 17.4652 34.1936 17.255 34.1954 17.0817C34.201 16.2244 34.5716 15.5846 35.357 15.2158C35.864 14.9743 36.4061 15.037 36.9629 15.0591V27.049Z" fill="white"/>
<path d="M53.3125 27.0015V15.0983C54.3745 14.9637 55.3646 15.5869 55.5305 16.5991C55.5674 16.824 55.5766 17.0563 55.5766 17.285C55.5766 17.3606 55.5232 17.4454 55.4678 17.5081C55.3627 17.6334 55.525 17.9985 55.7241 18.0538C56.0117 18.1349 56.2865 18.2456 56.4377 18.5276C56.4561 18.5608 56.4672 18.5977 56.4801 18.6346C56.1279 18.6881 55.7813 18.7434 55.4218 18.8005C55.3203 18.4981 55.2208 18.1921 55.1304 17.8823C55.0733 17.6832 54.9829 17.6666 54.8207 17.7699C54.2418 18.1571 53.8914 18.6936 53.8656 19.3905C53.8361 20.3382 53.8324 21.2841 53.8583 22.2299C53.8841 23.2274 54.4704 23.9206 55.4218 24.1677C55.4863 24.188 55.5877 24.2728 55.5877 24.3281C55.6061 25.084 55.6338 25.8473 55.0438 26.4502C54.5681 26.9351 53.9855 27.0808 53.3125 27.0015Z" fill="white"/>
<path d="M44.9321 23.4854C46.0383 23.5167 46.927 22.6981 46.9196 21.5974C46.9141 20.5593 46.1379 19.7075 45.0888 19.6983C44.0876 19.6393 43.2008 20.6294 43.1658 21.4646C43.1215 22.5229 43.9475 23.4577 44.9321 23.4854Z" fill="white"/>
<path d="M46.7212 25.4487H43.3379V28.5923H46.7212V25.4487Z" fill="white"/>
</g>
</g>
<defs>
<clipPath id="clip0_3525_175">
<rect width="59" height="59" fill="white" transform="translate(14.5 14)"/>
</clipPath>
<clipPath id="clip1_3525_175">
<rect width="132.75" height="132.75" fill="white" transform="translate(14.5 14.9219)"/>
</clipPath>
</defs>
</svg>
