<svg width="24" height="25" viewBox="0 0 24 25" fill="none" xmlns="http://www.w3.org/2000/svg">
<g id="Group 515252">
<path id="Path 2041" d="M12.0099 0.840824C14.3879 0.842394 16.7117 1.55044 18.6866 2.87507C20.6614 4.19969 22.1981 6.08187 23.1018 8.28142C24.0054 10.481 24.2352 12.8986 23.7619 15.229C23.2887 17.5593 22.1336 19.6967 20.4436 21.3695C18.7535 23.0423 16.6046 24.1753 14.2695 24.6247C11.9344 25.074 9.51845 24.8193 7.32828 23.8932C5.13811 22.967 3.27244 21.4117 1.96815 19.4234C0.663849 17.4351 -0.0203144 15.1038 0.00250595 12.726C0.03263 9.56205 1.31128 6.53775 3.56007 4.3119C5.80886 2.08606 8.84583 0.838494 12.0099 0.840824ZM4.74454 12.8304H4.7307C4.7307 13.35 4.72241 13.8716 4.7307 14.3959C4.71712 15.1487 4.75801 15.9018 4.85318 16.6487C4.94391 17.293 5.18822 17.9064 5.56541 18.4364C5.91172 18.9009 6.35658 19.2827 6.86808 19.5548C7.37958 19.8269 7.94495 19.9825 8.52366 20.01C9.07644 20.0607 9.6366 20.072 10.1931 20.0766C11.3908 20.0877 12.5939 20.0904 13.7935 20.0766C14.4015 20.0702 15.0105 20.0401 15.6167 19.9848C16.2251 19.9345 16.813 19.7408 17.3323 19.4198C17.8446 19.1075 18.2756 18.6786 18.5898 18.1674C18.9041 17.6562 19.0926 17.0778 19.1399 16.4796C19.2037 15.8998 19.2345 15.3165 19.232 14.7332C19.2384 13.1827 19.2246 11.6314 19.2136 10.0808C19.2137 9.61221 19.1618 9.14527 19.0588 8.68809C18.8764 7.81705 18.3933 7.03733 17.6943 6.4865C16.994 5.96064 16.1493 5.66274 15.2741 5.63268C14.6817 5.59214 14.0865 5.57418 13.4932 5.5751C12.0458 5.5751 10.5985 5.59457 9.15109 5.60839C8.70458 5.60869 8.25966 5.66118 7.82537 5.76494C7.15845 5.90211 6.54202 6.21914 6.04327 6.68264C5.54451 7.14614 5.18252 7.7379 4.99691 8.39299C4.81577 9.05292 4.73167 9.73588 4.74724 10.42C4.73342 11.2197 4.74454 12.0252 4.74454 12.8295V12.8304Z" fill="#D8D8D8"/>
<path id="Path 2042" d="M6.05202 12.8312C6.05202 11.967 6.04373 11.1024 6.05202 10.2382C6.04272 9.73624 6.107 9.23531 6.24276 8.75192C6.36187 8.31673 6.60194 7.92437 6.93509 7.62009C7.26824 7.3158 7.68078 7.11277 8.12496 7.03348C8.53586 6.947 8.95431 6.90121 9.3742 6.89762C10.8698 6.87612 12.3655 6.86956 13.8611 6.87693C14.4035 6.87748 14.9454 6.90788 15.4844 6.9687C15.9122 6.99433 16.3261 7.13002 16.6866 7.36187C17.047 7.59373 17.3418 7.91351 17.5426 8.29217C17.7446 8.68704 17.8598 9.12131 17.8806 9.56436C17.9912 11.3978 17.9543 13.2327 17.9285 15.0679C17.9326 15.566 17.8957 16.0639 17.818 16.556C17.7412 17.0878 17.494 17.5803 17.1134 17.9596C16.7328 18.3388 16.2393 18.5847 15.7073 18.6595C15.3258 18.7252 14.9399 18.7602 14.5529 18.7657C12.9984 18.781 11.4438 18.7854 9.88929 18.7774C9.43565 18.7762 8.98238 18.7515 8.53129 18.7036C8.12208 18.6815 7.72426 18.5612 7.37145 18.3527C7.01864 18.1442 6.72116 17.853 6.50435 17.5052C6.28927 17.1434 6.15691 16.7393 6.11658 16.3203C6.03339 15.3707 6.00254 14.4167 6.02436 13.4637V12.833L6.05202 12.8312ZM11.9853 9.10461C11.2534 9.10546 10.5379 9.32129 9.92831 9.72631C9.3187 10.1313 8.84191 10.7074 8.55749 11.3818C8.27307 12.0561 8.19363 12.7993 8.32908 13.5186C8.46452 14.2378 8.80888 14.9012 9.3191 15.426C9.82932 15.9507 10.4827 16.3132 11.1979 16.4687C11.9131 16.6243 12.6583 16.5659 13.3403 16.3005C14.0224 16.0351 14.6112 15.5741 15.0332 14.9761C15.4551 14.3781 15.6914 13.6698 15.7128 12.9383C15.7272 12.4398 15.6415 11.9428 15.4605 11.478C15.2796 11.0133 15.0071 10.5894 14.6594 10.2319C14.3117 9.87444 13.8958 9.59079 13.4363 9.39702C12.9768 9.20324 12.483 9.10403 11.9843 9.10461H11.9853ZM15.8473 9.82528C16.0191 9.8269 16.1876 9.77807 16.3314 9.68402C16.4753 9.58998 16.588 9.45522 16.6554 9.29715C16.7229 9.13908 16.742 8.96492 16.7103 8.79601C16.6787 8.6271 16.5977 8.47088 16.4776 8.34795C16.3575 8.22503 16.2037 8.14061 16.0355 8.10503C15.8674 8.06946 15.6925 8.08448 15.5329 8.14822C15.3733 8.21196 15.2362 8.32151 15.1389 8.46312C15.0415 8.60473 14.9883 8.77173 14.9859 8.94356C14.9832 9.1748 15.0724 9.39796 15.2339 9.56346C15.3954 9.72896 15.616 9.82326 15.8473 9.82618V9.82528Z" fill="#D8D8D8"/>
<path id="Path 2043" d="M14.4121 12.8303C14.411 13.3102 14.2675 13.7787 14 14.1771C13.7325 14.5756 13.3529 14.8861 12.9091 15.0688C12.4653 15.2514 11.9773 15.2983 11.5068 15.2037C11.0363 15.1091 10.6044 14.8771 10.2658 14.537C9.92713 14.197 9.69693 13.7636 9.60426 13.2927C9.51159 12.8218 9.56064 12.334 9.74518 11.891C9.92972 11.448 10.2415 11.07 10.6411 10.8041C11.0406 10.5383 11.51 10.3966 11.99 10.3975C12.309 10.397 12.6251 10.4597 12.9198 10.5819C13.2146 10.7041 13.4821 10.8839 13.7073 11.11C13.9324 11.3361 14.1106 11.6038 14.2316 11.8991C14.3525 12.1943 14.4139 12.5112 14.4121 12.8303Z" fill="#D8D8D8"/>
</g>
</svg>
