<svg width="109" height="50" viewBox="0 0 109 50" fill="none" xmlns="http://www.w3.org/2000/svg">
<g id="Group 515251">
<path id="Path 2030" d="M13.3763 9.55114L11.5258 30.8957C11.3361 33.1721 10.1108 35.125 7.85022 36.754C5.56373 38.3902 2.81118 39.2466 0 39.1967L0.514024 33.2657C1.31087 33.2801 2.09134 33.0387 2.7409 32.5769C3.03093 32.3926 3.27606 32.1454 3.45832 31.854C3.64058 31.5627 3.75535 31.2348 3.79424 30.8933L5.65261 9.54883L13.3763 9.55114Z" fill="white"/>
<path id="Path 2031" d="M24.1421 9.54899L22.5155 28.5173C22.3768 30.136 21.6355 31.6432 20.4384 32.7415C19.2412 33.8398 17.6754 34.4492 16.0507 34.4482H14.2754L16.4572 9.5459L24.1421 9.54899Z" fill="white"/>
<path id="Path 2032" d="M48.2852 15.4789L47.1433 28.527C47.0028 30.144 46.2609 31.65 45.0643 32.7466C43.8677 33.8433 42.3033 34.451 40.6802 34.4503H38.893L40.3638 17.8482C40.3967 17.5262 40.3443 17.2014 40.2119 16.906C40.0794 16.6107 39.8717 16.3551 39.6094 16.1654C39.0053 15.6933 38.254 15.4494 37.4877 15.4766C36.7026 15.4669 35.9348 15.7083 35.2964 16.1654C35.0047 16.3483 34.7578 16.5946 34.5743 16.886C34.3907 17.1773 34.275 17.5061 34.236 17.8482L33.2949 28.5309C33.1535 30.1472 32.4112 31.6516 31.2146 32.7474C30.0181 33.8432 28.4543 34.4511 26.8318 34.4503H25.043L27.2248 9.54793H34.9089L34.7191 11.9203C36.4411 10.321 38.726 9.46806 41.0748 9.54793C43.0026 9.47424 44.8939 10.0884 46.4111 11.2801C47.0619 11.7558 47.5771 12.3928 47.9059 13.1289C48.2346 13.865 48.3654 14.6744 48.2852 15.4766" fill="white"/>
<path id="Path 2033" d="M73.4718 9.54911L71.4806 32.0798C71.2902 34.3563 70.073 36.3092 67.8287 37.9382C65.5514 39.5767 62.8048 40.4336 59.9998 40.3809H50.4043C50.4043 38.8079 51.0292 37.299 52.1414 36.1867C53.2537 35.0744 54.7623 34.4499 56.3353 34.4499H60.46C61.2584 34.4646 62.0406 34.2237 62.6925 33.7626C62.9837 33.5788 63.23 33.332 63.4133 33.0405C63.5967 32.749 63.7125 32.4203 63.7521 32.0783L63.9894 29.7059C62.2676 31.3056 59.9826 32.1586 57.6337 32.0783C55.7212 32.1475 53.8464 31.5335 52.3449 30.3469C51.6936 29.8686 51.1753 29.232 50.839 28.4973C50.5027 27.7626 50.3596 26.9544 50.4233 26.1489L51.3722 15.4731C51.4731 14.6223 51.7616 13.8042 52.2168 13.0783C52.6721 12.3525 53.2827 11.7372 54.0048 11.2759C55.6272 10.1131 57.5818 9.5053 59.5775 9.54371C62.1698 9.54371 64.162 10.3345 65.5544 11.9161L65.7441 9.54371L73.4718 9.54911ZM65.0293 17.8525C65.0621 17.5299 65.0092 17.2044 64.8761 16.9088C64.7429 16.6132 64.5342 16.3581 64.2709 16.1689C63.6614 15.6972 62.906 15.4537 62.1357 15.4808C61.3465 15.4706 60.5744 15.7116 59.931 16.1689C59.6381 16.3515 59.3899 16.598 59.205 16.8895C59.0201 17.1809 58.9031 17.5097 58.8626 17.8525L58.3423 23.7834C58.3087 24.1061 58.3612 24.432 58.4944 24.7279C58.6276 25.0238 58.8368 25.279 59.1007 25.4677C59.7099 25.9399 60.4656 26.1832 61.2358 26.155C62.0336 26.1727 62.8157 25.9315 63.4651 25.4677C63.753 25.2818 63.996 25.0346 64.1765 24.7433C64.357 24.452 64.4706 24.124 64.5089 23.7834L65.0293 17.8525Z" fill="white"/>
<path id="Path 2034" d="M84.6657 4.80664L82.6887 27.6934C82.5291 29.5377 81.6838 31.2547 80.3195 32.5061C78.9552 33.7575 77.1713 34.4521 75.32 34.4522H74.3711L76.9807 4.80664H84.6657Z" fill="white"/>
<path id="Path 2035" d="M108.191 17.8513L107.527 24.9684H93.6766L93.5825 26.1546C93.549 26.478 93.6022 26.8046 93.7366 27.1006C93.871 27.3967 94.0817 27.6513 94.3472 27.8389C94.9454 28.3061 95.6881 28.5495 96.4468 28.527C97.2568 28.5418 98.0509 28.301 98.7164 27.8389C99.0104 27.6568 99.2597 27.4107 99.4457 27.1192C99.6317 26.8276 99.7497 26.498 99.791 26.1546H107.527C107.335 28.4321 106.112 30.385 103.858 32.013C101.554 33.6575 98.7804 34.5141 95.9501 34.4556C93.2601 34.5553 90.6232 33.6889 88.5167 32.013C87.6086 31.3458 86.8865 30.4568 86.4195 29.4313C85.9524 28.4058 85.7558 27.2777 85.8485 26.1546L86.6085 17.8513C86.7983 15.5748 88.0153 13.6219 90.2596 11.9929C92.5368 10.3542 95.2835 9.4973 98.0885 9.55023C100.783 9.44716 103.425 10.3138 105.535 11.9929C106.44 12.6621 107.159 13.5516 107.624 14.5769C108.089 15.6021 108.284 16.7294 108.191 17.8513ZM100.46 17.8513C100.493 17.5287 100.44 17.2032 100.307 16.9076C100.174 16.612 99.965 16.3569 99.7017 16.1677C99.0921 15.6962 98.3367 15.4528 97.5665 15.4797C96.7773 15.4693 96.0051 15.7103 95.3618 16.1677C95.0687 16.3501 94.8205 16.596 94.6356 16.8875C94.4506 17.1789 94.3337 17.5084 94.2934 17.8513L94.1985 19.0375H100.367L100.46 17.8513Z" fill="white"/>
<path id="Path 2036" d="M13.4559 3.90301C13.4558 4.67467 13.2268 5.42843 12.798 6.06997C12.3691 6.71151 11.7597 7.21195 11.0467 7.50715C10.3338 7.80234 9.54927 7.87943 8.79245 7.72879C8.03563 7.57815 7.34047 7.20646 6.79487 6.66075C6.24928 6.11504 5.87775 5.41976 5.72726 4.66291C5.57677 3.90606 5.65409 3.12159 5.94943 2.40868C6.24477 1.69577 6.74487 1.08666 7.3865 0.657966C8.02812 0.229268 8.78246 1.58503e-08 9.55412 0C10.0666 -1.05251e-08 10.574 0.101188 11.0475 0.29732C11.5209 0.493453 11.9511 0.78132 12.3134 1.14372C12.6757 1.50612 12.9631 1.93598 13.1591 2.40945C13.3552 2.88293 13.456 3.39055 13.4559 3.90301Z" fill="white"/>
<path id="Path 2037" d="M80.6467 41.5286L80.2742 45.7984C80.2411 46.0769 80.1467 46.3446 79.9978 46.5822C79.8489 46.8199 79.6492 47.0218 79.413 47.173C78.8766 47.5549 78.2312 47.7534 77.5728 47.7391C77.2121 47.761 76.851 47.7032 76.5154 47.5692C76.1798 47.4352 75.8779 47.2288 75.6314 46.9645L75.5864 47.4889C75.5431 47.981 75.3171 48.4385 74.953 48.7724C74.5888 49.1062 74.1129 49.2916 73.6189 49.2921H72.8984L73.7525 39.5879H76.268L76.2055 40.3632C76.7699 39.8404 77.518 39.562 78.2869 39.5879C78.9178 39.5638 79.5367 39.7646 80.033 40.1547C80.2465 40.3102 80.4155 40.519 80.5232 40.7602C80.6309 41.0013 80.6735 41.2666 80.6467 41.5293M78.0544 42.3047C78.0654 42.1987 78.0482 42.0915 78.0044 41.9942C77.9607 41.897 77.892 41.8131 77.8053 41.751C77.6062 41.5963 77.359 41.5172 77.1071 41.5263C76.8483 41.5228 76.5952 41.6011 76.3843 41.751C76.2882 41.811 76.2069 41.8922 76.1465 41.9881C76.0862 42.0839 76.0482 42.1921 76.0355 42.3047L75.8022 45.0231C75.7906 45.1291 75.8075 45.2362 75.8512 45.3335C75.8948 45.4308 75.9637 45.5149 76.0506 45.5768C76.2447 45.7299 76.4866 45.809 76.7338 45.8015C76.9974 45.8066 77.2558 45.7283 77.4716 45.5768C77.5677 45.5167 77.6491 45.4355 77.7096 45.3397C77.7701 45.2438 77.8083 45.1357 77.8211 45.0231L78.0544 42.3047Z" fill="white"/>
<path id="Path 2038" d="M88.6592 42.3042L88.3065 46.2829C88.2713 46.6806 88.0884 47.0506 87.7939 47.3201C87.4994 47.5896 87.1146 47.7388 86.7154 47.7386H85.6471L85.7261 46.9641C85.157 47.4889 84.4034 47.767 83.6297 47.7386C83.0036 47.7612 82.3898 47.5606 81.8979 47.1726C81.6848 47.0168 81.5161 46.8082 81.4086 46.5671C81.301 46.326 81.2585 46.0606 81.285 45.7979L81.5958 42.3042C81.6385 41.9153 81.7682 41.5413 81.9751 41.2092C82.1821 40.8771 82.4611 40.5956 82.7915 40.3859C83.5366 39.8499 84.4352 39.5697 85.3529 39.5866C86.2352 39.5532 87.1004 39.8366 87.7917 40.3859C88.088 40.6053 88.3233 40.8966 88.4756 41.2323C88.6278 41.5681 88.6918 41.9369 88.6616 42.3042M86.131 42.3042C86.142 42.1982 86.1248 42.091 86.081 41.9938C86.0373 41.8966 85.9686 41.8126 85.8819 41.7505C85.6828 41.5959 85.4356 41.5167 85.1837 41.5258C84.9249 41.5223 84.6718 41.6006 84.4609 41.7505C84.3648 41.8106 84.2835 41.8918 84.2231 41.9876C84.1628 42.0835 84.1248 42.1917 84.1121 42.3042L83.8788 45.0226C83.8674 45.1286 83.8844 45.2358 83.928 45.333C83.9717 45.4303 84.0404 45.5143 84.1272 45.5763C84.3213 45.7294 84.5632 45.8086 84.8104 45.801C85.074 45.8061 85.3324 45.7278 85.5482 45.5763C85.6444 45.5163 85.7257 45.4351 85.7862 45.3392C85.8467 45.2434 85.8849 45.1352 85.8977 45.0226L86.131 42.3042Z" fill="white"/>
<path id="Path 2039" d="M96.9684 39.5863L96.316 46.9629C96.2728 47.3516 96.1429 47.7253 95.936 48.0572C95.7291 48.3891 95.4504 48.6706 95.1203 48.8805C94.3751 49.4168 93.4762 49.6973 92.5582 49.6805H89.3887V49.516C89.3887 49.2826 89.4346 49.0513 89.524 48.8357C89.6133 48.62 89.7443 48.4246 89.9094 48.2596C90.0745 48.0946 90.2705 47.9635 90.4861 47.8742C90.7018 47.785 90.933 47.739 91.1664 47.7391H92.7068C92.9685 47.7441 93.2249 47.665 93.4383 47.5136C93.5339 47.4532 93.6146 47.3723 93.6746 47.2765C93.7345 47.1807 93.7722 47.073 93.7847 46.9606L93.8638 46.1837C93.3002 46.7074 92.5521 46.987 91.7832 46.9606C91.157 46.9831 90.5433 46.7812 90.0521 46.3922C89.8383 46.2363 89.6679 46.0288 89.5571 45.7883C89.4464 45.5479 89.399 45.2831 89.4195 45.0192L89.9011 39.584H92.4166L92.0125 44.243C92.0016 44.349 92.0188 44.4563 92.0624 44.5535C92.106 44.6507 92.1744 44.7345 92.2608 44.7967C92.4608 44.9509 92.7084 45.0305 92.9607 45.0215C93.2216 45.0271 93.4773 44.9482 93.6898 44.7967C93.7842 44.7356 93.8638 44.6539 93.9229 44.5581C93.982 44.4624 94.0191 44.3549 94.0314 44.243L94.4355 39.584L96.9684 39.5863Z" fill="white"/>
</g>
</svg>
