<svg width="24" height="25" viewBox="0 0 24 25" fill="none" xmlns="http://www.w3.org/2000/svg">
<path id="Path 2127" d="M11.862 0.84082H12.1622C12.207 0.849033 12.2534 0.860361 12.2981 0.863099C12.7152 0.893212 13.135 0.904718 13.5511 0.953994C14.2375 1.03721 14.9145 1.18543 15.5732 1.396C17.9674 2.14622 20.0663 3.62818 21.5745 5.63333C23.0827 7.63849 23.9244 10.066 23.9811 12.5744C23.985 12.6301 23.992 12.6852 24.0022 12.7401V12.9415C23.9928 12.9799 23.9861 13.0189 23.9821 13.0583C23.9721 13.2544 23.9739 13.4511 23.9547 13.6464C23.9118 14.0689 23.8772 14.4939 23.8069 14.9118C23.6487 15.861 23.3693 16.7865 22.9756 17.6645C21.9157 20.0928 20.0751 22.0977 17.746 23.3606C16.0591 24.2947 14.167 24.796 12.2389 24.8203C12.1928 24.8235 12.147 24.8307 12.102 24.8408H11.9021C11.8605 24.8306 11.818 24.8235 11.7753 24.8203C11.2433 24.8148 10.7124 24.7716 10.1866 24.6902C9.35479 24.5653 8.53886 24.351 7.75292 24.0513C5.42024 23.1736 3.42299 21.5836 2.04421 19.5074C0.761011 17.6172 0.058477 15.3934 0.0230061 13.1091C0.0191218 13.0597 0.0120467 13.0105 0.00195312 12.962V12.7223C0.0121948 12.6844 0.0188901 12.6456 0.0220036 12.6065C0.0531749 10.8713 0.462445 9.16351 1.22113 7.60274C2.54745 4.88342 4.84959 2.76379 7.66893 1.66601C8.95691 1.16319 10.3236 0.891746 11.706 0.86399C11.7585 0.859896 11.8106 0.851918 11.862 0.84082ZM13.1706 19.8487V19.6963C13.1706 18.0404 13.1706 16.3848 13.1706 14.7282C13.1644 14.3912 13.2109 14.0546 13.3084 13.732C13.3791 13.4612 13.5203 13.2148 13.7176 13.0164C13.9149 12.8179 14.1613 12.6752 14.4316 12.6029C14.702 12.5294 14.9842 12.5097 15.2621 12.5459C15.4687 12.5635 15.6685 12.6289 15.8457 12.7366C16.023 12.8442 16.173 12.9918 16.2841 13.167C16.5167 13.5476 16.636 13.9864 16.628 14.4324C16.6417 15.5657 16.6345 16.6978 16.6345 17.8312C16.6345 18.4651 16.6345 19.0984 16.6345 19.7311C16.6345 19.7986 16.6345 19.8523 16.7257 19.8514C17.6796 19.8514 18.6329 19.8514 19.5856 19.8514C19.6632 19.8514 19.6841 19.8218 19.6768 19.7524C19.6695 19.6831 19.6768 19.5992 19.6768 19.5225C19.6714 17.4429 19.6695 15.3624 19.6577 13.2837C19.6497 12.834 19.5683 12.3883 19.4167 11.9648C19.1839 11.2137 18.671 10.5806 17.9841 10.1977C17.2493 9.80677 16.4078 9.66435 15.5851 9.79047C14.7629 9.89338 14.0086 10.2988 13.469 10.9276C13.3622 11.048 13.2691 11.179 13.1551 11.3241V10.0542H13.0354C12.1421 10.0542 11.2488 10.0542 10.3555 10.0542C10.2505 10.0542 10.2277 10.0894 10.2277 10.1861C10.2277 13.366 10.2277 16.5456 10.2277 19.7248C10.2277 19.8206 10.2505 19.8567 10.3555 19.8558C11.2516 19.8558 12.1486 19.8558 13.0456 19.8558L13.1706 19.8487ZM8.32502 10.0534H5.40957C5.27634 10.0534 5.27546 10.053 5.27546 10.1835C5.27546 13.3639 5.27546 16.5438 5.27546 19.723C5.27546 19.8234 5.30191 19.8523 5.40411 19.8523C6.34036 19.8523 7.2775 19.8523 8.21374 19.8523C8.24933 19.8523 8.28586 19.8523 8.32692 19.8523L8.32502 10.0534ZM8.59147 6.98251C8.59634 6.74404 8.55348 6.50729 8.46538 6.28564C8.37728 6.064 8.24576 5.8622 8.07852 5.69215C7.91127 5.5221 7.71175 5.38648 7.49159 5.2947C7.27144 5.20293 7.03513 5.15657 6.79662 5.15747C6.3181 5.15867 5.85942 5.34887 5.52063 5.6868C5.18184 6.02474 4.99036 6.48261 4.98795 6.96112C4.98882 7.44148 5.17798 7.9027 5.51473 8.24525C5.85148 8.5878 6.309 8.78511 6.78927 8.79418C7.2681 8.79129 7.72639 8.59903 8.06403 8.2595C8.40168 7.91998 8.59124 7.46045 8.59147 6.98162V6.98251Z" fill="#D8D8D8"/>
</svg>
