<svg width="22" height="24" viewBox="0 0 22 24" fill="none" xmlns="http://www.w3.org/2000/svg">
<path d="M10.3051 11.4617L0.589844 22.0059C0.590756 22.0078 0.590756 22.0106 0.591669 22.0125C0.890051 23.1574 1.91203 24 3.12564 24C3.61108 24 4.06641 23.8656 4.45695 23.6305L4.48798 23.6118L15.4232 17.1593L10.3051 11.4617Z" fill="#EA4335"/>
<path d="M20.1332 9.66619L20.124 9.65966L15.4029 6.86123L10.084 11.7013L15.422 17.1582L20.1177 14.3878C20.9407 13.9324 21.5001 13.045 21.5001 12.0223C21.5001 11.0052 20.9489 10.1225 20.1332 9.66619Z" fill="#FBBC04"/>
<path d="M0.589423 1.99325C0.531024 2.21346 0.5 2.44488 0.5 2.68376V21.3163C0.5 21.5552 0.531024 21.7866 0.590336 22.0059L10.6386 11.7313L0.589423 1.99325Z" fill="#4285F4"/>
<path d="M10.3771 12L15.4049 6.85945L4.4825 0.383598C4.08557 0.140054 3.62203 8.67844e-05 3.12655 8.67844e-05C1.91295 8.67844e-05 0.889138 0.84456 0.590756 1.99043C0.590756 1.99136 0.589844 1.9923 0.589844 1.99323L10.3771 12Z" fill="#34A853"/>
</svg>
