<svg width="64" height="64" viewBox="0 0 64 64" fill="none" xmlns="http://www.w3.org/2000/svg">
<g id="9040588_qr_code_icon 1">
<g clip-path="url(#clip0_3776_1237)">
<path id="Vector" d="M8 8H16V16H8V8Z" fill="white"/>
<path id="Vector_2" d="M24 0V24H0V0H24ZM20 4H4V20H20V4ZM16 48H8V56H16V48Z" fill="white"/>
<path id="Vector_3" d="M24 40V64H0V40H24ZM4 44V60H20V44H4ZM48 8H56V16H48V8Z" fill="white"/>
<path id="Vector_4" d="M40 0V24H64V0H40ZM60 4V20H44V4H60ZM32 4V0H36V8H32V16H28V4H32ZM32 24V16H36V24H32ZM24 32V28H28V24H32V32H36V28H56V32H40V36H28V32H24ZM24 32V36H8V32H4V36H0V28H12V32H24ZM64 36H60V28H64V36ZM60 36H56V44H64V40H60V36ZM44 36H52V40H48V44H44V36ZM52 48V44H48V48H44V52H36V56H48V48H52ZM52 48H64V52H56V56H52V48ZM36 44V48H40V40H28V44H36Z" fill="white"/>
<path id="Vector_5" d="M28 48H32V60H48V64H28V48ZM64 56V64H52V60H60V56H64Z" fill="white"/>
</g>
</g>
<defs>
<clipPath id="clip0_3776_1237">
<rect width="64" height="64" rx="12" fill="white"/>
</clipPath>
</defs>
</svg>
