<svg width="87" height="87" viewBox="0 0 87 87" fill="none" xmlns="http://www.w3.org/2000/svg">
<rect x="0.5" y="0.5" width="86" height="86" rx="43" fill="#794EFF"/>
<rect x="0.5" y="0.5" width="86" height="86" rx="43" stroke="#7157F8"/>
<g clip-path="url(#clip0_3525_191)">
<path d="M26.2917 23.8335H36.125L41.0417 36.1252L34.8958 39.8127C37.5286 45.151 41.8492 49.4716 47.1875 52.1043L50.875 45.9585L63.1667 50.8752V60.7085C63.1667 62.0125 62.6487 63.263 61.7266 64.1851C60.8046 65.1072 59.554 65.6252 58.25 65.6252C48.6607 65.0424 39.6162 60.9703 32.823 54.1771C26.0299 47.384 21.9577 38.3395 21.375 28.7502C21.375 27.4462 21.893 26.1956 22.8151 25.2736C23.7371 24.3515 24.9877 23.8335 26.2917 23.8335Z" stroke="white" stroke-width="3" stroke-linecap="round" stroke-linejoin="round"/>
<path d="M50.875 31.2085V31.2331" stroke="#794EFF" stroke-width="2" stroke-linecap="round" stroke-linejoin="round"/>
<path d="M58.25 31.2085V31.2331" stroke="#794EFF" stroke-width="2" stroke-linecap="round" stroke-linejoin="round"/>
<path d="M65.625 31.2085V31.2331" stroke="#794EFF" stroke-width="2" stroke-linecap="round" stroke-linejoin="round"/>
</g>
<defs>
<clipPath id="clip0_3525_191">
<rect width="59" height="59" fill="white" transform="translate(14 14)"/>
</clipPath>
</defs>
</svg>
