<svg width="24" height="25" viewBox="0 0 24 25" fill="none" xmlns="http://www.w3.org/2000/svg">
<path id="Path 2126" d="M24.0019 12.8505C24.0001 15.233 23.289 17.561 21.9594 19.5379C20.6297 21.5149 18.7416 23.0512 16.5357 23.9514C14.3297 24.8515 11.9057 25.0747 9.57252 24.5923C7.23933 24.11 5.10258 22.9443 3.43438 21.2432C1.76618 19.5422 0.642049 17.3828 0.205291 15.0407C-0.231467 12.6985 0.0389605 10.28 0.981947 8.09201C1.92493 5.90404 3.49783 4.04589 5.50037 2.75503C7.50291 1.46418 9.84441 0.798338 12.2265 0.842921C15.3713 0.901779 18.3672 2.19328 20.5695 4.43894C22.7718 6.6846 24.0044 9.70513 24.0019 12.8505ZM7.33649 14.0806C7.2895 14.0923 7.24154 14.1 7.19319 14.1029C6.91934 14.1029 6.65462 14.1029 6.38534 14.1029C6.18543 14.1029 6.16995 14.1173 6.24115 14.2999C6.44952 14.807 6.78346 15.2526 7.21158 15.5952C7.63969 15.9377 8.14795 16.1664 8.68845 16.2584C8.76604 16.2775 8.84816 16.2804 8.92758 16.2923L8.9376 16.3413C8.33044 16.8195 7.62049 17.1498 6.8637 17.3067C6.11684 17.5167 5.33748 17.5872 4.56515 17.5135C4.58812 17.5652 4.62518 17.6092 4.67201 17.641C4.81624 17.7323 4.96042 17.8238 5.11104 17.8986C6.2044 18.4773 7.40371 18.8284 8.63652 18.9309C9.86934 19.0333 11.1101 18.8853 12.284 18.495C13.442 18.1567 14.502 17.5459 15.3755 16.7139C16.249 15.8819 16.9104 14.8526 17.3045 13.7125C17.7265 12.5167 17.935 11.256 17.9206 9.98808C17.9178 9.93877 17.9281 9.88953 17.9504 9.84545C17.9727 9.80137 18.0062 9.76364 18.0475 9.73669C18.5195 9.389 18.9309 8.9658 19.2652 8.48424C19.3125 8.39762 19.3492 8.30587 19.3748 8.21057L17.9928 8.62687L17.9791 8.58675C18.4854 8.18203 18.8542 7.63126 19.0352 7.00893C18.9794 7.01127 18.9246 7.02427 18.8737 7.04726C18.3716 7.24443 17.8695 7.43841 17.3684 7.63649C17.2973 7.67946 17.2121 7.6929 17.1315 7.67304C17.0509 7.65318 16.9815 7.60147 16.9385 7.53041C16.9022 7.489 16.8605 7.4526 16.8144 7.42255C16.3338 7.03553 15.7469 6.80367 15.1316 6.75754C14.5162 6.71141 13.9014 6.85389 13.3684 7.16493C12.8211 7.46625 12.3781 7.92652 12.0983 8.48513C11.8184 9.04374 11.7148 9.67414 11.8011 10.2929C11.8084 10.3505 11.8111 10.4091 11.8166 10.4757C11.7777 10.4789 11.7387 10.4789 11.6998 10.4757C11.3657 10.4145 11.0298 10.3616 10.6957 10.2867C9.31746 10.0095 8.02245 9.41538 6.91295 8.55199C6.48301 8.20512 6.10143 7.7988 5.70161 7.41542C5.58294 7.30131 5.54832 7.29535 5.46616 7.43592C5.39142 7.5599 5.32721 7.68979 5.27439 7.82458C5.0822 8.40659 5.06177 9.03195 5.21556 9.62527C5.36935 10.2186 5.69092 10.7548 6.14164 11.1701L6.33787 11.3457C5.98083 11.3265 5.63109 11.2374 5.30827 11.0836C5.1257 10.9978 5.08821 11.0219 5.1019 11.2209C5.12472 11.6721 5.24488 12.1131 5.45413 12.5135C5.66337 12.9139 5.95675 13.2641 6.31413 13.5404C6.62424 13.7734 6.9693 13.9556 7.33649 14.0806Z" fill="#D8D8D8"/>
</svg>
