<svg width="24" height="25" viewBox="0 0 24 25" fill="none" xmlns="http://www.w3.org/2000/svg">
<g id="Group 515260">
<path id="Path 2122" d="M23.864 11.0667C23.6086 9.30389 22.9597 7.62136 21.9654 6.14354C20.9711 4.66572 19.6569 3.43101 18.1202 2.53028C16.5765 1.58868 14.8317 1.02604 13.0287 0.888047C12.9913 0.888047 12.9493 0.887355 12.9375 0.84082H11.0624C10.7881 0.91433 10.5066 0.958861 10.223 0.972698C8.05346 1.298 6.01465 2.21181 4.32812 3.6147C2.64159 5.0176 1.37193 6.85591 0.657049 8.9299C-0.0578329 11.0039 -0.19057 13.2335 0.273335 15.3776C0.73724 17.5218 1.77998 19.4981 3.28825 21.0911C4.79652 22.6841 6.71261 23.8328 8.82821 24.413C10.9438 24.9933 13.1781 24.9833 15.288 24.3827C17.3979 23.7821 19.3028 22.6139 20.7956 21.0065C22.2885 19.3991 23.3123 17.4139 23.7555 15.2654C23.8482 14.8134 23.914 14.3564 23.9526 13.8967C23.9526 13.8529 23.9426 13.801 23.9991 13.7764V11.8998C23.9271 11.6272 23.8818 11.3481 23.864 11.0667ZM18.3273 15.7064C18.2989 15.978 18.2461 16.2463 18.1695 16.5084C18.124 16.6995 18.0222 16.873 17.8773 17.0056C17.7323 17.1382 17.5509 17.2241 17.3565 17.2524C16.6007 17.3734 15.8361 17.4298 15.0708 17.4217C14.0671 17.4455 13.0561 17.4289 12.0487 17.4289C10.4875 17.4508 8.92544 17.4566 7.36698 17.3371C7.20337 17.3264 7.0404 17.3077 6.87879 17.2801C6.1835 17.1523 5.93349 16.8545 5.8094 16.0023C5.68282 14.9794 5.63037 13.9488 5.65246 12.9183C5.62667 11.8408 5.67827 10.7627 5.80673 9.69265C5.81312 9.65341 5.81669 9.61513 5.82399 9.57681C6.01469 8.63881 6.30493 8.40212 7.34147 8.33734C9.5642 8.19591 11.7887 8.18748 14.0142 8.23219C15.045 8.22917 16.0752 8.27889 17.101 8.381C17.388 8.36934 17.668 8.47147 17.8801 8.66525C18.0922 8.85904 18.2192 9.1286 18.2334 9.41553C18.3855 10.2931 18.4542 11.1831 18.4387 12.0736C18.4757 13.2846 18.4385 14.4964 18.3273 15.7029V15.7064Z" fill="#D8D8D8"/>
<path id="Path 2123" d="M10.4987 11.0021C10.4987 12.2101 10.5033 13.4188 10.4941 14.6287C10.4941 14.8577 10.5627 14.8257 10.7132 14.7463C11.4906 14.3357 12.2717 13.9307 13.0518 13.5238L14.3639 12.8376L10.5069 10.8301C10.4987 10.9113 10.4987 10.9592 10.4987 11.0021Z" fill="#D8D8D8"/>
</g>
</svg>
