<svg width="76" height="76" viewBox="0 0 76 76" fill="none" xmlns="http://www.w3.org/2000/svg">
<path d="M26.2454 34.2131H25.8706C25.5048 34.2131 25.3442 34.3191 25.1032 34.7163L23.1044 37.9206L22.2746 34.7516C22.1764 34.372 22.0694 34.222 21.65 34.222H21.3377C20.9272 34.222 20.6684 34.4603 20.5881 34.884L19.6601 40.0391C19.5887 40.4275 19.7672 40.6305 20.1063 40.6305H20.249C20.606 40.6305 20.7666 40.454 20.829 40.0744L21.5786 35.908L22.3014 38.6974C22.3638 38.9798 22.4174 39.1652 22.9617 39.1652C23.4168 39.1652 23.5238 39.0063 23.6845 38.7503L25.4512 35.8815L24.7017 40.0479C24.6303 40.4452 24.8088 40.6394 25.1389 40.6394H25.2906C25.6476 40.6394 25.8082 40.454 25.8706 40.0832L26.7897 34.8928C26.87 34.478 26.6648 34.2131 26.2454 34.2131Z" fill="#141414"/>
<path d="M31.8221 37.9029C31.7775 36.6495 30.9208 35.7314 29.4753 35.7314C27.8245 35.7314 26.8162 37.0644 26.8608 38.5209C26.9143 39.8538 27.8423 40.71 29.2076 40.71C30.903 40.7012 31.8667 39.3594 31.8221 37.9029ZM29.2165 39.792C28.4402 39.792 27.9494 39.2359 27.9227 38.4767C27.887 37.4969 28.5384 36.6318 29.4664 36.6318C30.1802 36.6318 30.7424 37.1879 30.7692 37.9559C30.7959 38.9887 30.1445 39.792 29.2165 39.792Z" fill="#141414"/>
<path d="M35.5077 35.7314C34.8206 35.7314 34.2763 36.0669 33.9105 36.6318C33.9462 35.9874 33.5892 35.8021 33.2234 35.8021C33.0539 35.8021 32.92 35.8462 32.9111 35.8639L32.1615 40.0568C32.0901 40.4893 32.3311 40.6129 32.6523 40.6129H32.7862C33.1342 40.6129 33.2769 40.4717 33.3483 40.0568L33.7945 37.541C34.1157 36.9849 34.4726 36.7201 35.0259 36.7201C35.5791 36.7201 35.9093 37.0467 35.9182 37.5852C35.9271 37.7264 35.8914 37.9029 35.8647 38.1148L35.5167 40.0568C35.4453 40.4893 35.6951 40.6129 36.0074 40.6129H36.1413C36.4893 40.6129 36.632 40.4717 36.7034 40.0568L37.0871 37.9118C37.1317 37.6734 37.1585 37.4616 37.1496 37.2674C37.1228 36.367 36.516 35.7314 35.5077 35.7314Z" fill="#141414"/>
<path d="M56.6194 35.7316C56.0572 35.7316 55.6378 36.0493 55.3523 36.6319C55.3969 35.9876 55.04 35.8022 54.6741 35.8022C54.4957 35.8022 54.3707 35.8463 54.3618 35.864L53.6033 40.0569C53.532 40.4894 53.8175 40.613 54.1387 40.613H54.2726C54.576 40.613 54.7187 40.4718 54.799 40.0569L55.0489 38.6534C55.2363 37.5588 55.6467 36.7997 56.3071 36.7997C56.6283 36.7997 56.8335 36.9321 56.9674 37.0821C56.9852 37.0998 57.4849 36.9056 57.4671 36.323C57.4403 35.9611 57.0745 35.7316 56.6194 35.7316Z" fill="#141414"/>
<path d="M62.3836 35.802C61.9196 35.802 61.6608 36.0227 61.5091 36.6053C61.2147 36.058 60.6079 35.7225 59.903 35.7225C58.4039 35.7225 57.3599 37.0466 57.3599 38.5473C57.3599 39.7831 58.1273 40.7011 59.3408 40.7011C60.0814 40.7011 60.6525 40.401 61.0184 39.7919C60.9648 40.4275 61.0898 40.6217 61.5538 40.6217C61.9642 40.6217 62.0981 40.4716 62.1427 40.0214C62.1962 39.1916 62.4818 37.8411 62.8119 35.9432C62.8119 35.9079 62.6245 35.802 62.3836 35.802ZM59.5996 39.7919C58.8679 39.7919 58.4485 39.3329 58.4485 38.5208C58.4485 37.5674 59.0107 36.6141 60.0547 36.6141C60.9024 36.6141 61.2593 37.232 61.2593 37.9117C61.2593 38.7679 60.6704 39.7919 59.5996 39.7919Z" fill="#141414"/>
<path d="M69.5054 35.7316C68.6845 35.7316 68.1402 36.1464 67.7565 36.7555C67.5691 36.1111 67.0069 35.7316 66.2931 35.7316C65.6684 35.7316 65.1241 36.0229 64.7493 36.579C64.7672 35.9876 64.4192 35.811 64.0623 35.811C63.8838 35.811 63.7589 35.8551 63.75 35.8728L63.0004 40.0657C62.929 40.4983 63.1699 40.6219 63.4912 40.6219H63.625C63.9284 40.6219 64.1158 40.4983 64.1872 40.0657L64.6512 37.4617C64.9903 36.9409 65.3115 36.7202 65.8112 36.7202C66.302 36.7202 66.6054 37.0821 66.6054 37.6294C66.6054 37.7177 66.5964 37.8148 66.5786 37.9207L66.2038 40.0657C66.1324 40.4983 66.3823 40.6219 66.6946 40.6219H66.8195C67.1229 40.6219 67.3192 40.4894 67.3906 40.0657L67.8546 37.4617C68.1937 36.9409 68.5149 36.7202 69.0146 36.7202C69.4876 36.7202 69.8356 37.0027 69.8356 37.5853C69.8356 37.7265 69.8088 37.9031 69.7731 38.1149L69.4251 40.0569C69.3537 40.4894 69.5946 40.613 69.9159 40.613H70.0497C70.3977 40.613 70.5405 40.4718 70.6119 40.0569L70.9956 37.9119C71.0402 37.6736 71.058 37.4617 71.058 37.2675C71.067 36.323 70.4245 35.7316 69.5054 35.7316Z" fill="#141414"/>
<path d="M42.5664 37.8323C42.5664 37.1791 42.4326 36.7465 42.1381 36.367C41.8169 35.9609 41.219 35.7137 40.523 35.7137C38.4172 35.7137 37.6587 37.2497 37.6587 38.5826C37.6587 39.8537 38.5867 40.7011 40.0144 40.7011C41.4421 40.7011 42.2452 40.0744 42.2452 39.5712C42.2452 39.2358 42.0043 39.1211 41.7277 39.0946C41.3529 39.5712 40.8353 39.8008 40.1304 39.8008C39.5058 39.8008 38.7652 39.5624 38.7116 38.459H41.9507C42.2987 38.4678 42.5664 38.2736 42.5664 37.8323ZM41.5224 37.6822H38.8187C39.0775 37.0025 39.6753 36.5788 40.4338 36.5788C40.8175 36.5788 41.112 36.6847 41.3083 36.8966C41.4778 37.0908 41.5403 37.3556 41.5224 37.6822Z" fill="#141414"/>
<path d="M52.6215 37.1879H50.694C50.462 37.1879 50.355 37.2409 50.2836 37.3115C50.1676 37.4351 50.1051 37.7176 50.1051 37.8411C50.114 38.0353 50.2836 38.1501 50.5959 38.1501H51.9611C51.7738 39.0946 51.167 39.7478 50.123 39.7478C49.0254 39.7478 48.2937 39.0593 48.2491 37.8853C48.1956 36.4111 49.186 35.193 50.587 35.193C51.4079 35.193 52.0504 35.6255 52.3091 36.1993C52.3448 36.2434 53.1033 36.2434 53.0765 35.599C53.0676 35.3695 52.9338 35.0959 52.6839 34.8664C52.2824 34.4691 51.5239 34.1249 50.5156 34.1249C49.1057 34.1249 47.9903 34.8928 47.4103 36.0051C47.4103 35.9963 47.4014 35.9963 47.4014 35.9963C47.2854 35.8462 47.098 35.7756 46.9106 35.7756C46.5983 35.7756 46.3931 35.8727 46.0897 36.4023L44.5906 39.0063L44.0284 36.4111C43.9214 35.9256 43.7429 35.7756 43.4306 35.7756C43.0647 35.7756 42.7703 36.0404 42.7792 36.1022L43.85 40.2951L42.7435 42.0959C42.6275 42.2901 42.6186 42.5461 43.038 42.5461H43.27C43.7072 42.5461 43.85 42.2812 44.0641 41.9193L47.0802 36.8701C46.9909 37.2232 46.9463 37.6028 46.9642 37.9912C47.0177 39.686 48.1777 40.71 49.8731 40.71C50.6762 40.71 51.3187 40.4099 51.6756 39.9509C51.6488 40.4452 51.9165 40.6394 52.2735 40.6394C52.4698 40.6394 52.6125 40.5776 52.6125 40.5423L53.1033 37.8235C53.1836 37.3998 53.023 37.1879 52.6215 37.1879Z" fill="#141414"/>
<path d="M72.3326 40.101C72.3683 40.1628 72.3951 40.1893 72.4397 40.1893C72.4397 40.1893 72.4486 40.2599 72.3594 40.2599C72.3059 40.2599 72.2702 40.2334 72.2166 40.1363L72.1185 39.9597H72.0292L71.9846 40.2069C71.9757 40.2422 71.9579 40.2599 71.9222 40.2599H71.9043C71.8686 40.2599 71.8508 40.2422 71.8597 40.1981L71.9846 39.5625C71.9935 39.5184 72.0203 39.5007 72.0649 39.5007H72.2523C72.4219 39.5007 72.52 39.5714 72.52 39.6949C72.52 39.845 72.4219 39.9421 72.2523 39.9509L72.3326 40.101ZM72.2166 39.8626C72.3326 39.8626 72.3951 39.8009 72.3862 39.7038C72.3862 39.6331 72.3326 39.589 72.2345 39.589H72.1006L72.0471 39.8538H72.2166V39.8626Z" fill="#141414"/>
<path d="M72.1907 39.2977C72.5387 39.2977 72.8153 39.5802 72.8153 39.9156C72.8153 40.2599 72.5298 40.5335 72.1907 40.5335C71.8427 40.5335 71.5661 40.251 71.5661 39.9156C71.5571 39.5802 71.8427 39.2977 72.1907 39.2977ZM72.1907 39.1918C71.7891 39.1918 71.459 39.5184 71.459 39.9156C71.459 40.3128 71.7891 40.6394 72.1907 40.6394C72.5922 40.6394 72.9224 40.3128 72.9224 39.9156C72.9224 39.5184 72.5922 39.1918 72.1907 39.1918Z" fill="#141414"/>
<path d="M10.0761 45C13.9841 45 17.1522 41.866 17.1522 38C17.1522 34.134 13.9841 31 10.0761 31C6.16807 31 3 34.134 3 38C3 41.866 6.16807 45 10.0761 45Z" fill="white"/>
<path d="M17.1522 38C17.1522 41.8663 13.9844 45 10.0761 45C6.16773 45 3 41.8663 3 38C3 36.9319 3.24093 35.9256 3.66924 35.0252C3.3837 35.7402 3.24985 36.4552 3.24985 37.1173C3.24985 40.2863 5.83757 40.7453 6.93513 40.7364C8.61269 40.7188 10.5669 39.9067 12.2177 38.4061C12.2177 38.4061 12.0035 39.5889 11.941 39.9508C11.8786 40.3039 12.1106 40.6129 12.4675 40.6129H12.6103C12.9761 40.6129 13.2438 40.3127 13.3063 39.9508L13.9041 36.6494C13.9755 36.2787 13.7346 35.9874 13.3598 35.9874H10.0225C9.64778 35.9874 9.30869 36.1816 9.24623 36.5523C9.24623 36.57 9.21946 36.6759 9.21946 36.7024C9.16592 37.0555 9.41577 37.3203 9.7727 37.3203H11.5127C11.486 37.3468 11.4592 37.3733 11.4324 37.3997C10.2278 38.5208 8.73761 39.1387 7.50621 39.1387C6.28373 39.1387 4.90956 38.3707 4.90956 36.6494C4.90956 33.0744 8.30037 31 10.0761 31C13.9755 31 17.1522 34.1337 17.1522 38Z" fill="#DF2127"/>
</svg>
