<svg width="25" height="25" viewBox="0 0 25 25" fill="none" xmlns="http://www.w3.org/2000/svg">
<g clip-path="url(#clip0_6966_146)">
<mask id="mask0_6966_146" style="mask-type:alpha" maskUnits="userSpaceOnUse" x="0" y="0" width="26" height="25">
<path d="M23.4198 0.644775H3.18173C1.86677 0.644775 0.800781 2.07746 0.800781 3.84478V21.4448C0.800781 23.2121 1.86677 24.6448 3.18173 24.6448H23.4198C24.7348 24.6448 25.8008 23.2121 25.8008 21.4448V3.84478C25.8008 2.07746 24.7348 0.644775 23.4198 0.644775Z" fill="white"/>
</mask>
<g mask="url(#mask0_6966_146)">
<path d="M23.4198 0.644775H3.18173C1.86677 0.644775 0.800781 2.07746 0.800781 3.84478V21.4448C0.800781 23.2121 1.86677 24.6448 3.18173 24.6448H23.4198C24.7348 24.6448 25.8008 23.2121 25.8008 21.4448V3.84478C25.8008 2.07746 24.7348 0.644775 23.4198 0.644775Z" fill="white"/>
<path fill-rule="evenodd" clip-rule="evenodd" d="M12.8008 16.6448C15.0088 16.6448 16.8008 14.8528 16.8008 12.6448C16.8008 10.4368 15.0088 8.64478 12.8008 8.64478C10.5928 8.64478 8.80078 10.4368 8.80078 12.6448C8.80078 14.8528 10.5928 16.6448 12.8008 16.6448ZM12.8008 15.0448C14.1256 15.0448 15.2008 13.9696 15.2008 12.6448C15.2008 11.32 14.1256 10.2448 12.8008 10.2448C11.476 10.2448 10.4008 11.32 10.4008 12.6448C10.4008 13.9696 11.476 15.0448 12.8008 15.0448Z" fill="#00008A"/>
<path d="M12.8008 13.6448C13.3531 13.6448 13.8008 13.1971 13.8008 12.6448C13.8008 12.0925 13.3531 11.6448 12.8008 11.6448C12.2485 11.6448 11.8008 12.0925 11.8008 12.6448C11.8008 13.1971 12.2485 13.6448 12.8008 13.6448Z" fill="#00008A"/>
<path fill-rule="evenodd" clip-rule="evenodd" d="M0.800781 16.6448H25.8008V24.6448H0.800781V16.6448Z" fill="#018900"/>
<path fill-rule="evenodd" clip-rule="evenodd" d="M0.800781 0.644775H25.8008V8.64478H0.800781V0.644775Z" fill="#FF991E"/>
</g>
</g>
<defs>
<clipPath id="clip0_6966_146">
<rect x="0.800781" y="0.644775" width="25" height="24" rx="3" fill="white"/>
</clipPath>
</defs>
</svg>
