<svg width="76" height="77" viewBox="0 0 76 77" fill="none" xmlns="http://www.w3.org/2000/svg">
<path d="M26.2454 34.6464H25.8706C25.5048 34.6464 25.3442 34.7523 25.1032 35.1495L23.1044 38.3538L22.2746 35.1848C22.1764 34.8053 22.0694 34.6552 21.65 34.6552H21.3377C20.9272 34.6552 20.6684 34.8935 20.5881 35.3172L19.6601 40.4723C19.5887 40.8607 19.7672 41.0638 20.1063 41.0638H20.249C20.606 41.0638 20.7666 40.8872 20.829 40.5076L21.5786 36.3412L22.3014 39.1306C22.3638 39.4131 22.4174 39.5984 22.9617 39.5984C23.4168 39.5984 23.5238 39.4396 23.6845 39.1836L25.4512 36.3147L24.7017 40.4812C24.6303 40.8784 24.8088 41.0726 25.1389 41.0726H25.2906C25.6476 41.0726 25.8082 40.8872 25.8706 40.5165L26.7897 35.3261C26.87 34.9112 26.6648 34.6464 26.2454 34.6464Z" fill="#141414"/>
<path d="M31.8221 38.3362C31.7775 37.0827 30.9208 36.1647 29.4753 36.1647C27.8245 36.1647 26.8162 37.4976 26.8608 38.9541C26.9143 40.287 27.8423 41.1432 29.2076 41.1432C30.903 41.1344 31.8667 39.7927 31.8221 38.3362ZM29.2165 40.2252C28.4402 40.2252 27.9494 39.6691 27.9227 38.9099C27.887 37.9301 28.5384 37.0651 29.4664 37.0651C30.1802 37.0651 30.7424 37.6212 30.7692 38.3891C30.7959 39.4219 30.1445 40.2252 29.2165 40.2252Z" fill="#141414"/>
<path d="M35.5072 36.1647C34.8202 36.1647 34.2758 36.5001 33.91 37.0651C33.9457 36.4207 33.5888 36.2353 33.2229 36.2353C33.0534 36.2353 32.9195 36.2794 32.9106 36.2971L32.161 40.49C32.0897 40.9226 32.3306 41.0461 32.6518 41.0461H32.7857C33.1337 41.0461 33.2764 40.9049 33.3478 40.49L33.794 37.9743C34.1152 37.4181 34.4722 37.1533 35.0254 37.1533C35.5786 37.1533 35.9088 37.4799 35.9177 38.0184C35.9266 38.1596 35.8909 38.3362 35.8642 38.548L35.5162 40.49C35.4448 40.9226 35.6946 41.0461 36.0069 41.0461H36.1408C36.4888 41.0461 36.6316 40.9049 36.7029 40.49L37.0866 38.345C37.1313 38.1067 37.158 37.8948 37.1491 37.7006C37.1223 36.8002 36.5156 36.1647 35.5072 36.1647Z" fill="#141414"/>
<path d="M56.6189 36.1647C56.0567 36.1647 55.6373 36.4825 55.3518 37.0651C55.3964 36.4207 55.0395 36.2354 54.6736 36.2354C54.4952 36.2354 54.3702 36.2795 54.3613 36.2971L53.6028 40.4901C53.5315 40.9226 53.817 41.0462 54.1382 41.0462H54.2721C54.5755 41.0462 54.7182 40.905 54.7986 40.4901L55.0484 39.0865C55.2358 37.992 55.6463 37.2328 56.3066 37.2328C56.6278 37.2328 56.833 37.3652 56.9669 37.5153C56.9847 37.533 57.4844 37.3388 57.4666 36.7562C57.4398 36.3942 57.074 36.1647 56.6189 36.1647Z" fill="#141414"/>
<path d="M62.3831 36.2351C61.9191 36.2351 61.6604 36.4558 61.5087 37.0384C61.2142 36.4911 60.6074 36.1557 59.9025 36.1557C58.4034 36.1557 57.3594 37.4798 57.3594 38.9804C57.3594 40.2162 58.1268 41.1343 59.3403 41.1343C60.0809 41.1343 60.652 40.8341 61.0179 40.2251C60.9643 40.8606 61.0893 41.0548 61.5533 41.0548C61.9637 41.0548 62.0976 40.9048 62.1422 40.4546C62.1957 39.6248 62.4813 38.2742 62.8114 36.3764C62.8114 36.3411 62.6241 36.2351 62.3831 36.2351ZM59.5991 40.2251C58.8674 40.2251 58.448 39.766 58.448 38.9539C58.448 38.0006 59.0102 37.0473 60.0542 37.0473C60.9019 37.0473 61.2588 37.6652 61.2588 38.3449C61.2588 39.2011 60.6699 40.2251 59.5991 40.2251Z" fill="#141414"/>
<path d="M69.5059 36.1647C68.685 36.1647 68.1406 36.5796 67.7569 37.1887C67.5696 36.5443 67.0074 36.1647 66.2935 36.1647C65.6689 36.1647 65.1246 36.456 64.7498 37.0121C64.7677 36.4207 64.4197 36.2442 64.0628 36.2442C63.8843 36.2442 63.7594 36.2883 63.7504 36.306L63.0009 40.4989C62.9295 40.9314 63.1704 41.055 63.4917 41.055H63.6255C63.9289 41.055 64.1163 40.9314 64.1877 40.4989L64.6517 37.8949C64.9908 37.3741 65.312 37.1534 65.8117 37.1534C66.3025 37.1534 66.6059 37.5153 66.6059 38.0626C66.6059 38.1509 66.5969 38.248 66.5791 38.3539L66.2043 40.4989C66.1329 40.9314 66.3828 41.055 66.6951 41.055H66.82C67.1234 41.055 67.3197 40.9226 67.3911 40.4989L67.8551 37.8949C68.1942 37.3741 68.5154 37.1534 69.0151 37.1534C69.488 37.1534 69.836 37.4359 69.836 38.0185C69.836 38.1597 69.8093 38.3362 69.7736 38.5481L69.4256 40.4901C69.3542 40.9226 69.5951 41.0462 69.9164 41.0462H70.0502C70.3982 41.0462 70.541 40.905 70.6124 40.4901L70.9961 38.3451C71.0407 38.1067 71.0585 37.8949 71.0585 37.7007C71.0674 36.7562 70.425 36.1647 69.5059 36.1647Z" fill="#141414"/>
<path d="M42.5669 38.2654C42.5669 37.6122 42.4331 37.1797 42.1386 36.8001C41.8174 36.3941 41.2195 36.1469 40.5235 36.1469C38.4177 36.1469 37.6592 37.6829 37.6592 39.0158C37.6592 40.2869 38.5872 41.1343 40.0149 41.1343C41.4426 41.1343 42.2457 40.5076 42.2457 40.0044C42.2457 39.669 42.0048 39.5542 41.7282 39.5277C41.3534 40.0044 40.8358 40.2339 40.1309 40.2339C39.5063 40.2339 38.7657 39.9956 38.7121 38.8922H41.9512C42.2992 38.901 42.5669 38.7068 42.5669 38.2654ZM41.5229 38.1154H38.8192C39.078 37.4357 39.6758 37.012 40.4343 37.012C40.818 37.012 41.1125 37.1179 41.3088 37.3298C41.4783 37.524 41.5408 37.7888 41.5229 38.1154Z" fill="#141414"/>
<path d="M52.6215 37.6212H50.694C50.462 37.6212 50.355 37.6741 50.2836 37.7447C50.1676 37.8683 50.1051 38.1508 50.1051 38.2744C50.114 38.4686 50.2836 38.5833 50.5959 38.5833H51.9611C51.7738 39.5278 51.167 40.1811 50.123 40.1811C49.0254 40.1811 48.2937 39.4925 48.2491 38.3185C48.1956 36.8444 49.186 35.6262 50.587 35.6262C51.4079 35.6262 52.0504 36.0587 52.3091 36.6325C52.3448 36.6766 53.1033 36.6766 53.0765 36.0323C53.0676 35.8027 52.9338 35.5291 52.6839 35.2996C52.2824 34.9024 51.5239 34.5581 50.5156 34.5581C49.1057 34.5581 47.9903 35.3261 47.4103 36.4383C47.4103 36.4295 47.4014 36.4295 47.4014 36.4295C47.2854 36.2794 47.098 36.2088 46.9106 36.2088C46.5983 36.2088 46.3931 36.3059 46.0897 36.8355L44.5906 39.4396L44.0284 36.8444C43.9214 36.3589 43.7429 36.2088 43.4306 36.2088C43.0647 36.2088 42.7703 36.4736 42.7792 36.5354L43.85 40.7283L42.7435 42.5291C42.6275 42.7233 42.6186 42.9793 43.038 42.9793H43.27C43.7072 42.9793 43.85 42.7145 44.0641 42.3526L47.0802 37.3034C46.9909 37.6565 46.9463 38.036 46.9642 38.4244C47.0177 40.1193 48.1777 41.1432 49.8731 41.1432C50.6762 41.1432 51.3187 40.8431 51.6756 40.3841C51.6488 40.8784 51.9165 41.0726 52.2735 41.0726C52.4698 41.0726 52.6125 41.0108 52.6125 40.9755L53.1033 38.2567C53.1836 37.833 53.023 37.6212 52.6215 37.6212Z" fill="#141414"/>
<path d="M72.3326 40.5342C72.3683 40.596 72.3951 40.6225 72.4397 40.6225C72.4397 40.6225 72.4486 40.6931 72.3594 40.6931C72.3059 40.6931 72.2702 40.6666 72.2166 40.5695L72.1185 40.393H72.0292L71.9846 40.6401C71.9757 40.6754 71.9579 40.6931 71.9222 40.6931H71.9043C71.8686 40.6931 71.8508 40.6754 71.8597 40.6313L71.9846 39.9958C71.9935 39.9516 72.0203 39.934 72.0649 39.934H72.2523C72.4219 39.934 72.52 40.0046 72.52 40.1282C72.52 40.2782 72.4219 40.3753 72.2523 40.3841L72.3326 40.5342ZM72.2166 40.2959C72.3326 40.2959 72.3951 40.2341 72.3862 40.137C72.3862 40.0664 72.3326 40.0222 72.2345 40.0222H72.1006L72.0471 40.287H72.2166V40.2959Z" fill="#141414"/>
<path d="M72.1907 39.7309C72.5387 39.7309 72.8153 40.0134 72.8153 40.3488C72.8153 40.6931 72.5298 40.9667 72.1907 40.9667C71.8427 40.9667 71.5661 40.6843 71.5661 40.3488C71.5571 40.0134 71.8427 39.7309 72.1907 39.7309ZM72.1907 39.625C71.7891 39.625 71.459 39.9516 71.459 40.3488C71.459 40.7461 71.7891 41.0727 72.1907 41.0727C72.5922 41.0727 72.9224 40.7461 72.9224 40.3488C72.9224 39.9516 72.5922 39.625 72.1907 39.625Z" fill="#141414"/>
<path d="M10.0761 45.4332C13.9841 45.4332 17.1522 42.2992 17.1522 38.4332C17.1522 34.5672 13.9841 31.4332 10.0761 31.4332C6.16807 31.4332 3 34.5672 3 38.4332C3 42.2992 6.16807 45.4332 10.0761 45.4332Z" fill="white"/>
<path d="M17.1522 38.4332C17.1522 42.2996 13.9844 45.4332 10.0761 45.4332C6.16773 45.4332 3 42.2996 3 38.4332C3 37.3651 3.24093 36.3588 3.66924 35.4584C3.3837 36.1735 3.24985 36.8885 3.24985 37.5505C3.24985 40.7195 5.83757 41.1785 6.93513 41.1697C8.61269 41.152 10.5669 40.3399 12.2177 38.8393C12.2177 38.8393 12.0035 40.0221 11.941 40.384C11.8786 40.7371 12.1106 41.0461 12.4675 41.0461H12.6103C12.9761 41.0461 13.2438 40.746 13.3063 40.384L13.9041 37.0827C13.9755 36.7119 13.7346 36.4206 13.3598 36.4206H10.0225C9.64778 36.4206 9.30869 36.6148 9.24623 36.9856C9.24623 37.0032 9.21946 37.1091 9.21946 37.1356C9.16592 37.4887 9.41577 37.7535 9.7727 37.7535H11.5127C11.486 37.78 11.4592 37.8065 11.4324 37.833C10.2278 38.954 8.73761 39.5719 7.50621 39.5719C6.28373 39.5719 4.90956 38.804 4.90956 37.0827C4.90956 33.5076 8.30037 31.4332 10.0761 31.4332C13.9755 31.4332 17.1522 34.5669 17.1522 38.4332Z" fill="#DF2127"/>
</svg>
