<svg width="18" height="18" viewBox="0 0 18 18" fill="none" xmlns="http://www.w3.org/2000/svg">
<rect x="0.25" y="0.25" width="17.5" height="17.5" rx="8.75" fill="white"/>
<rect x="0.25" y="0.25" width="17.5" height="17.5" rx="8.75" stroke="#F8F6FF" stroke-width="0.5"/>
<path d="M13.1053 4H4.91813C3.8655 4 3 4.82426 3 5.82673V6.67327C3 7.00743 3.2807 7.27475 3.63158 7.27475C3.98246 7.27475 4.26316 7.00743 4.26316 6.67327V5.82673C4.26316 5.49257 4.54386 5.22525 4.89474 5.22525H13.0819C13.4327 5.22525 13.7135 5.49257 13.7135 5.82673V11.1733C13.7135 11.5074 13.4327 11.7748 13.0819 11.7748H4.89474C4.54386 11.7748 4.26316 11.5074 4.26316 11.1733V10.3267C4.26316 9.99257 3.98246 9.72525 3.63158 9.72525C3.2807 9.72525 3 9.99257 3 10.3267V11.1733C3 12.1757 3.8655 13 4.91813 13H13.1053C14.1579 13 15.0234 12.1757 15.0234 11.1733V5.82673C15 4.82426 14.1579 4 13.1053 4Z" fill="#141414"/>
<path d="M8.84775 9.74825L10.8127 8.65666C10.9296 8.58983 10.9296 8.43389 10.8127 8.36706C10.3214 8.09973 9.33898 7.5428 8.84775 7.2532C8.73079 7.18636 8.56705 7.27547 8.56705 7.40914V7.92151H4.77757C4.4267 7.92151 4.146 8.18884 4.146 8.523C4.146 8.85716 4.4267 9.12448 4.77757 9.12448H8.56705V9.5923C8.56705 9.72597 8.73079 9.81508 8.84775 9.74825Z" fill="#141414"/>
</svg>
