<svg width="11" height="12" viewBox="0 0 11 12" fill="none" xmlns="http://www.w3.org/2000/svg">
<g clip-path="url(#clip0_6966_183)">
<path d="M0.393555 3.96614H10.4033C9.67489 1.9059 7.71173 0.429199 5.40236 0.427429H5.39434C3.0851 0.429199 1.12194 1.9059 0.393555 3.96614Z" fill="#006F2E"/>
<path d="M10.4033 7.50482H0.393555C1.12241 9.56624 3.08746 11.0435 5.39847 11.0435C7.70949 11.0435 9.67441 9.56624 10.4033 7.50482Z" fill="#141414"/>
<path d="M10.4037 7.50459C10.5994 6.95102 10.707 6.35581 10.707 5.73524C10.707 5.11466 10.5995 4.51945 10.4037 3.96588H0.39397C0.198279 4.51945 0.0908203 5.11466 0.0908203 5.73524C0.0908203 6.35581 0.198397 6.95102 0.394088 7.50459H10.4037Z" fill="#F3F4F5"/>
<path d="M3.62953 10.7403V0.730713C1.56811 1.45957 0.0908203 3.4245 0.0908203 5.73551C0.0908203 8.04653 1.56811 10.0115 3.62953 10.7403Z" fill="#F70000"/>
</g>
<defs>
<clipPath id="clip0_6966_183">
<rect width="10.7463" height="10.7463" fill="white" transform="translate(0.03125 0.367737)"/>
</clipPath>
</defs>
</svg>
