<svg width="16" height="16" viewBox="0 0 16 16" fill="none" xmlns="http://www.w3.org/2000/svg">
<rect width="16" height="16" rx="8" fill="#794EFF"/>
<path d="M9.97851 5.17733L9.44376 11.1624C9.37959 11.8073 9.01597 12.3514 8.35288 12.8148C7.66841 13.2783 6.87698 13.5 6 13.5L6.14973 11.8274C6.40641 11.8274 6.62031 11.7669 6.81281 11.6259C7.00532 11.505 7.11227 11.3639 7.13366 11.1624L7.6898 5.17733H9.97851Z" fill="white"/>
<path d="M10 3.58813C10 4.19265 9.48667 4.67627 8.84501 4.67627C8.20335 4.67627 7.69002 4.19265 7.69002 3.58813C7.69002 2.98362 8.20335 2.5 8.84501 2.5C9.48667 2.5 10 2.98362 10 3.58813Z" fill="white"/>
</svg>
