<svg width="512" height="512" viewBox="0 0 512 512" fill="none" xmlns="http://www.w3.org/2000/svg">
<rect width="512" height="512" rx="70" fill="#794EFF"/>
<path d="M318.318 160.786L301.34 363.734C299.302 385.601 287.757 404.05 266.704 419.767C244.972 435.483 219.844 443 192 443L196.754 386.284C204.903 386.284 211.695 384.234 217.807 379.451C223.919 375.351 227.315 370.567 227.994 363.734L245.651 160.786H318.318Z" fill="white"/>
<path d="M319 106.898C319 127.396 302.702 143.795 282.329 143.795C261.956 143.795 245.658 127.396 245.658 106.898C245.658 86.399 261.956 70 282.329 70C302.702 70 319 86.399 319 106.898Z" fill="white"/>
</svg>
