<svg width="63" height="22" viewBox="0 0 63 22" fill="none" xmlns="http://www.w3.org/2000/svg">
<g id="500-logo-black 1" clip-path="url(#clip0_3769_2051)">
<g id="Clip path group">
<mask id="mask0_3769_2051" style="mask-type:luminance" maskUnits="userSpaceOnUse" x="0" y="0" width="63" height="22">
<g id="clip0_1286_517">
<path id="Vector" d="M63 0H0V22H63V0Z" fill="white"/>
</g>
</mask>
<g mask="url(#mask0_3769_2051)">
<g id="Group">
<path id="Vector_2" d="M32.5862 1.03025C30.0131 0.376139 27.5424 4.4899 26.1961 9.99555C24.8487 15.5023 25.1356 20.3156 27.7087 20.9697C30.2818 21.6239 32.7525 17.5101 34.0988 12.0033C35.4462 6.49667 35.1594 1.68332 32.5862 1.02922M40.6725 10.999C40.3714 17.0741 35.723 21.999 29.6036 21.999C23.4841 21.999 19.3234 17.0741 19.6235 10.999C19.9236 4.92494 24.572 0 30.6924 0C36.8129 0 40.9736 4.92494 40.6725 11M54.8995 1.03025C52.3264 0.376139 49.8557 4.4899 48.5093 9.99555C47.163 15.5023 47.4489 20.3156 50.022 20.9697C52.5961 21.6239 55.0657 17.5101 56.4121 12.0033C57.7585 6.49667 57.4726 1.68332 54.8995 1.02922M62.9847 10.999C62.6836 17.0741 58.0352 21.999 51.9158 21.999C45.7964 21.999 41.6346 17.0741 41.9357 10.999C42.2368 4.92391 46.8852 0 53.0056 0C59.1261 0 63.2868 4.92494 62.9857 11M18.5752 14.4142C18.4079 19.2936 13.9167 21.9391 9.29368 21.9391C5.37623 21.9391 1.71836 19.8041 0.00195312 18.5052L1.93329 13.0346L2.04886 13.077C5.22517 17.9162 7.92394 21.2498 10.7455 20.9894C12.6119 20.8179 13.72 19.6585 13.7991 17.3603C13.9086 14.1641 11.5149 10.2013 2.50813 11.836L2.37329 11.7864L6.42655 0.304838H20.0148L18.191 5.47158H5.46038L4.26001 8.87128C11.4541 5.10474 18.7577 9.07801 18.5742 14.4121" fill="#0A1E25"/>
</g>
</g>
</g>
</g>
<defs>
<clipPath id="clip0_3769_2051">
<rect width="63" height="22" fill="white"/>
</clipPath>
</defs>
</svg>
