<svg width="63" height="32" viewBox="0 0 63 32" fill="none" xmlns="http://www.w3.org/2000/svg">
<g id="AAICO 1" clip-path="url(#clip0_3769_2038)">
<path id="Vector" fill-rule="evenodd" clip-rule="evenodd" d="M32.1387 0.206543H17.8627C16.6421 0.206543 15.4466 0.325847 14.2937 0.557601C13.0515 0.80718 11.8595 1.17881 10.7246 1.667C9.45039 2.21484 8.25492 2.90597 7.15562 3.71712C5.80331 4.71407 4.60014 5.89751 3.58659 7.2277C2.75848 8.30897 2.05931 9.48489 1.50235 10.7383C1.00603 11.8511 0.628216 13.027 0.374481 14.2489C0.138869 15.3829 0.0175781 16.5554 0.0175781 17.7594V24.7806H7.15562V31.8018H17.8627L25.0008 24.784V31.8018H39.2768C40.4973 31.8018 41.693 31.6825 42.8459 31.4506C44.088 31.201 45.2835 30.8294 46.4149 30.3377C47.6891 29.7935 48.8882 29.1022 49.984 28.2912C50.5471 27.8758 51.0847 27.428 51.5936 26.9508C52.3059 26.2829 52.9618 25.5568 53.553 24.7806C54.3777 23.6993 55.0803 22.5234 55.6338 21.27C56.1334 20.1572 56.5114 18.9813 56.765 17.7594C57.0007 16.6253 57.1221 15.4494 57.1221 14.2489V7.2277H49.984V0.206543H39.2768L32.1387 7.2277V0.206543ZM49.984 7.2277V24.7806H25.0008L42.8459 7.2277H49.984ZM32.1387 7.2277L14.2937 24.7806H7.15562V7.2277H32.1387Z" fill="black"/>
<path id="Vector_2" fill-rule="evenodd" clip-rule="evenodd" d="M58.8672 27.4033H60.144C60.5367 27.4033 60.8261 27.48 61.0125 27.6337C61.2039 27.7871 61.2997 28.02 61.2997 28.3321C61.2997 28.6241 61.2165 28.8398 61.0502 28.9784C60.884 29.1123 60.6777 29.1915 60.4308 29.2161L61.3751 30.65H60.8238L59.9248 29.2532H59.381V30.65H58.8672V27.4033ZM59.381 28.8446H59.9173C60.0329 28.8446 60.1414 28.8423 60.2421 28.8372C60.3477 28.8273 60.4409 28.805 60.5215 28.7704C60.602 28.7356 60.665 28.6836 60.7105 28.6142C60.7608 28.5401 60.7858 28.4385 60.7858 28.3097C60.7858 28.2008 60.7631 28.1142 60.7179 28.0497C60.6777 27.9852 60.6222 27.9356 60.5517 27.9011C60.4863 27.8663 60.4084 27.8442 60.3175 27.8343C60.232 27.8193 60.1463 27.812 60.0608 27.812H59.381V28.8446Z" fill="black"/>
<path id="Vector_3" fill-rule="evenodd" clip-rule="evenodd" d="M57.1211 29.0154C57.1211 28.624 57.1967 28.2601 57.3478 27.9233C57.4988 27.5863 57.7028 27.2943 57.9597 27.0466C58.2215 26.7988 58.5236 26.6058 58.866 26.4671C59.2135 26.3233 59.5812 26.2515 59.969 26.2515C60.3566 26.2515 60.7216 26.3233 61.0643 26.4671C61.4066 26.6058 61.7062 26.7988 61.9631 27.0466C62.22 27.2943 62.4239 27.5863 62.575 27.9233C62.726 28.2601 62.8014 28.624 62.8014 29.0154C62.8014 29.4167 62.726 29.7882 62.575 30.1301C62.4239 30.4668 62.22 30.7614 61.9631 31.0141C61.7062 31.2618 61.4066 31.455 61.0643 31.5937C60.7216 31.7324 60.3566 31.8017 59.969 31.8017C59.5812 31.8017 59.2135 31.7324 58.866 31.5937C58.5236 31.455 58.2215 31.2618 57.9597 31.0141C57.7028 30.7614 57.4988 30.4668 57.3478 30.1301C57.1967 29.7882 57.1211 29.4167 57.1211 29.0154ZM57.6349 29.0154C57.6349 29.3572 57.6927 29.6742 57.8087 29.9665C57.9295 30.2538 58.0932 30.5039 58.2995 30.717C58.511 30.9298 58.7578 31.0982 59.0398 31.2221C59.3269 31.341 59.6364 31.4004 59.969 31.4004C60.2961 31.4004 60.6008 31.341 60.883 31.2221C61.165 31.0982 61.4092 30.9298 61.6155 30.717C61.827 30.5039 61.9907 30.2538 62.1066 29.9665C62.2275 29.6742 62.2879 29.3572 62.2879 29.0154C62.2879 28.6835 62.2275 28.3741 62.1066 28.0866C61.9907 27.7994 61.827 27.5518 61.6155 27.3438C61.4092 27.1307 61.165 26.9649 60.883 26.846C60.6008 26.7221 60.2961 26.6601 59.969 26.6601C59.6364 26.6601 59.3269 26.7221 59.0398 26.846C58.7578 26.9649 58.511 27.1307 58.2995 27.3438C58.0932 27.5518 57.9295 27.7994 57.8087 28.0866C57.6927 28.3741 57.6349 28.6835 57.6349 29.0154Z" fill="black"/>
</g>
<defs>
<clipPath id="clip0_3769_2038">
<rect width="63" height="32" fill="white"/>
</clipPath>
</defs>
</svg>
