<svg width="144" height="33" viewBox="0 0 144 33" fill="none" xmlns="http://www.w3.org/2000/svg">
<g id="partner/Bank Alfalah" clip-path="url(#clip0_3769_1970)">
<path id="Vector" d="M0 32.9807L15.6992 0.417514C15.7547 0.302687 15.8388 0.204209 15.9433 0.131607C16.0478 0.0590051 16.1691 0.0147387 16.2956 0.00309267C16.4221 -0.00855337 16.5494 0.0128142 16.6653 0.0651284C16.7812 0.117443 16.8816 0.198932 16.957 0.30171L32.0952 20.9315C35.7615 25.9263 32.2173 32.9917 26.041 33C24.8308 33.0018 23.638 32.7104 22.5636 32.1505C21.4892 31.5906 20.5649 30.7788 19.8689 29.7837L17.2395 26.0214C16.807 25.4056 16.1602 24.9753 15.4273 24.8158C14.6943 24.6562 13.9284 24.779 13.2811 25.1597L0 32.9807Z" fill="url(#paint0_linear_3769_1970)"/>
<path id="Vector_2" d="M32.0924 20.9437L16.9555 0.301886C16.8802 0.199048 16.7797 0.117511 16.6639 0.0651665C16.548 0.0128217 16.4207 -0.00855837 16.2942 0.00309448C16.1677 0.0147473 16.0464 0.0590397 15.9419 0.131684C15.8374 0.204328 15.7534 0.302864 15.6979 0.417758L0 33L19.5476 21.4721C20.8903 20.6816 22.857 21.0582 23.7539 22.3356L26.383 26.0959C27.0678 27.0911 27.9826 27.9041 29.0488 28.4652C30.1149 29.0262 31.3006 29.3185 32.5039 29.3169C33.9563 26.8574 34.0495 23.6074 32.0924 20.9437Z" fill="url(#paint1_linear_3769_1970)"/>
<path id="Vector_3" d="M92.043 24.411C93.3696 20.8027 95.3499 15.8081 96.6587 12.8863L96.2294 11.8718C96.856 11.7291 97.4938 11.6411 98.1354 11.6089C99.8914 15.7058 101.592 20.1225 103.068 24.4078H101.2L100.116 21.2799H94.8834C94.4913 22.3496 94.0765 23.4972 93.7811 24.4175L92.043 24.411ZM99.6477 19.9375C98.9198 17.9264 98.2839 16.235 97.5496 14.3553C96.8766 16.0094 96.0971 18.0026 95.3628 19.9375H99.6477Z" fill="black"/>
<path id="Vector_4" d="M105.966 24.411H104.247V12.8863C103.985 12.3281 103.766 11.7501 103.594 11.1576C104.351 10.835 105.15 10.6198 105.966 10.5181V24.411Z" fill="black"/>
<path id="Vector_5" d="M110.637 16.329V24.4108H108.918V16.329H107.143C107.093 15.9992 107.093 15.6637 107.143 15.3339C107.729 15.2109 108.321 15.1226 108.918 15.0694V13.8861C108.918 11.6493 110.057 10.4092 112.075 10.4092C112.898 10.4092 113.758 10.5715 114.86 10.9351C114.708 11.4573 114.514 11.9664 114.281 12.4576C112.917 11.9707 111.907 11.724 111.234 11.724C110.861 12.1379 110.637 13.0225 110.637 14.037V15.0109H113.703V16.3257L110.637 16.329Z" fill="black"/>
<path id="Vector_6" d="M119.402 23.377C118.433 24.1107 117.215 24.5993 116.3 24.5993C114.731 24.5993 113.646 23.5085 113.646 21.9486C113.646 20.3514 114.938 19.2054 116.874 19.074L119.098 18.923V18.3029C119.098 16.8551 118.499 16.1603 117.249 16.1603C116.379 16.1883 115.528 16.42 114.763 16.8372C114.582 16.4763 114.443 16.0948 114.352 15.701C115.385 15.0762 116.566 14.74 117.772 14.7271C119.708 14.7271 120.762 15.8925 120.762 18.053V22.3203L121.808 23.7293C121.224 24.0834 120.596 24.3564 119.939 24.5409L119.402 23.377ZM119.103 22.3252V20.1631C118.262 20.1631 116.413 20.2946 115.714 20.3887C115.482 20.7674 115.359 21.2035 115.359 21.6483C115.359 22.645 115.843 23.1888 116.742 23.1888C117.459 23.1888 118.319 22.8706 119.103 22.3252Z" fill="black"/>
<path id="Vector_7" d="M125.026 24.411H123.306V12.8863C123.044 12.3281 122.825 11.7501 122.652 11.1576C123.41 10.8351 124.209 10.6198 125.026 10.5181V24.411Z" fill="black"/>
<path id="Vector_8" d="M132.464 23.377C131.496 24.1107 130.277 24.5993 129.362 24.5993C127.792 24.5993 126.709 23.5085 126.709 21.9486C126.709 20.3514 128 19.2054 129.937 19.074L132.161 18.923V18.3029C132.161 16.8551 131.562 16.1603 130.31 16.1603C129.44 16.1884 128.589 16.4202 127.824 16.8372C127.643 16.4762 127.505 16.0948 127.414 15.701C128.447 15.0764 129.627 14.7403 130.833 14.7271C132.769 14.7271 133.823 15.8925 133.823 18.053V22.3203L134.87 23.7293C134.287 24.0834 133.658 24.3564 133.002 24.5409L132.464 23.377ZM132.166 22.3252V20.1631C131.325 20.1631 129.474 20.2946 128.776 20.3887C128.544 20.7674 128.421 21.2035 128.421 21.6483C128.421 22.645 128.906 23.1888 129.804 23.1888C130.521 23.1888 131.38 22.8706 132.166 22.3252Z" fill="black"/>
<path id="Vector_9" d="M138.089 16.3112C139.398 15.3146 140.705 14.7319 141.602 14.7319C143.003 14.7319 143.994 16.0304 143.994 17.889V24.411H142.275V18.509C142.275 17.3631 141.901 16.4801 141.307 16.1798C140.146 16.3968 139.048 16.8714 138.092 17.5692V24.411H136.37V12.8863C136.111 12.3279 135.895 11.7499 135.725 11.1576C136.482 10.835 137.281 10.6198 138.097 10.5181L138.089 16.3112Z" fill="black"/>
<path id="Vector_10" d="M81.2542 18.1955C81.0411 17.9163 81.0282 17.7702 81.301 17.5333C82.3597 16.6113 83.3893 15.6568 84.4448 14.7333C84.6676 14.5385 84.6724 14.4265 84.461 14.2317C84.1866 13.9752 83.8929 13.7447 83.5992 13.5175C83.3409 13.3146 83.165 13.3081 82.9084 13.5678C81.2606 15.2283 79.6725 16.944 78.0812 18.8172V10.3636C78.0812 9.83121 78.0699 9.2988 78.0812 8.76802C78.0812 8.53428 78.0247 8.47585 77.7923 8.50993C77.24 8.58846 76.696 8.71777 76.1671 8.89625C75.1068 9.2631 75.2375 9.09915 75.6249 10.0325C75.9611 10.8843 76.1198 11.7964 76.0913 12.7124C76.0671 16.4035 76.0816 20.0963 76.0816 23.7891C76.0816 23.8978 76.0897 24.0082 76.0816 24.1137C76.0638 24.3198 76.1526 24.3848 76.3527 24.3799C76.8192 24.3685 77.2872 24.3604 77.752 24.3799C78.0296 24.3929 78.0861 24.2857 78.0828 24.0325C78.0699 23.031 78.0748 22.0295 78.0828 21.028C78.0828 20.8787 78.0328 20.7147 78.1716 20.5881C78.6784 20.1293 79.1835 19.6694 79.6871 19.2084C80.7877 20.7715 81.9465 22.4142 83.1021 24.0552C83.1892 24.1786 83.2393 24.3653 83.4249 24.3685C84.2205 24.3783 85.0162 24.3685 85.8861 24.3685C84.2996 22.2633 82.7874 20.2213 81.2542 18.1955Z" fill="#070606"/>
<path id="Vector_11" d="M72.5624 14.4624C72.0411 13.6784 71.3261 13.2613 70.3675 13.2905C69.6848 13.3132 69.0667 13.5518 68.4566 13.8278C67.7412 14.1785 67.0547 14.5862 66.4037 15.0468C66.4037 14.5452 66.386 14.1151 66.4037 13.6849C66.4199 13.3993 66.3214 13.3473 66.06 13.3928C65.5103 13.4798 64.97 13.6184 64.4461 13.8067C63.552 14.1427 63.6585 14.0372 63.9861 14.7806C64.3993 15.7204 64.5058 16.6765 64.488 17.6893C64.4509 19.7557 64.488 21.8204 64.4687 23.8867C64.4687 24.26 64.5365 24.4272 64.9432 24.385C65.2995 24.3501 65.6584 24.3501 66.0148 24.385C66.4005 24.4224 66.499 24.2941 66.499 23.8981C66.4796 21.5672 66.499 19.2346 66.4812 16.9037C66.4706 16.775 66.4984 16.646 66.5611 16.5332C66.6237 16.4204 66.7184 16.329 66.833 16.2707C67.6208 15.7723 68.4728 15.3851 69.3652 15.1198C70.2109 14.8796 70.516 15.0273 70.8888 15.847C71.1809 16.4963 71.2116 17.1748 71.2116 17.8647C71.2116 19.9001 71.2196 21.934 71.2116 23.9679C71.2116 24.2925 71.3019 24.4029 71.6279 24.3818C72.0478 24.3582 72.4686 24.3582 72.8884 24.3818C73.1515 24.3948 73.2322 24.3136 73.2305 24.0442C73.2192 21.5866 73.2305 19.1291 73.2128 16.6732C73.2178 15.8879 72.9915 15.1186 72.5624 14.4624Z" fill="#070606"/>
<path id="Vector_12" d="M50.2263 17.446C49.8094 17.1628 49.3602 16.9312 48.8883 16.7561C49.5692 16.1972 50.0942 15.4701 50.4119 14.6459C51.1204 12.7338 50.3328 10.8688 48.5268 10.1741C48.0059 9.96729 47.4519 9.85729 46.8919 9.84941C45.0408 9.83643 43.18 9.84941 41.3369 9.83643C41.0657 9.83643 40.9754 9.88837 41.069 10.1741C41.5612 11.6982 41.5644 13.2695 41.5531 14.8521C41.5257 17.8875 41.5531 20.9228 41.537 23.9598C41.537 24.3104 41.6193 24.4062 41.9728 24.3997C43.4979 24.377 45.023 24.3997 46.5482 24.377C47.5753 24.3752 48.5909 24.1591 49.5307 23.7423C51.9354 22.6288 52.1226 18.8322 50.2263 17.446ZM43.5302 15.8909C43.556 15.2027 43.5382 14.5145 43.5382 13.8262C43.5382 13.0601 43.5382 12.2939 43.5382 11.5278C43.5382 11.3655 43.5382 11.2275 43.7723 11.2405C44.6728 11.2843 45.5814 11.2519 46.4723 11.3622C48.1185 11.5684 48.8722 12.7825 48.459 14.4463C48.4251 14.5826 48.3799 14.7157 48.3348 14.8472C47.8619 16.2594 47.7731 16.3243 46.3303 16.3243C45.5379 16.3243 44.7438 16.3016 43.9514 16.3357C43.5737 16.3503 43.5108 16.2237 43.5237 15.8909H43.5302ZM49.4015 20.8043C49.388 20.9757 49.3632 21.146 49.3273 21.314C49.1175 22.4324 48.756 22.7522 47.6311 22.796C46.3417 22.8408 45.0508 22.7822 43.7706 22.6207C43.5479 22.5947 43.5318 22.5022 43.5334 22.3269C43.5334 21.5932 43.5334 20.8579 43.5334 20.1226C43.5334 19.4198 43.5334 18.7169 43.5334 18.0124C43.5334 17.8923 43.4559 17.7024 43.6948 17.7122C44.9197 17.7544 46.1544 17.6083 47.3664 17.8615C48.948 18.1959 49.4726 19.298 49.3951 20.8043H49.4015Z" fill="#070606"/>
<path id="Vector_13" d="M61.7482 22.5509C61.4254 22.1986 61.3286 21.7977 61.3286 21.3156C61.3286 19.6421 61.4077 17.9653 61.2753 16.2935C61.1333 14.5079 59.9536 13.3717 58.1799 13.3019C57.0277 13.2435 55.8791 13.4721 54.8359 13.9674C53.7885 14.4674 53.8675 14.1979 54.2775 15.3763C54.3791 15.6701 54.505 15.701 54.7842 15.5679C55.5233 15.2 56.3298 14.9895 57.1534 14.9494C58.3219 14.8926 59.0901 15.4104 59.3048 16.4428C59.3861 16.8893 59.4239 17.3426 59.4177 17.7965C59.4177 18.0562 59.3209 18.1001 59.095 18.1066C58.4736 18.1277 57.8523 18.1682 57.2309 18.2137C56.3433 18.2754 55.475 18.415 54.6922 18.8857C54.0403 19.2663 53.5481 19.8723 53.3074 20.5908C53.0666 21.3092 53.0936 22.0912 53.3834 22.7911C53.9111 24.1221 55.3717 24.8379 56.8807 24.5279C57.9145 24.2949 58.8903 23.8525 59.7486 23.2277C59.9229 23.5929 60.1004 23.9224 60.2328 24.2682C60.3248 24.4987 60.4506 24.5425 60.6604 24.4549C61.0752 24.2828 61.4981 24.1302 61.9048 23.9419C62.5584 23.6384 62.5503 23.6287 62.113 23.0427C61.9997 22.8726 61.878 22.7085 61.7482 22.5509ZM58.3913 22.5509C57.962 22.724 57.5157 22.8508 57.0598 22.9291C55.8155 23.0914 55.0618 22.3788 55.1506 21.1111C55.1587 21.0023 55.1796 20.8936 55.1942 20.7864C55.3136 19.9067 55.4911 19.746 56.3513 19.6957C57.2115 19.6453 58.0847 19.5934 58.9497 19.5203C59.2886 19.4911 59.471 19.5496 59.4177 19.9505C59.4 20.2153 59.4 20.481 59.4177 20.7459C59.4097 20.823 59.4097 20.9008 59.4177 20.978C59.605 21.8513 59.1482 22.2798 58.3913 22.546V22.5509Z" fill="#070606"/>
</g>
<defs>
<linearGradient id="paint0_linear_3769_1970" x1="22.7753" y1="16.1532" x2="15.19" y2="18.8322" gradientUnits="userSpaceOnUse">
<stop stop-color="#FF1101"/>
<stop offset="1" stop-color="#990A00"/>
</linearGradient>
<linearGradient id="paint1_linear_3769_1970" x1="8.38518" y1="16.5585" x2="32.6891" y2="28.8706" gradientUnits="userSpaceOnUse">
<stop stop-color="#990A00"/>
<stop offset="0.4" stop-color="#FF1101"/>
</linearGradient>
<clipPath id="clip0_3769_1970">
<rect width="144" height="33" fill="white"/>
</clipPath>
</defs>
</svg>
