<svg width="122" height="21" viewBox="0 0 122 21" fill="none" xmlns="http://www.w3.org/2000/svg">
<g id="Elevision-White-LogoColor-O-1 1">
<g id="Group">
<g id="Group_2">
<g id="Group_3">
<g id="Group_4">
<g id="Group_5">
<g id="Clip path group">
<mask id="mask0_3769_2067" style="mask-type:luminance" maskUnits="userSpaceOnUse" x="86" y="1" width="19" height="19">
<g id="SVGID_00000159443149071916466800000007178733760833879463_">
<path id="Vector" d="M104.023 19.503H86.4434L89.0869 16.8452C90.2765 15.6492 91.9287 14.9847 93.581 14.9847H99.4629V6.41329L103.957 1.89502V19.503H104.023Z" fill="white"/>
</g>
</mask>
<g mask="url(#mask0_3769_2067)">
<g id="Group_6">
<g id="Group_7">
<g id="Clip path group_2">
<mask id="mask1_3769_2067" style="mask-type:luminance" maskUnits="userSpaceOnUse" x="85" y="1" width="20" height="20">
<g id="SVGID_00000127004458395048200930000008515485065936431795_">
<path id="Vector_2" d="M104.882 1.03125H85.6504V20.3668H104.882V1.03125Z" fill="white"/>
</g>
</mask>
<g mask="url(#mask1_3769_2067)">
<g id="Group_8">
<rect id="Rectangle" x="85.5156" y="0.890625" width="19.3508" height="19.4552" fill="#192550"/>
</g>
</g>
</g>
</g>
</g>
</g>
</g>
</g>
</g>
</g>
<g id="Group_9">
<g id="Group_10">
<g id="Clip path group_3">
<mask id="mask2_3769_2067" style="mask-type:luminance" maskUnits="userSpaceOnUse" x="86" y="1" width="18" height="19">
<g id="SVGID_00000069393043057334988230000006778377812578309822_">
<path id="Vector_3" d="M86.1797 19.171V1.49658H103.759L99.2653 6.01485H90.7398V11.9285C90.7398 13.656 90.0789 15.2507 88.8893 16.4467L86.1797 19.171Z" fill="white"/>
</g>
</mask>
<g mask="url(#mask2_3769_2067)">
<g id="Group_11">
<g id="Group_12">
<g id="Clip path group_4">
<mask id="mask3_3769_2067" style="mask-type:luminance" maskUnits="userSpaceOnUse" x="82" y="-2" width="26" height="25">
<g id="SVGID_00000132807172844876861750000016858760807944647356_">
<path id="Vector_4" d="M107.064 -1.82568H82.875V22.4933H107.064V-1.82568Z" fill="white"/>
</g>
</mask>
<g mask="url(#mask3_3769_2067)">
<g id="Group_13">
<rect id="Rectangle_2" x="82.6621" y="-1.97949" width="24.4264" height="24.5581" fill="#192550"/>
</g>
</g>
</g>
</g>
</g>
</g>
</g>
</g>
</g>
</g>
<g id="Group_14">
<path id="Vector_5" d="M13.6148 19.5032H1.52053C1.38835 19.5032 1.32227 19.4368 1.32227 19.3039V1.69592C1.32227 1.56303 1.38835 1.49658 1.52053 1.49658H13.6809C13.8131 1.49658 13.8791 1.56303 13.8791 1.69592V5.28396C13.8791 5.41685 13.8131 5.48329 13.6809 5.48329H6.14675C6.08066 5.48329 5.94848 5.54974 5.94848 5.68263V8.07465C5.94848 8.20754 6.01457 8.27399 6.14675 8.27399H13.6148C13.747 8.27399 13.8131 8.34044 13.8131 8.47333V12.0614C13.8131 12.1943 13.747 12.2607 13.6148 12.2607H6.14675C6.08066 12.2607 5.94848 12.3271 5.94848 12.46V15.3172C5.94848 15.4501 6.01457 15.5165 6.14675 15.5165H13.6148C13.747 15.5165 13.8791 15.6494 13.8791 15.7823V19.2374C13.8791 19.3703 13.747 19.5032 13.6148 19.5032Z" fill="#1F1F1F"/>
</g>
<g id="Group_15">
<path id="Vector_6" d="M40.1831 19.5032H28.0889C27.9567 19.5032 27.8906 19.4368 27.8906 19.3039V1.69592C27.8906 1.56303 27.9567 1.49658 28.0889 1.49658H40.2492C40.3814 1.49658 40.4475 1.56303 40.4475 1.69592V5.28396C40.4475 5.41685 40.3814 5.48329 40.2492 5.48329H32.7151C32.5829 5.48329 32.5168 5.54974 32.5168 5.68263V8.07465C32.5168 8.20754 32.5829 8.27399 32.7151 8.27399H40.1831C40.3153 8.27399 40.3814 8.34044 40.3814 8.47333V12.0614C40.3814 12.1943 40.3153 12.2607 40.1831 12.2607H32.7151C32.5829 12.2607 32.5168 12.3271 32.5168 12.46V15.3172C32.5168 15.4501 32.5829 15.5165 32.7151 15.5165H40.1831C40.3153 15.5165 40.4475 15.6494 40.4475 15.7823V19.2374C40.4475 19.3703 40.3153 19.5032 40.1831 19.5032Z" fill="#1F1F1F"/>
</g>
<g id="Group_16">
<path id="Vector_7" d="M26.4353 19.5032H15.2002C15.068 19.5032 15.002 19.4368 15.002 19.3039V1.69592C15.002 1.56303 15.068 1.49658 15.2002 1.49658H19.4299C19.5621 1.49658 19.6282 1.56303 19.6282 1.69592V15.3172C19.6282 15.4501 19.6943 15.5165 19.8264 15.5165H26.4353C26.5675 15.5165 26.6336 15.583 26.6336 15.7158V19.3039C26.6336 19.4368 26.5675 19.5032 26.4353 19.5032Z" fill="#1F1F1F"/>
</g>
<g id="Group_17">
<path id="Vector_8" d="M64.0412 19.5032H59.8115C59.6794 19.5032 59.6133 19.4368 59.6133 19.3039V1.69592C59.6133 1.56303 59.6794 1.49658 59.8115 1.49658H64.0412C64.1734 1.49658 64.2395 1.56303 64.2395 1.69592V19.3039C64.2395 19.4368 64.1734 19.5032 64.0412 19.5032Z" fill="#1F1F1F"/>
</g>
<g id="Group_18">
<path id="Vector_9" d="M74.4155 14.1214C74.4155 12.9918 72.8955 12.5267 71.1772 11.9951C68.4014 11.1313 66.1544 9.80242 66.1544 6.6795C66.1544 3.2908 69.0623 1.16455 72.499 1.16455C75.3408 1.16455 77.5878 2.36056 78.4469 4.28747C78.513 4.35392 78.4469 4.48681 78.3809 4.55326L74.9442 6.54661C74.8782 6.61306 74.746 6.54661 74.6799 6.48017C74.2173 5.61638 73.5564 5.15126 72.6311 5.15126C71.4415 5.15126 70.8467 5.81571 70.8467 6.48017C70.8467 7.67618 72.3668 7.87551 73.7546 8.27419C77.1913 9.27086 79.0417 10.5333 79.0417 14.1878C79.0417 16.8456 76.3982 19.8356 72.0363 19.8356C68.798 19.8356 66.4849 18.5067 65.3614 16.1147C65.2953 16.0483 65.3614 15.9154 65.4274 15.8489L68.798 13.8556C68.9302 13.7891 69.0623 13.8556 69.0623 13.922C69.525 15.0516 70.5163 15.7825 71.8381 15.7825C73.4242 15.9154 74.4155 15.2509 74.4155 14.1214Z" fill="#1F1F1F"/>
</g>
<g id="Group_19">
<g id="Group_20">
<path id="Vector_10" d="M84.7932 19.5032H80.5635C80.4313 19.5032 80.3652 19.4368 80.3652 19.3039V1.69592C80.3652 1.56303 80.4313 1.49658 80.5635 1.49658H84.7932C84.9254 1.49658 84.9915 1.56303 84.9915 1.69592V19.3039C84.9915 19.4368 84.8593 19.5032 84.7932 19.5032Z" fill="#1F1F1F"/>
</g>
</g>
<g id="Group_21">
<path id="Vector_11" d="M51.6828 19.5032H48.3123C48.2462 19.5032 48.1801 19.4367 48.1801 19.4367L41.2408 1.76232C41.1747 1.69588 41.2408 1.56299 41.3729 1.56299H46.2635C46.3296 1.56299 46.3957 1.62943 46.3957 1.62943L49.8984 11.7955C49.9645 11.9284 50.0967 11.9284 50.1628 11.7955L53.5994 1.69588C53.5994 1.62943 53.6655 1.62943 53.7316 1.62943H58.6221C58.7543 1.62943 58.8204 1.76232 58.7543 1.82877L51.815 19.3703C51.815 19.4367 51.7489 19.5032 51.6828 19.5032Z" fill="#1F1F1F"/>
</g>
<g id="Group_22">
<path id="Vector_12" d="M120.48 19.5032H116.316C116.25 19.5032 116.184 19.4368 116.118 19.4368L110.302 10.2673C110.17 10.068 109.906 10.2009 109.906 10.4002V19.3703C109.906 19.5032 109.839 19.5697 109.707 19.5697H105.478C105.345 19.5697 105.279 19.5032 105.279 19.3703V1.69592C105.279 1.56303 105.345 1.49658 105.478 1.49658H109.641C109.707 1.49658 109.773 1.56303 109.839 1.56303L115.655 10.7325C115.787 10.9318 116.052 10.7989 116.052 10.5996V1.69592C116.052 1.56303 116.118 1.49658 116.25 1.49658H120.48C120.612 1.49658 120.678 1.56303 120.678 1.69592V19.3039C120.678 19.4368 120.546 19.5032 120.48 19.5032Z" fill="#1F1F1F"/>
</g>
</g>
</g>
</svg>
