<svg width="95" height="28" viewBox="0 0 95 28" fill="none" xmlns="http://www.w3.org/2000/svg">
<g id="partner/emq">
<g id="Group 413">
<path id="Path 2064" d="M31.1785 9.98419V10.5096C31.1785 15.929 31.1785 21.3484 31.1785 26.7678C31.1785 27.694 30.92 27.9525 30.0037 27.9518C28.7688 27.9518 27.5332 27.9518 26.2983 27.9518C25.742 27.9518 25.5568 27.7753 25.5568 27.2267C25.554 18.5313 25.554 9.83583 25.5568 1.14081C25.5568 0.579905 25.7537 0.396674 26.3362 0.39599C27.8614 0.39599 29.3873 0.428126 30.9104 0.382296C31.2677 0.351436 31.6255 0.436319 31.9302 0.623779C32.2348 0.81124 32.4698 1.09119 32.6 1.42204C33.7409 3.68552 34.9033 5.93662 36.0553 8.19394C37.4706 10.9622 38.8886 13.7285 40.2984 16.5022C40.6087 17.1145 40.8651 17.7541 41.1761 18.4498C41.2423 18.3645 41.3035 18.2754 41.3592 18.1829C43.0698 14.7559 44.7802 11.329 46.4904 7.90202C47.5608 5.77057 48.6672 3.65671 49.7383 1.52525C49.8755 1.15692 50.1323 0.844371 50.4685 0.636138C50.8047 0.427904 51.2012 0.336019 51.5959 0.374948C53.0409 0.443351 54.4921 0.39125 55.9406 0.393986C56.5943 0.393986 56.8832 0.681869 56.8832 1.33854C56.8832 9.9118 56.8832 18.4864 56.8832 27.0624C56.9012 27.1833 56.8904 27.3067 56.8516 27.4228C56.8129 27.5388 56.7472 27.6443 56.6599 27.7307C56.5726 27.8172 56.4661 27.8821 56.3488 27.9205C56.2316 27.9588 56.107 27.9697 55.9848 27.9518C54.6893 27.9546 53.3933 27.9546 52.0969 27.9518C51.4645 27.9518 51.2869 27.7759 51.2869 27.1472C51.2869 21.6074 51.2869 16.0669 51.2869 10.5253V9.94578L51.175 9.89802C51.0902 9.99735 51.0133 10.103 50.9449 10.214C49.2403 13.4787 47.5391 16.7446 45.8414 20.0116C45.2194 21.2032 44.5975 22.3914 43.981 23.5864C43.2637 24.9826 42.4123 25.1213 40.8713 25.1152C40.6434 25.1027 40.4169 25.0737 40.1934 25.0283C39.8234 24.9665 39.475 24.8139 39.1798 24.5848C38.8846 24.3556 38.652 24.0572 38.5031 23.7164C37.2361 21.2967 35.9708 18.876 34.7071 16.4545C33.6014 14.3417 32.4956 12.2289 31.3899 10.1161C31.3597 10.0658 31.3268 10.0172 31.2912 9.9705L31.1785 9.98419Z" fill="#4357EE"/>
<path id="Path 2065" d="M88.0742 23.0418H89.9027C91.0921 23.0418 92.2814 23.0418 93.47 23.0418C94.1458 23.0418 94.3636 23.2644 94.3636 23.9313C94.3636 25.1243 94.3545 26.3165 94.3697 27.5088C94.3739 27.8378 94.2785 27.9567 93.9309 27.956C87.6644 27.9478 81.3937 28.0875 75.1341 27.9076C70.0368 27.7605 64.9223 25.2171 62.6474 19.5622C61.8651 17.5302 61.5314 15.3561 61.6688 13.1858C61.7204 9.91478 62.9868 6.77692 65.2264 4.37112C67.2022 2.31361 69.781 0.922302 72.5986 0.393488C74.5208 -0.0183505 76.4992 -0.107763 78.4512 0.129292C82.1657 0.582125 85.4219 1.98727 87.8911 4.88348C89.4214 6.6971 90.4247 8.88855 90.7936 11.2232C91.0784 12.9356 91.1049 14.6804 90.8724 16.4005C90.621 18.705 89.722 20.8934 88.2774 22.7175C88.2194 22.7887 88.1813 22.8681 88.0742 23.0418ZM76.5543 22.6658C76.9129 22.6254 77.5079 22.5972 78.0863 22.4877C79.3799 22.2927 80.6029 21.7776 81.6418 20.9901C82.6807 20.2025 83.502 19.1681 84.0294 17.9827C84.8492 16.1903 85.0905 14.1911 84.7205 12.2579C84.5669 11.1025 84.1551 9.99553 83.515 9.01743C82.8748 8.03933 82.0224 7.21491 81.0198 6.60393C79.1385 5.48566 76.9084 5.0885 74.7513 5.48802C73.7056 5.61654 72.6978 5.95751 71.7912 6.48903C70.8845 7.02055 70.0984 7.73129 69.482 8.57721C68.675 9.69573 68.131 10.9789 67.8897 12.3324C67.6484 13.6859 67.7159 15.0755 68.0874 16.3999C69.0251 20.3741 72.2213 22.596 76.5543 22.6664V22.6658Z" fill="#4357EE"/>
<path id="Path 2066" d="M0.00350727 13.9941V0.99738C0.00350727 0.396796 0.00353562 0.395508 0.585408 0.395508H19.886C20.5771 0.395508 20.7948 0.60625 20.7955 1.27661C20.7955 2.42305 20.7781 3.57072 20.8058 4.71716C20.8161 5.12758 20.6835 5.22287 20.2882 5.22151C15.8972 5.20919 11.5064 5.20653 7.1159 5.21382C6.42898 5.21382 6.42829 5.21399 6.42483 5.87682C6.42483 7.65531 6.43792 9.43931 6.41581 11.2199C6.40959 11.6706 6.53749 11.8188 7.00741 11.8167C10.5132 11.7989 14.0203 11.8134 17.526 11.799C17.9351 11.799 18.0858 11.8955 18.0789 12.3251C18.0506 13.5317 18.0526 14.7403 18.0789 15.947C18.0879 16.3533 17.9552 16.454 17.5578 16.4527C14.0521 16.4383 10.5456 16.4436 7.03845 16.4443C6.43032 16.4443 6.42898 16.4444 6.42829 17.0375C6.42829 18.8616 6.42829 20.6878 6.42829 22.5165C6.42829 23.1266 6.42832 23.1274 7.0641 23.1274H19.8245C20.5791 23.1274 20.7968 23.343 20.7968 24.0913C20.7968 25.1933 20.7782 26.2953 20.8065 27.3966C20.8169 27.8207 20.7118 27.9634 20.2536 27.962C13.7743 27.9479 7.29483 27.9447 0.815453 27.952C0.23358 27.952 0.0034553 27.7202 0.00207318 27.1237C-0.000691061 25.705 -0.000691061 24.286 0.00207318 22.8668L0.00350727 13.9941Z" fill="#4357EE"/>
</g>
</g>
</svg>
