<svg width="169" height="34" viewBox="0 0 169 34" fill="none" xmlns="http://www.w3.org/2000/svg">
<g id="finextra-logo 1" clip-path="url(#clip0_3838_166)">
<path id="Vector" d="M6.24287 3.91968V14.1879H17.6838V17.8306H6.24287L6.34869 32.8899H0V0.18457H19.0328V3.91968H6.24287Z" fill="#222222"/>
<path id="Vector_2" d="M27.6827 7.28564H21.625V32.8903H27.6827V7.28564Z" fill="#222222"/>
<path id="Vector_3" d="M27.6827 0.0922852H21.625V4.40812H27.6827V0.0922852Z" fill="#222222"/>
<path id="Vector_4" d="M48.6332 32.8901V14.5577C48.5936 11.2845 45.4987 10.0571 42.0466 10.0571C40.1684 10.0571 38.3299 10.387 37.1925 10.7962V32.7845H31.1348V8.43369C33.8197 7.37784 37.9595 6.58594 42.364 6.58594C49.7575 6.58594 54.6645 8.86924 54.6777 14.4521V32.8901H48.6332Z" fill="#222222"/>
<path id="Vector_5" d="M63.1165 22.0279C63.6984 27.0829 66.7934 29.6698 71.9914 29.6698C75.523 29.6698 78.3535 28.9042 79.9406 28.2048L81.3822 31.6627C79.3983 32.5734 75.9858 33.5104 71.4625 33.5104C62.8255 33.5104 57.2969 28.7591 57.2969 19.969C57.2969 11.5221 62.442 6.57275 70.2588 6.57275C78.1418 6.57275 82.4404 11.0734 82.4404 19.6655L63.1165 22.0279ZM70.0074 9.89872C65.8808 9.89872 62.6007 12.8947 62.7462 19.2826L76.6074 17.5141C76.6074 12.2348 74.0151 9.89872 70.0074 9.89872Z" fill="#333331" fill-opacity="0.5"/>
<path id="Vector_6" d="M102.267 32.8371L95.6276 23.0571H95.5613L88.8952 32.8371H82.4805L92.6251 19.4804L83.5651 7.23242H90.1518L96.1036 15.9565H96.1565L102.32 7.23242H108.232L98.9738 19.2033L109.185 32.8371H102.267Z" fill="#333331" fill-opacity="0.5"/>
<path id="Vector_7" d="M121.232 33.4312C115.307 33.4312 113.045 29.9469 113.045 26.4757V10.5454H109.104V7.28544H113.045V1.5178L119.103 0V7.28544H124.578V10.5454H119.103V26.1853C119.063 28.2046 120.373 29.7753 122.912 29.7753C123.494 29.7753 124.578 29.5113 124.578 29.5113V32.9033C123.983 33.1409 122.78 33.4312 121.232 33.4312Z" fill="#333331" fill-opacity="0.5"/>
<path id="Vector_8" d="M141.59 10.6114C139.157 9.9383 135.718 10.0439 134.038 10.8358V32.8373H127.98V8.4205C130.97 7.24586 134.435 6.57275 140.004 6.57275C140.996 6.57275 142.265 6.67834 142.9 6.71793L141.59 10.6114Z" fill="#333331" fill-opacity="0.5"/>
<path id="Vector_9" d="M154.513 33.4971C146.233 33.4971 142.344 30.5012 142.344 25.6178C142.344 18.7415 150.28 16.8937 159.698 16.1415V14.6765C159.698 11.1393 157.052 10.1098 153.203 10.1098C150.465 10.1098 147.344 10.8093 145.559 11.5881L144.17 8.46007C146.127 7.69457 149.844 6.6123 154.314 6.6123C160.558 6.6123 165.371 8.92201 165.358 15.4816V31.6626C162.978 32.7449 159.169 33.4971 154.513 33.4971ZM159.698 18.7019C152.728 19.3618 148.031 20.5628 148.031 25.4858C148.031 28.9438 150.73 30.4352 154.963 30.4352C156.946 30.4352 158.639 30.0392 159.698 29.5509V18.7019Z" fill="#333331" fill-opacity="0.5"/>
<path id="Vector_10" d="M166.216 7.07439C164.828 7.07439 163.717 5.95254 163.717 4.57992C163.717 3.19409 164.841 2.08545 166.216 2.08545C167.592 2.08545 168.716 3.2073 168.716 4.57992C168.716 5.95254 167.592 7.07439 166.216 7.07439ZM166.216 2.49459C165.066 2.49459 164.153 3.43167 164.153 4.57992C164.153 5.71496 165.066 6.65204 166.216 6.65204C167.368 6.65204 168.28 5.72817 168.28 4.57992C168.28 3.43167 167.368 2.49459 166.216 2.49459ZM166.733 5.96573L165.899 4.7251H165.833V5.96573H165.384V3.22049C165.581 3.12811 165.833 3.06212 166.111 3.06212C166.759 3.06212 167.13 3.41847 167.13 3.89361C167.13 4.35555 166.812 4.61951 166.376 4.6855L167.288 5.96573H166.733ZM166.071 3.41847C165.979 3.41847 165.887 3.43167 165.82 3.45807V4.42153H166.005C166.402 4.42153 166.666 4.28956 166.666 3.89361C166.666 3.51085 166.336 3.41847 166.071 3.41847Z" fill="#222222"/>
</g>
<defs>
<clipPath id="clip0_3838_166">
<rect width="169" height="34" fill="white"/>
</clipPath>
</defs>
</svg>
