<svg width="114" height="38" viewBox="0 0 114 38" fill="none" xmlns="http://www.w3.org/2000/svg">
<g id="logo GCC">
<path id="Vector" d="M106.888 19.4572C106.388 19.2202 105.832 19.0758 105.219 19.0621H101.369C100.729 19.0621 100.658 19.0472 100.658 19.6997V26.1016C100.673 26.7664 100.686 26.8127 101.049 27.1887H96.7286C97.151 26.8005 97.1455 26.7814 97.1673 26.3495V19.8087C97.1673 19.103 97.2273 19.0608 96.4684 19.0608H92.433C91.4862 19.0608 91.5162 19.0417 90.6347 19.4123L91.2069 17.7093H106.355L106.888 19.4572ZM90.1279 27.1887H74.9769L74.1853 25.5239C74.8461 25.7446 75.0082 25.7964 75.7003 25.8318H79.9795C80.722 25.8318 80.673 25.8468 80.6702 25.0839L80.673 19.6984C80.6702 19.0281 80.7697 19.0608 80.0858 19.0608H76.5381C75.3924 19.0608 75.4564 19.039 74.4074 19.5022L74.9782 17.7093H89.7791L90.2423 19.3441C89.5244 19.0022 89.5434 19.0608 88.7478 19.0608H84.7465C84.237 19.0608 84.1675 19.088 84.1675 19.5894V25.2351C84.1675 25.8999 84.0939 25.8318 84.7274 25.8318H89.1007C89.6347 25.8318 90.2151 25.7324 90.7451 25.6111L90.1279 27.1887ZM73.9796 27.1887H70.6036C70.2494 27.1887 70.1009 27.1887 70.1009 26.4272V19.9749C70.1036 19.058 69.9211 19.0621 69.0886 19.0621H67.4211C66.3462 19.0621 65.9988 18.9531 65.9988 20.2692V26.3018C66.0424 26.7637 66.2467 27.0253 66.4361 27.1901H63.2277C62.4538 27.1901 62.5042 27.1833 62.5042 26.3195V20.5757C62.5042 19.1262 62.4974 19.0608 61.3585 19.0608H59.2495C58.2618 19.0608 57.9116 19.1207 57.9116 20.1752V25.8836C57.9116 26.5443 58.0016 26.5852 58.2877 27.1887H57.6215H55.0057C54.3872 27.1887 54.4158 26.8468 54.4158 26.1479V19.0935C54.4185 17.4477 54.5806 17.7107 56.2141 17.7107H71.7684C73.5559 17.7107 73.5831 17.8006 73.5859 19.6248L73.5831 25.8141C73.5886 26.5893 73.6145 26.5076 73.9796 27.1887ZM53.334 27.1887L40.7525 27.1424C38.916 27.1424 38.1898 27.4135 38.1898 25.543V19.2188C38.1898 17.4014 38.6176 17.663 40.405 17.663L53.3327 17.7093L53.5316 19.6534C52.8994 19.0853 52.7659 19.0608 51.9294 19.0608H43.2156C42.3437 19.0608 41.8928 19.163 41.89 20.0512L41.8805 20.9204C41.8682 21.9013 41.9513 21.7774 42.9118 21.7774H52.0629C52.8654 21.7774 52.958 21.7624 53.646 21.3332L53.3327 23.1316H43.1979C41.9432 23.1316 41.89 22.9013 41.89 24.122L41.8928 24.7092C41.8928 26.0757 41.8682 25.8332 43.2538 25.8332H52.3708C52.7564 25.8645 53.3231 25.6901 53.5997 25.5389L53.334 27.1887ZM34.946 20.6193V19.7978C34.9405 18.9831 34.946 19.1166 34.1258 19.0608H26.5987C25.6355 19.0608 25.4406 19.0417 25.4406 20.0104V20.8455C25.4406 21.9204 25.6014 21.7774 26.6436 21.7774H33.322C33.5645 21.7774 33.8166 21.7774 33.9923 21.7774C34.9119 21.7774 34.9187 21.6343 34.946 20.6193ZM37.3683 27.1887H32.3452C32.3793 27.0389 32.2485 26.7664 31.8479 26.4326C30.6368 25.4326 28.0891 23.5348 27.5605 23.1316H25.442V26.0552C25.442 26.6302 25.4584 26.652 25.66 27.1942H22.1968C22.0143 26.6165 21.957 26.5484 21.957 25.9463V19.7461C21.957 17.9981 22.7404 17.7107 24.3862 17.7107H35.1313C36.762 17.7107 37.104 17.9804 37.1067 19.6125L37.104 21.4545C37.104 23.1275 36.8465 23.1316 35.0877 23.1316H31.3561C32.9678 24.291 34.5904 25.4463 36.2048 26.607C36.54 26.9204 36.8479 27.0144 37.3683 27.1887Z" fill="#2E368E"/>
<path id="Vector_2" d="M38.8751 10.6455C38.4827 11.2694 38.435 11.4615 38.435 12.0991V14.3975C38.435 15.5473 38.4936 15.7326 38.8111 16.2312H35.6885L35.5699 15.3675H35.5441C35.3833 15.9111 35.2498 16.2312 34.2484 16.2312H24.314C22.8017 16.2312 21.957 15.501 21.957 13.4969V9.65774C21.957 7.65095 22.8017 6.9248 24.314 6.9248H37.9187L38.1925 8.71361C37.7974 8.56511 37.4473 8.46566 36.7661 8.46566H26.2049C25.739 8.46566 25.5088 8.61143 25.5088 9.05829L25.506 14.0937C25.5088 14.5432 25.739 14.6863 26.2049 14.6863H34.1967C34.6599 14.6863 34.8915 14.5432 34.8928 14.0937L34.8901 12.1863H26.7649C26.506 12.1863 26.348 12.2735 26.1709 12.3607V10.6455H38.8751Z" fill="#0AAA4D"/>
<path id="Vector_3" d="M55.5713 8.71361C55.1789 8.57056 54.8288 8.46566 54.1462 8.46566H44.803C44.3398 8.46566 44.1041 8.61143 44.1068 9.05829V14.0937C44.1068 14.5378 44.3398 14.6863 44.803 14.6863H53.6054C55.0304 14.6863 55.2661 14.5841 55.7457 14.3362L55.4378 16.2312H42.912C41.4025 16.2312 40.5605 15.501 40.5605 13.4969V9.65774C40.5605 7.65095 41.3998 6.9248 42.912 6.9248H55.2947L55.5713 8.71361Z" fill="#0AAA4D"/>
<path id="Vector_4" d="M72.4736 8.71361C72.0853 8.56511 71.7338 8.46566 71.0513 8.46566H61.7108C61.2421 8.46566 61.0092 8.61143 61.0092 9.05829V14.0937C61.0119 14.5378 61.2421 14.6863 61.7108 14.6863H70.5145C71.9396 14.6863 72.1698 14.5841 72.648 14.3362L72.3469 16.2312H59.8171C58.3048 16.2312 57.4629 15.501 57.4629 13.4969V9.65774C57.4629 7.65095 58.3035 6.9248 59.8171 6.9248H72.1984L72.4736 8.71361Z" fill="#0AAA4D"/>
<path id="Vector_5" d="M27.4314 28.0896C24.5527 30.7353 20.7026 32.3538 16.4779 32.3538C7.54474 32.3538 0.296875 25.1169 0.296875 16.1769C0.296875 7.24242 7.54474 0 16.4779 0C22.174 0 25.6971 1.49045 29.0622 5.70565H28.3565C26.1767 2.83512 22.595 1.06811 19.407 1.06811C11.6632 1.06811 5.37856 7.60754 5.37856 15.6769C5.37856 23.749 11.6632 30.2912 19.4125 30.2912C22.0214 30.2912 24.7652 29.3525 26.8579 28.061L27.4314 28.0896Z" fill="#2E368E"/>
<path id="Vector_6" d="M19.3923 2.43408C11.1322 5.30735 3.48242 9.45171 3.48242 9.45171L4.18814 10.9026C4.18814 10.9026 12.1744 7.46127 19.549 2.75697L19.3923 2.43408Z" fill="#2E368E"/>
<path id="Vector_7" d="M2.1196 16.14C2.1196 16.14 16.5213 9.64142 23.8918 4.93303L23.7392 4.60742C15.4764 7.48341 1.41797 14.685 1.41797 14.685L2.1196 16.14Z" fill="#2E368E"/>
<path id="Vector_8" d="M4.4856 19.334C4.4856 19.334 12.4773 15.8981 19.8492 11.1883L19.6939 10.8613C11.431 13.7414 3.78125 17.8844 3.78125 17.8844L4.4856 19.334Z" fill="#2E368E"/>
<path id="Vector_9" d="M4.63327 23.5498C4.63327 23.5498 12.6223 20.1084 19.9996 15.4028L19.8443 15.0771C11.576 17.9531 3.93164 22.0934 3.93164 22.0934L4.63327 23.5498Z" fill="#2E368E"/>
<path id="Vector_10" d="M5.44459 27.3998C5.44459 27.3998 13.4336 23.9612 20.8054 19.2528L20.6447 18.9326C12.3859 21.8086 4.74023 25.9516 4.74023 25.9516L5.44459 27.3998Z" fill="#2E368E"/>
<path id="Vector_11" d="M9.36579 29.8824C12.2145 28.456 15.8167 26.5214 19.2785 24.3089L19.1259 23.9888C15.175 25.3552 11.3726 27.0242 8.4707 28.3838L9.36579 29.8824Z" fill="#2E368E"/>
<path id="Vector_12" d="M14.3693 31.6158C16.3202 30.5531 18.4101 29.3515 20.4482 28.0436L20.2902 27.7207C17.6376 28.6458 15.0437 29.6989 12.748 30.703L14.3693 31.6158Z" fill="#2E368E"/>
<path id="Vector_13" d="M27.4166 28.0893C24.0896 31.1096 20.1442 32.4284 16.057 32.4284C7.18793 32.4284 0 25.2405 0 16.37C0 11.5063 2.15937 7.15353 5.57214 4.20534C8.38546 1.77893 12.0339 0.0146484 16.0393 0.0146484L16.0707 0.0732309C9.15929 1.03643 3.57625 8.07722 3.57625 15.8741C3.57625 24.3291 10.3922 31.3126 18.1565 31.3126C21.2572 31.3126 24.0706 30.6315 27.3348 28.0906H27.4166" fill="#0AAA4D"/>
<g id="Group">
<path id="Vector_14" d="M39.7277 30.0473L40.1937 34.7679H40.2277L43.5083 30.0473H45.4089L45.3721 30.1617H45.2141C44.8721 30.1617 44.6364 30.2257 44.5029 30.3565C44.3721 30.4819 44.2795 30.6317 44.2318 30.7966L42.7849 35.5526C42.7877 35.5622 42.7849 35.5717 42.7822 35.5799C42.7795 35.5894 42.7754 35.599 42.7699 35.614C42.7699 35.6262 42.7645 35.6453 42.7604 35.6671C42.755 35.6862 42.7481 35.7039 42.7509 35.7189C42.7454 35.7338 42.7413 35.7447 42.7413 35.7597C42.7413 35.7693 42.7413 35.787 42.7413 35.8061C42.7481 35.8987 42.7917 35.9832 42.8776 36.0676C42.9607 36.1453 43.1296 36.1807 43.3844 36.1807H43.5547L43.5179 36.2992H40.601L40.6378 36.1807H40.7986C41.131 36.1807 41.3667 36.1208 41.5097 35.9913C41.6487 35.8674 41.7427 35.7175 41.789 35.5526L43.056 31.3783H43.0124L39.5956 36.3006H39.3817L38.9008 31.3769H38.864L37.612 35.445C37.6024 35.4818 37.5902 35.52 37.5779 35.5663C37.5656 35.6071 37.5561 35.6439 37.5534 35.6848C37.5507 35.7011 37.5479 35.7161 37.5466 35.7393C37.5438 35.7584 37.5411 35.7802 37.5411 35.8047C37.5438 35.9069 37.5847 35.9913 37.6692 36.069C37.7591 36.1439 37.9267 36.1807 38.1842 36.1807H38.3545L38.3109 36.2992H35.9648L36.0016 36.1807H36.1597C36.5112 36.1807 36.755 36.1071 36.8872 35.96C37.0207 35.8088 37.1201 35.6398 37.1787 35.445L38.5888 30.7952C38.5861 30.7898 38.5888 30.7857 38.5915 30.7748C38.597 30.768 38.5983 30.7584 38.6065 30.753C38.6133 30.7244 38.616 30.693 38.6256 30.6603C38.631 30.629 38.6324 30.5881 38.631 30.5513C38.631 30.5459 38.631 30.5364 38.6337 30.5323C38.631 30.5227 38.631 30.5159 38.6337 30.5105C38.6188 30.4233 38.5724 30.3456 38.4934 30.2693C38.409 30.2012 38.2387 30.1603 37.9934 30.1603H37.8313L37.8681 30.0459H39.7277V30.0473Z" fill="#221F1F"/>
<path id="Vector_15" d="M48.1355 32.4328C48.4052 32.6849 48.5415 33.0636 48.5415 33.5663C48.5415 34.3361 48.2908 34.9791 47.7935 35.4859C47.2935 36.0009 46.7431 36.2938 46.141 36.366C46.0919 36.3715 46.0456 36.3756 46.0047 36.381C45.9584 36.381 45.9121 36.381 45.8658 36.381C45.4489 36.381 45.1451 36.2625 44.9557 36.02C44.7636 35.772 44.6451 35.5009 44.5974 35.2026C44.5919 35.1344 44.5906 35.0718 44.581 35.0009C44.5756 34.9369 44.5742 34.877 44.5742 34.8143C44.5742 34.7176 44.5797 34.6208 44.5933 34.5173C44.6028 34.4233 44.6246 34.3225 44.6546 34.2216C44.7908 33.6808 45.0837 33.1849 45.5333 32.7298C45.9829 32.2789 46.5047 32.0527 47.1055 32.0527C47.521 32.0527 47.863 32.1808 48.1355 32.4328ZM46.9924 32.3211C46.9557 32.3266 46.9175 32.3361 46.8835 32.3511C46.5388 32.4546 46.2159 32.7584 45.9175 33.2544C45.6233 33.7544 45.4489 34.2898 45.4012 34.8729C45.4012 34.9137 45.4012 34.956 45.3957 35.0023C45.3957 35.0432 45.3957 35.0895 45.3957 35.1358C45.3957 35.1889 45.3957 35.2598 45.3957 35.3374C45.4012 35.4124 45.4107 35.4873 45.4298 35.5745C45.4516 35.7175 45.5047 35.8456 45.5919 35.96C45.6764 36.0758 45.8153 36.1303 45.9993 36.1303C46.3194 36.1303 46.6042 35.9709 46.8494 35.6399C47.0973 35.3102 47.2935 34.9437 47.4339 34.5432C47.5279 34.2966 47.6014 34.0582 47.6478 33.8279C47.6968 33.595 47.7186 33.4001 47.7186 33.2503C47.7186 33.2135 47.7159 33.1481 47.7131 33.065C47.7063 32.9846 47.6913 32.8933 47.6668 32.8061C47.63 32.6822 47.5728 32.5664 47.4897 32.4669C47.4052 32.3647 47.2758 32.3143 47.1042 32.3143C47.0674 32.3116 47.0333 32.317 46.9924 32.3211Z" fill="#221F1F"/>
<path id="Vector_16" d="M50.4201 33.8728H50.4596C50.5372 33.7706 50.6217 33.6616 50.7171 33.5431C50.8138 33.4246 50.9146 33.3047 51.0209 33.1821C51.1571 33.0322 51.3002 32.8878 51.4432 32.7447C51.5917 32.6044 51.7389 32.4804 51.8928 32.3742C52.0263 32.2788 52.1571 32.1984 52.2865 32.1467C52.4201 32.0908 52.544 32.0608 52.6626 32.0608C52.8519 32.0608 52.9895 32.1208 53.0672 32.2379C53.1503 32.3524 53.1884 32.4968 53.1884 32.6766C53.1884 32.7693 53.183 32.8469 53.1707 32.915C53.1557 32.9886 53.1421 33.0581 53.1244 33.1221C53.1149 33.1589 53.0999 33.193 53.0958 33.2216C53.0863 33.2597 53.074 33.2965 53.0617 33.3333L52.3914 35.5635C52.3887 35.5812 52.3846 35.5948 52.3846 35.6044C52.3846 35.6153 52.3846 35.6316 52.3778 35.6534C52.3751 35.6589 52.3751 35.6684 52.3751 35.6739C52.3751 35.6834 52.3806 35.6929 52.3846 35.6957C52.3914 35.7202 52.4037 35.7393 52.4255 35.757C52.4446 35.772 52.4746 35.7788 52.51 35.7788C52.544 35.7788 52.5781 35.772 52.6135 35.7624C52.653 35.7474 52.6871 35.7256 52.7211 35.697C52.7593 35.6752 52.7961 35.648 52.8356 35.618C52.8724 35.5785 52.9105 35.5472 52.9473 35.5158C52.9882 35.4695 53.025 35.4245 53.0617 35.3823C53.0985 35.3414 53.1244 35.3101 53.1421 35.2856L53.2688 35.3878C53.2307 35.4327 53.1912 35.4654 53.1721 35.4913C53.1476 35.5213 53.1285 35.5431 53.1067 35.5662L53.0999 35.5717C53.0944 35.5771 53.0876 35.5839 53.0754 35.5989C53.0686 35.6085 53.0577 35.6207 53.0481 35.6398C53.0113 35.6766 52.9677 35.727 52.9146 35.7801C52.8656 35.836 52.8111 35.8973 52.7525 35.9532C52.6462 36.0581 52.5222 36.1589 52.386 36.2393C52.2498 36.3264 52.1122 36.3782 51.9786 36.3878C51.9637 36.3878 51.9541 36.3878 51.9473 36.3878C51.9351 36.3878 51.931 36.3878 51.9255 36.3878C51.8111 36.3878 51.7266 36.366 51.6776 36.3251C51.6258 36.2788 51.5931 36.2229 51.5727 36.1643C51.5604 36.1357 51.5563 36.1085 51.5536 36.0744C51.5495 36.0431 51.5495 36.0158 51.5495 35.9927C51.5495 35.915 51.5536 35.8469 51.5618 35.791C51.5713 35.7379 51.5863 35.6861 51.6013 35.6412C51.6013 35.6262 51.604 35.6194 51.6081 35.6044C51.6108 35.5894 51.6149 35.5771 51.6203 35.5676L52.2607 33.4396C52.2797 33.3837 52.2974 33.3224 52.3111 33.2597C52.3261 33.1957 52.3356 33.1262 52.3329 33.054C52.3329 33.0445 52.3329 33.0295 52.3329 33.0227C52.3356 33.0172 52.3329 33.0036 52.3356 32.9941C52.3261 32.9164 52.3111 32.8428 52.2852 32.7843C52.2579 32.7243 52.2021 32.6916 52.1203 32.6916C52.0059 32.6916 51.8697 32.7556 51.7103 32.8892C51.5509 33.0227 51.3847 33.1875 51.2103 33.3783C51.1299 33.4709 51.055 33.5622 50.9773 33.6589C50.8996 33.7543 50.8274 33.851 50.7566 33.945C50.5768 34.1902 50.4214 34.4287 50.2879 34.648C50.1517 34.8714 50.0727 35.0295 50.04 35.1235L49.6858 36.3033H48.916L49.9977 32.7216C49.995 32.7161 49.9977 32.712 50.0032 32.7066C50.0059 32.6971 50.0059 32.6943 50.0059 32.6889C50.0059 32.6794 50.0059 32.6644 50.0127 32.6507C50.0127 32.6344 50.0155 32.6249 50.0127 32.6194C50.0059 32.5567 49.9787 32.5009 49.9255 32.4641C49.8724 32.4273 49.7988 32.4082 49.7116 32.4082C49.6926 32.4082 49.6749 32.4082 49.6585 32.4082C49.6394 32.4082 49.6217 32.4137 49.6027 32.4178C49.5727 32.4178 49.5441 32.4232 49.5155 32.4273C49.4869 32.4328 49.4596 32.4368 49.4351 32.4477L49.4065 32.317L50.9759 32.0581L50.4201 33.8728Z" fill="#221F1F"/>
<path id="Vector_17" d="M57.2002 35.3305C56.8487 35.7311 56.5054 36.0049 56.1757 36.1575C55.8474 36.3087 55.5272 36.3809 55.2166 36.3809C54.7602 36.3809 54.4346 36.2379 54.2425 35.9518C54.049 35.6657 53.9414 35.3441 53.925 34.9913C53.9223 34.9736 53.925 34.9545 53.925 34.9368C53.925 34.9123 53.925 34.9014 53.925 34.8809C53.9223 34.7842 53.9319 34.6916 53.9468 34.5962C53.9618 34.5036 53.9809 34.4068 54.0027 34.3128C54.1607 33.7474 54.4904 33.2256 54.9959 32.757C55.5 32.2842 56.0558 32.0513 56.6648 32.0513C56.7152 32.0513 56.7765 32.0554 56.8473 32.0581C56.9223 32.0622 56.9972 32.0772 57.0749 32.1017C57.2084 32.1385 57.3364 32.2011 57.4577 32.3074C57.5762 32.4109 57.6348 32.5717 57.6321 32.7924C57.6348 33.2924 57.3487 33.6998 56.7751 34.0131C56.2043 34.3237 55.5449 34.4981 54.7942 34.5349C54.7847 34.5758 54.7752 34.6262 54.7697 34.6834C54.7629 34.7311 54.7602 34.7869 54.7629 34.8482C54.7602 34.8741 54.7629 34.8986 54.7656 34.9259C54.7697 34.9477 54.7697 34.9777 54.7697 35.0036C54.7915 35.2093 54.8746 35.3986 55.0149 35.5689C55.1553 35.7406 55.3814 35.8237 55.6989 35.8237C55.8705 35.8237 56.0776 35.7869 56.3133 35.7147C56.5503 35.6411 56.8078 35.4763 57.0871 35.2093L57.2002 35.3305ZM56.237 33.8142C56.6471 33.5376 56.8487 33.1902 56.8487 32.7679C56.8487 32.6398 56.8201 32.5322 56.7533 32.4505C56.6879 32.3728 56.5858 32.3319 56.4495 32.3319C56.3746 32.3319 56.2901 32.3524 56.2043 32.3878C56.1171 32.4246 56.0299 32.475 55.94 32.5431C55.7261 32.7039 55.5231 32.9382 55.3283 33.2325C55.1362 33.5281 54.9891 33.8414 54.8869 34.167C54.8869 34.1861 54.8869 34.1984 54.8842 34.2134C54.8801 34.2229 54.8773 34.2324 54.8692 34.2447C55.3678 34.2324 55.8269 34.088 56.237 33.8142Z" fill="#221F1F"/>
<path id="Vector_18" d="M59.2627 36.4491L58.9957 33.4505C58.9889 33.3974 58.9807 33.3361 58.9739 33.268C58.9711 33.2067 58.9589 33.1386 58.9494 33.0636C58.9126 32.8988 58.8526 32.7489 58.7654 32.6099C58.6782 32.4737 58.5352 32.4042 58.3336 32.4042C58.309 32.4042 58.2831 32.4042 58.2532 32.4097C58.2218 32.4138 58.1932 32.4192 58.166 32.4247C58.1469 32.4247 58.1292 32.4247 58.1156 32.4301C58.1006 32.4301 58.087 32.4356 58.0761 32.4356C58.057 32.4397 58.042 32.4451 58.0297 32.4478C58.0175 32.4478 58.0079 32.4533 57.9957 32.4533L57.9766 32.3143L59.4562 32.0555C59.4616 32.0595 59.4711 32.0677 59.4711 32.0718C59.4711 32.0759 59.478 32.0813 59.4834 32.0868C59.5856 32.2339 59.6578 32.3988 59.6973 32.5718C59.7382 32.7516 59.775 33.0078 59.8036 33.3538L60.0025 35.6058C60.4834 35.0037 60.8322 34.5186 61.0461 34.1467C61.2572 33.7734 61.403 33.5187 61.4711 33.3756C61.4861 33.3565 61.4956 33.3347 61.4997 33.3198C61.5052 33.3034 61.5147 33.283 61.527 33.2707C61.5324 33.2462 61.5392 33.2203 61.546 33.1876C61.5488 33.1535 61.5515 33.1168 61.5515 33.0718C61.5515 33.0405 61.5515 33.0187 61.5488 33.0037C61.546 32.9901 61.5365 32.9723 61.5174 32.9574C61.4997 32.9424 61.4738 32.9356 61.4425 32.9151C61.4084 32.9001 61.3621 32.8783 61.3063 32.847C61.2136 32.8007 61.151 32.7448 61.1074 32.6862C61.0665 32.6208 61.0461 32.5486 61.0461 32.456C61.0461 32.3266 61.0924 32.2326 61.1823 32.1617C61.2763 32.0936 61.3785 32.0568 61.4902 32.0527C61.497 32.0527 61.5025 32.0527 61.5052 32.0527C61.5052 32.0527 61.5147 32.0527 61.5174 32.0527C61.685 32.0527 61.8185 32.1154 61.9153 32.2394C62.0147 32.3579 62.0638 32.5064 62.0638 32.6753C62.0638 32.8525 61.9807 33.0977 61.824 33.4083C61.6619 33.7162 61.467 34.0418 61.2409 34.377C61.1905 34.4546 61.1346 34.5377 61.0788 34.6195C61.0202 34.6971 60.9643 34.7789 60.9016 34.8579C60.6837 35.1753 60.4725 35.4587 60.2681 35.7162C60.0692 35.9682 59.9207 36.1521 59.8308 36.257C59.2028 36.9873 58.7559 37.4587 58.4889 37.6698C58.2259 37.881 57.9984 37.9927 57.8158 37.9995C57.8118 37.9995 57.8036 37.9995 57.794 37.9995C57.7845 37.9995 57.775 37.9995 57.7723 37.9995C57.6169 37.9995 57.4957 37.9627 57.403 37.8865C57.3159 37.8088 57.2723 37.7012 57.2695 37.5731C57.2723 37.5513 57.2736 37.52 57.2818 37.4777C57.2845 37.441 57.3009 37.4001 57.3159 37.3538C57.3472 37.2884 57.3935 37.2352 57.4589 37.1794C57.5216 37.1235 57.6238 37.0963 57.7518 37.0963C57.7832 37.0963 57.8077 37.1017 57.8349 37.1017C57.8567 37.1058 57.884 37.114 57.9112 37.1235C57.9385 37.1385 57.9643 37.1535 57.9916 37.1739C58.0161 37.1984 58.0434 37.2243 58.0665 37.2611C58.0733 37.2666 58.0788 37.2707 58.0788 37.2734C58.0842 37.2802 58.0842 37.2884 58.0842 37.2925C58.1033 37.3143 58.1237 37.3333 58.1428 37.3524C58.1646 37.3687 58.1919 37.3742 58.2273 37.3742C58.2736 37.3742 58.3458 37.3374 58.4357 37.2693C58.5284 37.1957 58.6251 37.1044 58.7286 37.0023C58.7409 36.9873 58.76 36.9709 58.7804 36.9519C58.7995 36.9396 58.8172 36.9151 58.8335 36.8933C58.933 36.8006 59.0256 36.708 59.106 36.6167C59.1864 36.5241 59.2395 36.4655 59.2641 36.4369V36.4491H59.2627Z" fill="#221F1F"/>
<path id="Vector_19" d="M66.4233 35.5605C66.4233 35.57 66.4233 35.5782 66.4179 35.5877C66.4152 35.5973 66.4138 35.6027 66.4152 35.6123C66.4124 35.6136 66.4124 35.6136 66.4152 35.6191C66.4124 35.6245 66.4124 35.6286 66.4152 35.6341C66.4124 35.6381 66.4152 35.6436 66.4152 35.6504L66.4124 35.6599C66.4152 35.6654 66.4124 35.6695 66.4124 35.679C66.4152 35.6886 66.4165 35.6954 66.422 35.7104C66.4302 35.7253 66.437 35.7417 66.4506 35.7567C66.4697 35.7662 66.4969 35.773 66.5351 35.773C66.5623 35.773 66.5814 35.773 66.6059 35.7703C66.625 35.7649 66.6427 35.7648 66.6645 35.7608C66.7149 35.7376 66.7789 35.6899 66.847 35.6177C66.922 35.5496 67.0282 35.4352 67.1727 35.2771L67.2898 35.3793C67.2653 35.4079 67.238 35.4352 67.2122 35.4719C67.1863 35.5087 67.1563 35.536 67.1291 35.5646C66.9669 35.7512 66.7966 35.9215 66.6127 36.0836C66.4329 36.2417 66.2517 36.3384 66.0664 36.3752C66.0487 36.3752 66.0269 36.3752 66.0078 36.3806C65.9887 36.3806 65.9683 36.3806 65.952 36.3806C65.937 36.3806 65.9302 36.3806 65.9206 36.3806C65.9111 36.3806 65.8988 36.3806 65.8866 36.3806C65.8062 36.3711 65.734 36.3398 65.6631 36.2812C65.5991 36.2253 65.5664 36.1286 65.5664 35.9856C65.5664 35.942 65.5719 35.8861 65.5814 35.8207C65.5909 35.7567 65.6127 35.6695 65.6468 35.5605L66.5037 32.7172C66.5064 32.7118 66.5064 32.7077 66.5092 32.7022C66.5133 32.6927 66.5133 32.69 66.5133 32.6845C66.5133 32.675 66.5133 32.66 66.5173 32.6464C66.5201 32.63 66.5201 32.6205 66.5201 32.615C66.5173 32.5524 66.486 32.4965 66.4329 32.4597C66.3797 32.4229 66.3048 32.4039 66.219 32.4039C66.1999 32.4039 66.1795 32.4039 66.1631 32.4039C66.1441 32.4039 66.1291 32.4093 66.1114 32.4134C66.08 32.4134 66.0528 32.4188 66.0187 32.4229C65.9901 32.4284 65.9629 32.4325 65.9383 32.4434L65.922 32.3126L67.4833 32.0537L66.4233 35.5605ZM66.9792 30.5156C67.0528 30.4379 67.1386 30.3862 67.2271 30.3576C67.2517 30.3548 67.2707 30.3507 67.2925 30.3453C67.3143 30.3398 67.3361 30.3398 67.3579 30.3398C67.4942 30.3398 67.6127 30.3862 67.7122 30.4856C67.8089 30.5783 67.8607 30.69 67.8607 30.8112C67.8607 30.9352 67.8089 31.0469 67.7149 31.1409C67.6154 31.2336 67.4969 31.284 67.3607 31.284C67.3389 31.284 67.3143 31.2785 67.2925 31.2785C67.2735 31.2731 67.2517 31.2731 67.2271 31.2635C67.14 31.2363 67.0528 31.1859 66.9792 31.1082C66.8988 31.036 66.8607 30.9338 66.8607 30.8099C66.8607 30.69 66.8988 30.5892 66.9792 30.5156Z" fill="#221F1F"/>
<path id="Vector_20" d="M69.3662 33.8728H69.403C69.4779 33.7706 69.5651 33.6616 69.6604 33.5431C69.7544 33.4246 69.8539 33.3047 69.9629 33.1821C70.0991 33.0322 70.2395 32.8878 70.388 32.7447C70.531 32.6044 70.6822 32.4804 70.8375 32.3742C70.9683 32.2788 71.0991 32.1984 71.2299 32.1467C71.3607 32.0908 71.4847 32.0608 71.6032 32.0608C71.7953 32.0608 71.9315 32.1208 72.0119 32.2379C72.0923 32.3524 72.1304 32.4968 72.1332 32.6766C72.1304 32.7693 72.1264 32.8469 72.1155 32.915C72.1032 32.9886 72.0868 33.0581 72.0664 33.1221C72.0569 33.1589 72.0473 33.193 72.0378 33.2216C72.0283 33.2597 72.0187 33.2965 72.0065 33.3333L71.3362 35.5635C71.3321 35.5812 71.3294 35.5948 71.3294 35.6044C71.3294 35.6153 71.3239 35.6316 71.3171 35.6534C71.3226 35.6589 71.3171 35.6684 71.3225 35.6739C71.3225 35.6834 71.3253 35.6929 71.3294 35.6957C71.3348 35.7202 71.3484 35.7393 71.3661 35.757C71.3907 35.772 71.4166 35.7788 71.4506 35.7788C71.4888 35.7788 71.5255 35.772 71.5596 35.7624C71.5964 35.7474 71.6332 35.7256 71.6672 35.697C71.704 35.6752 71.7394 35.648 71.7789 35.618C71.8198 35.5785 71.8566 35.5472 71.8907 35.5158C71.9315 35.4695 71.971 35.4245 72.0065 35.3823C72.0405 35.3414 72.0705 35.3101 72.0868 35.2856L72.2108 35.3878C72.17 35.4327 72.1386 35.4654 72.1168 35.4913C72.0896 35.5213 72.0705 35.5431 72.0514 35.5662L72.0446 35.5717C72.0378 35.5771 72.0323 35.5839 72.0201 35.5989C72.0133 35.6085 71.9983 35.6207 71.9915 35.6398C71.952 35.6766 71.9111 35.727 71.8634 35.7801C71.8103 35.836 71.7558 35.8973 71.6958 35.9532C71.5909 36.0581 71.4683 36.1589 71.3321 36.2393C71.1945 36.3264 71.0583 36.3782 70.9193 36.3878C70.907 36.3878 70.8975 36.3878 70.8907 36.3878C70.8811 36.3878 70.8716 36.3878 70.8689 36.3878C70.7544 36.3878 70.6727 36.366 70.6236 36.3251C70.5746 36.2788 70.5378 36.2229 70.5187 36.1643C70.5065 36.1357 70.4997 36.1085 70.4942 36.0744C70.4942 36.0431 70.4915 36.0158 70.4915 35.9927C70.4915 35.915 70.4969 35.8469 70.5065 35.791C70.5133 35.7379 70.5256 35.6861 70.5446 35.6412C70.5446 35.6262 70.5474 35.6194 70.5501 35.6044C70.5528 35.5894 70.5569 35.5771 70.5651 35.5676L71.2054 33.4396C71.2217 33.3837 71.2367 33.3224 71.2558 33.2597C71.2708 33.1957 71.2776 33.1262 71.2776 33.054C71.2776 33.0445 71.2776 33.0295 71.2776 33.0227C71.2776 33.0172 71.2776 33.0036 71.2776 32.9941C71.2721 32.9164 71.2531 32.8428 71.2272 32.7843C71.1999 32.7243 71.1468 32.6916 71.0623 32.6916C70.9506 32.6916 70.813 32.7556 70.6495 32.8892C70.4888 33.0227 70.3239 33.1875 70.1536 33.3783C70.0732 33.4709 69.9983 33.5622 69.9207 33.6589C69.843 33.7543 69.7653 33.851 69.6945 33.945C69.5174 34.1902 69.3594 34.4287 69.2286 34.648C69.0951 34.8714 69.0133 35.0295 68.9833 35.1235L68.6264 36.3033H67.8594L68.937 32.7216C68.937 32.7161 68.937 32.712 68.9425 32.7066C68.9452 32.6971 68.9466 32.6943 68.9466 32.6889C68.9466 32.6794 68.9493 32.6644 68.952 32.6507C68.9547 32.6344 68.9575 32.6249 68.9575 32.6194C68.9506 32.5567 68.9234 32.5009 68.8675 32.4641C68.8158 32.4273 68.7408 32.4082 68.6536 32.4082C68.6373 32.4082 68.6182 32.4082 68.6005 32.4082C68.5828 32.4082 68.5664 32.4137 68.5474 32.4178C68.516 32.4178 68.4874 32.4232 68.4575 32.4273C68.4275 32.4328 68.3989 32.4368 68.3771 32.4477L68.3498 32.317L69.9207 32.0581L69.3662 33.8728Z" fill="#221F1F"/>
<path id="Vector_21" d="M79.5813 30.0474L80.0445 34.768H80.0813L83.3591 30.0474H85.2597L85.2229 30.1618H85.0648C84.7229 30.1618 84.4899 30.2258 84.3564 30.3566C84.2202 30.482 84.1289 30.6318 84.0853 30.7967L82.6384 35.5527C82.6384 35.5623 82.6357 35.5718 82.6344 35.58C82.6316 35.5895 82.6275 35.5991 82.6221 35.6141C82.6221 35.6263 82.6194 35.6454 82.6126 35.6672C82.6085 35.6863 82.6057 35.704 82.6057 35.719C82.5962 35.7339 82.5935 35.7448 82.5935 35.7598C82.5935 35.7694 82.5935 35.7871 82.5935 35.8062C82.6003 35.8988 82.6439 35.9833 82.7297 36.0677C82.8128 36.1454 82.9818 36.1808 83.2365 36.1808H83.4068L83.3728 36.2993H80.4559L80.49 36.1808H80.6507C80.9859 36.1808 81.2188 36.1209 81.3619 35.9914C81.5009 35.8675 81.5921 35.7176 81.6412 35.5527L82.9082 31.3784H82.8646L79.4505 36.3007H79.2339L78.7543 31.3784H78.7202L77.4682 35.4465C77.4559 35.4833 77.441 35.5214 77.4342 35.5677C77.4192 35.6086 77.4151 35.6454 77.4069 35.6863C77.4069 35.7026 77.4042 35.7176 77.4014 35.7408C77.3987 35.7598 77.396 35.7816 77.396 35.8062C77.396 35.9083 77.4396 35.9928 77.5268 36.0705C77.6113 36.1454 77.7816 36.1822 78.0363 36.1822H78.2066L78.1603 36.3007H75.8184L75.8551 36.1822H76.0132C76.3674 36.1822 76.6072 36.1086 76.7407 35.9615C76.8715 35.8102 76.9682 35.6413 77.0295 35.4465L78.4396 30.7967C78.4396 30.7912 78.4396 30.7871 78.445 30.7762C78.4478 30.7694 78.4518 30.7599 78.46 30.7544C78.4641 30.7258 78.4696 30.6945 78.4764 30.6618C78.4818 30.6305 78.4859 30.5896 78.4859 30.5528C78.4832 30.5474 78.4859 30.5378 78.4832 30.5337C78.4832 30.5242 78.4832 30.5174 78.4859 30.5119C78.4709 30.4247 78.4246 30.3471 78.3429 30.2708C78.2584 30.2027 78.0908 30.1618 77.8429 30.1618H77.6807L77.7175 30.0474H79.5813Z" fill="#221F1F"/>
<path id="Vector_22" d="M85.402 35.5605C85.402 35.57 85.3993 35.5782 85.3966 35.5877C85.3939 35.5973 85.3911 35.6027 85.3939 35.6123C85.3911 35.6136 85.3911 35.6136 85.3939 35.6191C85.3911 35.6245 85.3939 35.6286 85.3939 35.6341C85.3911 35.6381 85.3939 35.6436 85.3939 35.6504L85.3911 35.6599C85.3939 35.6654 85.3911 35.6695 85.3911 35.679C85.3939 35.6886 85.3966 35.6954 85.4007 35.7104C85.4075 35.7253 85.417 35.7417 85.4293 35.7567C85.4484 35.7662 85.4729 35.773 85.5138 35.773C85.541 35.773 85.5601 35.773 85.5846 35.7703C85.6009 35.7649 85.6227 35.7648 85.6405 35.7608C85.6936 35.7376 85.7576 35.6899 85.8298 35.6177C85.8993 35.5496 86.0069 35.4352 86.15 35.2771L86.2672 35.3793C86.2426 35.4079 86.2167 35.4352 86.1895 35.4719C86.1622 35.5087 86.1364 35.536 86.1078 35.5646C85.9456 35.7512 85.7753 35.9215 85.5914 36.0836C85.4143 36.2417 85.2304 36.3384 85.0451 36.3752C85.0287 36.3752 85.0056 36.3752 84.9865 36.3806C84.9647 36.3806 84.947 36.3806 84.9279 36.3806C84.9184 36.3806 84.9089 36.3806 84.898 36.3806C84.8857 36.3806 84.8762 36.3806 84.8666 36.3806C84.7849 36.3711 84.7086 36.3398 84.6405 36.2812C84.5778 36.2253 84.541 36.1286 84.541 35.9856C84.541 35.942 84.5478 35.8861 84.5574 35.8207C84.5669 35.7567 84.5914 35.6695 84.6255 35.5605L85.4797 32.7172C85.4811 32.7118 85.4811 32.7077 85.4838 32.7022C85.4865 32.6927 85.4892 32.69 85.4892 32.6845C85.4892 32.675 85.4892 32.66 85.4947 32.6464C85.4947 32.63 85.5001 32.6205 85.5001 32.615C85.4947 32.5524 85.4661 32.4965 85.4102 32.4597C85.3557 32.4229 85.2835 32.4039 85.1963 32.4039C85.1772 32.4039 85.1595 32.4039 85.1405 32.4039C85.1241 32.4039 85.1037 32.4093 85.0901 32.4134C85.0587 32.4134 85.0274 32.4188 84.9974 32.4229C84.9702 32.4284 84.9416 32.4325 84.9198 32.4434L84.9007 32.3126L86.4633 32.0537L85.402 35.5605ZM85.9538 30.5156C86.0342 30.4379 86.1159 30.3862 86.2058 30.3576C86.2304 30.3548 86.2522 30.3507 86.274 30.3453C86.2944 30.3398 86.3162 30.3398 86.3394 30.3398C86.4729 30.3398 86.5941 30.3862 86.6908 30.4856C86.7903 30.5783 86.8393 30.69 86.8366 30.8112C86.8366 30.9352 86.7903 31.0469 86.6881 31.1409C86.5941 31.2336 86.4756 31.284 86.3421 31.284C86.3176 31.284 86.293 31.2785 86.274 31.2785C86.2549 31.2731 86.2276 31.2731 86.2058 31.2635C86.1159 31.2363 86.0315 31.1859 85.9538 31.1082C85.8789 31.036 85.8394 30.9338 85.8394 30.8099C85.8394 30.69 85.8802 30.5892 85.9538 30.5156Z" fill="#221F1F"/>
<path id="Vector_23" d="M88.348 33.8728H88.3821C88.4597 33.7706 88.5442 33.6616 88.6423 33.5431C88.7336 33.4246 88.8357 33.3047 88.9434 33.1821C89.0823 33.0322 89.2226 32.8878 89.3684 32.7447C89.5142 32.6044 89.6627 32.4804 89.818 32.3742C89.9488 32.2788 90.0796 32.1984 90.2131 32.1467C90.3439 32.0908 90.4651 32.0608 90.585 32.0608C90.773 32.0608 90.912 32.1208 90.9897 32.2379C91.0728 32.3524 91.1109 32.4968 91.1136 32.6766C91.1109 32.7693 91.1068 32.8469 91.0946 32.915C91.0823 32.9886 91.0673 33.0581 91.0482 33.1221C91.0387 33.1589 91.0292 33.193 91.0196 33.2216C91.0101 33.2597 91.0006 33.2965 90.9883 33.3333L90.318 35.5635C90.3112 35.5812 90.3112 35.5948 90.3112 35.6044C90.3112 35.6153 90.3085 35.6316 90.3017 35.6534C90.3044 35.6589 90.3017 35.6684 90.3017 35.6739C90.3017 35.6834 90.3044 35.6929 90.3112 35.6957C90.3139 35.7202 90.3275 35.7393 90.3493 35.757C90.3711 35.772 90.397 35.7788 90.4338 35.7788C90.4706 35.7788 90.5046 35.772 90.5428 35.7624C90.5769 35.7474 90.6123 35.7256 90.6477 35.697C90.6818 35.6752 90.7199 35.648 90.7608 35.618C90.8003 35.5785 90.8357 35.5472 90.8698 35.5158C90.9106 35.4695 90.9501 35.4245 90.9869 35.3823C91.0237 35.3414 91.0496 35.3101 91.0673 35.2856L91.194 35.3878C91.1504 35.4327 91.1164 35.4654 91.0946 35.4913C91.07 35.5213 91.051 35.5431 91.0319 35.5662L91.0251 35.5717C91.0155 35.5771 91.0128 35.5839 91.0033 35.5989C90.991 35.6085 90.9788 35.6207 90.9719 35.6398C90.9352 35.6766 90.8916 35.727 90.8412 35.7801C90.7894 35.836 90.7363 35.8973 90.679 35.9532C90.57 36.0581 90.4488 36.1589 90.3126 36.2393C90.1763 36.3264 90.0387 36.3782 89.8997 36.3878C89.8875 36.3878 89.8807 36.3878 89.8684 36.3878C89.8616 36.3878 89.8534 36.3878 89.8466 36.3878C89.7349 36.3878 89.6532 36.366 89.6014 36.3251C89.551 36.2788 89.5196 36.2229 89.4992 36.1643C89.4897 36.1357 89.4829 36.1085 89.4747 36.0744C89.4747 36.0431 89.4747 36.0158 89.4747 35.9927C89.4747 35.915 89.4774 35.8469 89.4842 35.791C89.4938 35.7379 89.5087 35.6861 89.5265 35.6412C89.5265 35.6262 89.5265 35.6194 89.5319 35.6044C89.5346 35.5894 89.5387 35.5771 89.5469 35.5676L90.1899 33.4396C90.2049 33.3837 90.2213 33.3224 90.239 33.2597C90.254 33.1957 90.2608 33.1262 90.2608 33.054C90.2608 33.0445 90.2608 33.0295 90.2608 33.0227C90.2608 33.0172 90.2608 33.0036 90.2608 32.9941C90.254 32.9164 90.2363 32.8428 90.209 32.7843C90.1859 32.7243 90.1273 32.6916 90.0442 32.6916C89.9324 32.6916 89.7948 32.7556 89.6314 32.8892C89.4733 33.0227 89.3085 33.1875 89.1368 33.3783C89.0564 33.4709 88.9815 33.5622 88.9038 33.6589C88.8262 33.7543 88.7513 33.851 88.6804 33.945C88.5033 34.1902 88.3453 34.4287 88.2118 34.648C88.0782 34.8714 87.9951 35.0295 87.9665 35.1235L87.6096 36.3033H86.8398L87.9229 32.7216C87.9229 32.7161 87.9229 32.712 87.9257 32.7066C87.9311 32.6971 87.9325 32.6943 87.9311 32.6889C87.9311 32.6794 87.9338 32.6644 87.9366 32.6507C87.9393 32.6344 87.942 32.6249 87.942 32.6194C87.9352 32.5567 87.908 32.5009 87.8548 32.4641C87.8017 32.4273 87.7281 32.4082 87.6382 32.4082C87.6218 32.4082 87.6041 32.4082 87.5851 32.4082C87.5701 32.4082 87.5456 32.4137 87.5319 32.4178C87.5033 32.4178 87.472 32.4232 87.442 32.4273C87.4134 32.4328 87.3862 32.4368 87.3616 32.4477L87.333 32.317L88.9052 32.0581L88.348 33.8728Z" fill="#221F1F"/>
<path id="Vector_24" d="M92.8434 35.2024C92.8434 35.2174 92.842 35.2269 92.838 35.2337C92.8352 35.2392 92.8284 35.2528 92.823 35.2623C92.8257 35.2678 92.8202 35.2773 92.8202 35.2787C92.8148 35.2841 92.8134 35.2937 92.8134 35.3032C92.8039 35.3345 92.7944 35.3591 92.7862 35.3849C92.7807 35.4163 92.7794 35.4531 92.7766 35.4994C92.7766 35.5811 92.7957 35.6424 92.8325 35.6833C92.8666 35.7201 92.9047 35.7514 92.9456 35.7664C92.9606 35.7664 92.9728 35.7664 92.9864 35.7719C93.0042 35.7746 93.0151 35.7746 93.03 35.7746C93.1595 35.7746 93.3121 35.7119 93.4824 35.5825C93.654 35.4544 93.8338 35.2841 94.0164 35.0798C94.2153 34.8386 94.4074 34.5702 94.5981 34.2623C94.7875 33.9544 94.9428 33.6438 95.0695 33.3196C95.1009 33.261 95.1281 33.1956 95.1499 33.1329C95.1744 33.0675 95.1962 33.0049 95.2126 32.9367L95.4551 32.1602H96.2221L95.1949 35.5593C95.1853 35.577 95.1853 35.5907 95.1853 35.6002C95.1853 35.6111 95.184 35.6274 95.1785 35.6492C95.1785 35.6547 95.1785 35.6642 95.1785 35.6697C95.1785 35.6792 95.184 35.6887 95.1853 35.6915C95.1921 35.716 95.2071 35.7351 95.2262 35.7528C95.2453 35.7678 95.2766 35.7746 95.312 35.7746C95.3475 35.7746 95.3815 35.7678 95.4156 35.7582C95.4524 35.7432 95.4878 35.7214 95.5218 35.6928C95.5586 35.671 95.5968 35.6438 95.6363 35.6138C95.6758 35.5743 95.7098 35.543 95.7453 35.5116C95.7889 35.4653 95.8284 35.4204 95.8624 35.3781C95.9006 35.3373 95.9251 35.3059 95.9428 35.2814L96.0695 35.3836C96.0286 35.4285 95.9946 35.4612 95.9728 35.4871C95.9483 35.5171 95.9265 35.5389 95.9101 35.562L95.8979 35.5675C95.8951 35.573 95.8883 35.5798 95.8788 35.5947C95.872 35.6043 95.8597 35.6165 95.8502 35.6356C95.8134 35.6724 95.7671 35.7228 95.7098 35.7814C95.6513 35.8427 95.5927 35.9081 95.5273 35.9749C95.4428 36.0389 95.3556 36.1084 95.2698 36.1765C95.1799 36.2405 95.09 36.2936 95.0014 36.3277C94.9551 36.3522 94.9088 36.3672 94.8652 36.3781C94.8189 36.3877 94.7753 36.3931 94.7248 36.3931C94.7208 36.3931 94.7153 36.3931 94.7126 36.3931C94.7071 36.3931 94.703 36.3931 94.7003 36.3931C94.6104 36.3877 94.5246 36.3563 94.4524 36.3005C94.3802 36.2446 94.3407 36.1397 94.3407 35.9871C94.3407 35.9435 94.3475 35.8877 94.3556 35.8223C94.3624 35.7541 94.387 35.667 94.421 35.562L94.7003 34.6479L94.6799 34.6411C94.6118 34.7351 94.53 34.8522 94.4306 34.983C94.3298 35.122 94.2126 35.2596 94.0832 35.3986C93.9565 35.5334 93.8202 35.6683 93.6826 35.8018C93.5368 35.9299 93.3938 36.0484 93.2507 36.1411C93.1349 36.2187 93.0151 36.2841 92.8965 36.3277C92.778 36.3686 92.6608 36.3931 92.5573 36.3931C92.3652 36.3931 92.2249 36.3277 92.1254 36.1969C92.026 36.0634 91.9796 35.9081 91.9796 35.7187C91.9769 35.6874 91.9796 35.6506 91.9824 35.6165C91.9851 35.5757 91.9892 35.5443 91.9946 35.5116C92.0096 35.4749 92.0192 35.4394 92.0219 35.4081C92.0273 35.374 92.0341 35.3427 92.041 35.3168C92.0532 35.28 92.0628 35.2419 92.0723 35.2146C92.0818 35.1888 92.0873 35.1615 92.0941 35.137L92.827 32.7201C92.8298 32.7106 92.8339 32.6956 92.8339 32.6833C92.8339 32.6684 92.8339 32.6547 92.8339 32.6466C92.8339 32.637 92.8339 32.6316 92.8339 32.6275C92.8339 32.622 92.8339 32.6125 92.8339 32.6057C92.8216 32.5553 92.793 32.513 92.7508 32.4722C92.7017 32.4313 92.6322 32.4068 92.5273 32.4068C92.5123 32.4068 92.4892 32.4068 92.466 32.4068C92.4415 32.4068 92.417 32.4122 92.3856 32.4163C92.3611 32.4163 92.342 32.4218 92.3202 32.4258C92.2984 32.4313 92.2794 32.4354 92.2589 32.4463L92.2317 32.3155L93.7943 32.0566L92.8434 35.2024Z" fill="#221F1F"/>
<path id="Vector_25" d="M99.1057 30.8975L98.7297 32.1618H99.4163L99.3087 32.5132H98.6193L97.6943 35.5609C97.6902 35.5732 97.6847 35.5881 97.6847 35.6018V35.6127C97.6875 35.614 97.6793 35.629 97.6752 35.6508C97.6779 35.6563 97.6779 35.6658 97.6807 35.6753C97.6861 35.6903 97.6902 35.6971 97.6956 35.7121C97.7011 35.7271 97.7147 35.7435 97.7379 35.7584C97.7569 35.768 97.7856 35.7748 97.8196 35.7748C97.836 35.7748 97.9 35.753 98.0063 35.7121C98.1153 35.6658 98.261 35.52 98.445 35.2802L98.5717 35.3824C98.5281 35.4274 98.4967 35.4601 98.4722 35.486C98.4477 35.5159 98.4286 35.5377 98.4068 35.5609L98.4 35.5663C98.3959 35.5718 98.385 35.5786 98.3782 35.5936C98.3687 35.6031 98.3591 35.6154 98.3469 35.6345C98.3128 35.6712 98.2665 35.7217 98.2174 35.7748C98.167 35.8306 98.1112 35.892 98.0526 35.9478C97.945 36.0527 97.8223 36.1535 97.6888 36.2339C97.5499 36.3211 97.4095 36.3729 97.276 36.3824C97.2638 36.3824 97.2542 36.3824 97.2447 36.3824C97.2379 36.3824 97.2297 36.3824 97.2229 36.3824C97.1044 36.3824 97.0117 36.3511 96.9463 36.283C96.8809 36.208 96.8496 36.1127 96.8496 35.9873C96.8496 35.9138 96.8523 35.8565 96.8591 35.8048C96.8619 35.7544 96.8714 35.708 96.885 35.6658C96.8905 35.6508 96.8973 35.6345 96.9014 35.6154C96.9068 35.5936 96.9136 35.5745 96.9177 35.5623L97.8441 32.5146H97.0962L97.1561 32.3007C97.5254 32.2231 97.8605 32.0746 98.1684 31.8511C98.4763 31.625 98.7392 31.3103 98.9599 30.8975H99.1057Z" fill="#221F1F"/>
<path id="Vector_26" d="M102.566 35.3305C102.214 35.7311 101.871 36.0049 101.541 36.1575C101.214 36.3087 100.894 36.3809 100.585 36.3809C100.127 36.3809 99.7986 36.2379 99.6065 35.9518C99.413 35.6657 99.3081 35.3441 99.2891 34.9913C99.2918 34.9736 99.2891 34.9545 99.2891 34.9368C99.2891 34.9123 99.2891 34.9014 99.2891 34.8809C99.2918 34.7842 99.2959 34.6916 99.3136 34.5962C99.3286 34.5036 99.3476 34.4068 99.3694 34.3128C99.5275 33.7474 99.8572 33.2256 100.363 32.757C100.869 32.2842 101.424 32.0513 102.03 32.0513C102.085 32.0513 102.145 32.0554 102.218 32.0581C102.288 32.0622 102.364 32.0772 102.442 32.1017C102.579 32.1385 102.709 32.2011 102.824 32.3074C102.943 32.4109 103.004 32.5717 103.004 32.7924C103.004 33.2924 102.718 33.6998 102.145 34.0131C101.574 34.3237 100.914 34.4981 100.168 34.5349C100.156 34.5758 100.149 34.6262 100.141 34.6834C100.132 34.7311 100.131 34.7869 100.131 34.8482C100.131 34.8741 100.134 34.8986 100.136 34.9259C100.139 34.9477 100.139 34.9777 100.142 35.0036C100.166 35.2093 100.245 35.3986 100.384 35.5689C100.525 35.7406 100.754 35.8237 101.068 35.8237C101.241 35.8237 101.444 35.7869 101.684 35.7147C101.925 35.6411 102.18 35.4763 102.458 35.2093L102.566 35.3305ZM101.6 33.8142C102.01 33.5376 102.217 33.1902 102.217 32.7679C102.217 32.6398 102.185 32.5322 102.117 32.4505C102.053 32.3728 101.953 32.3319 101.816 32.3319C101.739 32.3319 101.658 32.3524 101.571 32.3878C101.484 32.4246 101.397 32.475 101.309 32.5431C101.093 32.7039 100.89 32.9382 100.698 33.2325C100.506 33.5281 100.356 33.8414 100.254 34.167C100.254 34.1861 100.254 34.1984 100.251 34.2134C100.245 34.2229 100.244 34.2324 100.237 34.2447C100.736 34.2324 101.19 34.088 101.6 33.8142Z" fill="#221F1F"/>
<path id="Vector_27" d="M103.287 34.9081H103.439C103.439 34.9231 103.439 34.9326 103.439 34.9462C103.439 34.9585 103.439 34.9776 103.439 34.9898C103.439 35.2882 103.529 35.5552 103.706 35.7827C103.883 36.013 104.12 36.1274 104.42 36.1274C104.657 36.1274 104.83 36.0661 104.942 35.9449C105.054 35.8195 105.123 35.6874 105.16 35.5348C105.167 35.498 105.17 35.4612 105.172 35.4244C105.178 35.3836 105.178 35.3522 105.178 35.3182C105.178 35.1778 105.144 35.0539 105.071 34.9449C105.001 34.8332 104.926 34.7296 104.838 34.637C104.823 34.6152 104.802 34.5906 104.783 34.5688C104.761 34.5443 104.743 34.5225 104.724 34.498C104.671 34.4381 104.616 34.374 104.562 34.3114C104.509 34.2501 104.46 34.1901 104.413 34.1356C104.287 33.9708 104.183 33.8059 104.1 33.6411C104.016 33.4762 103.973 33.2909 103.973 33.0852C103.973 32.7869 104.058 32.5607 104.228 32.4013C104.398 32.246 104.585 32.1424 104.787 32.0907C104.852 32.0811 104.912 32.0675 104.973 32.0621C105.032 32.0553 105.086 32.0498 105.142 32.0498C105.272 32.0498 105.385 32.0621 105.481 32.0866C105.573 32.1138 105.664 32.1424 105.739 32.1792C105.749 32.1792 105.761 32.1792 105.77 32.1847C105.78 32.1847 105.787 32.1888 105.792 32.1915C105.838 32.2106 105.885 32.2256 105.926 32.2378C105.969 32.2487 106.01 32.2528 106.052 32.2528C106.111 32.2528 106.164 32.2364 106.214 32.1929C106.266 32.1561 106.307 32.1057 106.338 32.0525H106.488L106.221 33.4694H106.069C106.075 33.152 105.996 32.8822 105.841 32.6561C105.683 32.4285 105.475 32.3114 105.21 32.3114C105.197 32.3114 105.172 32.3114 105.152 32.3155C105.13 32.3209 105.105 32.3209 105.092 32.3305C104.983 32.3509 104.887 32.404 104.8 32.4953C104.71 32.577 104.67 32.7065 104.67 32.8713C104.67 32.9054 104.67 32.9367 104.672 32.968C104.678 32.9953 104.684 33.0294 104.697 33.0552C104.72 33.1547 104.774 33.2664 104.862 33.3849C104.949 33.5035 105.08 33.6642 105.257 33.874C105.325 33.9476 105.383 34.0171 105.441 34.0811C105.496 34.1533 105.547 34.2187 105.596 34.2868C105.691 34.4203 105.769 34.5634 105.825 34.701C105.881 34.8413 105.909 35.0021 105.909 35.1915C105.909 35.4871 105.785 35.7637 105.537 36.0062C105.289 36.2541 104.956 36.3781 104.537 36.3781C104.434 36.3781 104.348 36.3781 104.276 36.3686C104.202 36.3617 104.135 36.3522 104.07 36.3372C104.043 36.3318 104.011 36.3263 103.983 36.3181C103.952 36.3113 103.92 36.3004 103.886 36.2963C103.74 36.2555 103.649 36.231 103.6 36.2187C103.551 36.1996 103.513 36.1969 103.486 36.1969C103.479 36.1969 103.473 36.1969 103.471 36.1969C103.471 36.1969 103.461 36.1969 103.456 36.1969C103.412 36.1969 103.366 36.2092 103.313 36.231C103.259 36.2596 103.205 36.3059 103.155 36.3795L103.002 36.389L103.287 34.9081Z" fill="#221F1F"/>
</g>
<g id="Group_2">
<g id="Group_3">
<path id="Vector_28" d="M110.58 13.9897C112.073 13.9897 113.227 15.145 113.227 16.6232C113.227 18.1246 112.072 19.2826 110.563 19.2826C109.061 19.2826 107.869 18.1246 107.869 16.6232C107.869 15.145 109.06 13.9897 110.563 13.9897H110.58ZM110.549 14.4502C109.357 14.4502 108.45 15.4284 108.45 16.6219C108.45 17.8398 109.36 18.799 110.582 18.799C111.756 18.818 112.647 17.8398 112.647 16.6341C112.647 15.4271 111.756 14.4502 110.565 14.4502H110.549ZM110.086 18.0755H109.573V15.314C109.853 15.2636 110.154 15.2268 110.533 15.2268C110.999 15.2268 111.226 15.314 111.392 15.4475C111.557 15.5619 111.677 15.7772 111.677 16.0374C111.677 16.3698 111.429 16.5837 111.148 16.6859V16.7172C111.376 16.8194 111.509 17.0347 111.595 17.3971C111.678 17.8099 111.741 17.9747 111.809 18.0769H111.281C111.197 17.9747 111.132 17.7268 111.05 17.3657C110.982 17.0483 110.802 16.9175 110.42 16.9175H110.093L110.086 18.0755ZM110.086 16.5211H110.432C110.798 16.5211 111.146 16.4025 111.146 16.0892C111.146 15.8249 110.962 15.6287 110.484 15.6287C110.287 15.6287 110.167 15.645 110.086 15.6573V16.5211Z" fill="#2E368E"/>
</g>
</g>
</g>
</svg>
