<svg width="130" height="28" viewBox="0 0 130 28" fill="none" xmlns="http://www.w3.org/2000/svg">
<g id="color-logo 1" clip-path="url(#clip0_3769_2171)">
<g id="Group">
<g id="Group_2">
<g id="Group_3">
<path id="Vector" d="M36.998 8.14457L38.3683 7.7251V20.1346H36.998V8.14457Z" fill="#010101"/>
<path id="Vector_2" d="M38.4044 20.1872H36.9629V8.10981L38.4044 7.67285V20.1872ZM37.0519 20.0998H38.3332V7.7952L37.0519 8.17972V20.0998Z" fill="#010101"/>
</g>
<g id="Group_4">
<path id="Vector_3" d="M45.6652 10.9589V20.1525H44.2949V7.70801L53.4777 17.1637V8.17992L54.848 7.76044V20.3272L45.6652 10.9589Z" fill="#010101"/>
<path id="Vector_4" d="M54.884 20.4494L45.7012 11.0636V20.1872H44.2598V7.58545L44.331 7.65536L53.4425 17.0237V8.14475L54.884 7.7078V20.4494ZM45.6123 10.8539L54.795 20.2396V7.83014L53.5137 8.21466V17.2509L53.4425 17.181L44.331 7.81267V20.0998H45.6123V10.8539Z" fill="#010101"/>
</g>
<g id="Group_5">
<path id="Vector_5" d="M67.2872 13.4934L66.8601 14.6994H62.1086V20.1526H60.7383V7.90039H68.3728L67.9457 9.12386H62.1086V13.4934H67.2872Z" fill="#010101"/>
<path id="Vector_6" d="M62.1446 20.1873H60.7031V7.86523H68.4444L67.9995 9.1761H62.1624V13.4582H67.3588L66.9139 14.7516H62.1624V20.1873H62.1446ZM60.7921 20.0999H62.0734V14.6468H66.8606L67.2521 13.5282H62.0912V9.08871H67.9461L68.3376 7.95263H60.8099V20.0999H60.7921Z" fill="#010101"/>
</g>
<g id="Group_6">
<path id="Vector_7" d="M73.0879 8.14457L74.4582 7.7251V20.1346H73.0879V8.14457Z" fill="#010101"/>
<path id="Vector_8" d="M74.4942 20.1872H73.0527V8.10981L74.4942 7.67285V20.1872ZM73.1417 20.0998H74.423V7.7952L73.1417 8.17972V20.0998Z" fill="#010101"/>
</g>
<g id="Group_7">
<path id="Vector_9" d="M81.7551 10.9589V20.1525H80.3848V7.70801L89.5675 17.1637V8.17992L90.9378 7.76044V20.3272L81.7551 10.9589Z" fill="#010101"/>
<path id="Vector_10" d="M90.9738 20.4494L81.7911 11.0636V20.1872H80.3496V7.58545L89.5324 17.0411V8.14475L90.9738 7.7078V20.4494ZM81.7021 10.8539L90.8849 20.2396V7.83014L89.6035 8.21466V17.2509L80.4386 7.81267V20.0998H81.7199V10.8539H81.7021Z" fill="#010101"/>
</g>
<g id="Group_8">
<path id="Vector_11" d="M96.8281 8.14457L98.1984 7.7251V20.1346H96.8281V8.14457Z" fill="#010101"/>
<path id="Vector_12" d="M98.2344 20.1872H96.793V8.10981L98.2344 7.67285V20.1872ZM96.8819 20.0998H98.1633V7.7952L96.8819 8.17972V20.0998Z" fill="#010101"/>
</g>
<g id="Group_9">
<path id="Vector_13" d="M103.609 14.018C103.609 10.4874 106.546 7.60352 110.141 7.60352C113.718 7.60352 116.672 10.4874 116.672 14.018C116.672 17.5486 113.718 20.4325 110.141 20.4325C106.546 20.4325 103.609 17.5486 103.609 14.018ZM115.284 14.018C115.284 11.204 113.006 8.84446 110.158 8.84446C107.293 8.84446 105.033 11.204 105.033 14.018C105.033 16.8495 107.311 19.1915 110.158 19.1915C113.006 19.1915 115.284 16.8495 115.284 14.018Z" fill="#010101"/>
<path id="Vector_14" d="M110.141 20.4672C106.511 20.4672 103.574 17.5659 103.574 14.0178C103.574 10.4697 106.528 7.56836 110.141 7.56836C113.754 7.56836 116.708 10.4697 116.708 14.0178C116.708 17.5659 113.771 20.4672 110.141 20.4672ZM110.141 7.63827C106.564 7.63827 103.645 10.5047 103.645 14.0178C103.645 17.5309 106.564 20.3973 110.141 20.3973C113.718 20.3973 116.637 17.5309 116.637 14.0178C116.637 10.5047 113.718 7.63827 110.141 7.63827ZM110.141 19.2263C107.294 19.2263 104.962 16.8842 104.962 14.0003C104.962 11.1164 107.294 8.77435 110.141 8.77435C112.988 8.77435 115.32 11.1339 115.32 14.0178C115.32 16.8842 112.988 19.2263 110.141 19.2263ZM110.141 8.87922C107.329 8.87922 105.051 11.1863 105.051 14.0178C105.051 16.8493 107.329 19.1564 110.141 19.1564C112.953 19.1564 115.231 16.8493 115.231 14.0178C115.231 11.1863 112.953 8.87922 110.141 8.87922Z" fill="#010101"/>
</g>
<g id="Group_10">
<path id="Vector_15" d="M125.871 13.1611C127.455 13.7029 129.964 14.5069 129.964 16.7616C129.964 19.1037 128.47 20.3446 125.373 20.3446C123.54 20.3446 122.17 19.6804 121.387 18.9813V17.4782C122.17 18.1424 124.038 19.0687 125.373 19.0687C127.651 19.0687 128.523 18.1074 128.523 16.7616C128.523 15.4332 126.743 14.8914 125.213 14.3846C123.807 13.9126 121.44 13.0213 121.44 10.9414C121.44 8.49441 123.469 7.60303 125.444 7.60303C127.259 7.60303 128.434 8.21476 129.003 8.79154V10.2422C128.434 9.61301 127.153 8.87893 125.444 8.87893C123.825 8.87893 122.899 9.47319 122.899 10.9414C122.864 12.1299 124.465 12.6542 125.871 13.1611Z" fill="#010101"/>
<path id="Vector_16" d="M125.373 20.3796C123.167 20.3796 121.832 19.4183 121.369 19.0164L121.352 18.9989V17.3734L121.423 17.4433C122.188 18.09 124.021 19.0338 125.373 19.0338C127.402 19.0338 128.47 18.2473 128.47 16.7617C128.47 15.5207 126.797 14.9614 125.338 14.472L125.178 14.4196C123.95 14.0001 121.369 13.1262 121.369 10.924C121.369 8.42459 123.451 7.5332 125.409 7.5332C127.545 7.5332 128.63 8.37216 129.004 8.72172L129.022 8.7392V10.3297L128.95 10.2423C128.381 9.63058 127.135 8.8965 125.427 8.8965C123.736 8.8965 122.918 9.56067 122.918 10.9065C122.918 12.0426 124.448 12.5844 125.801 13.0563L126.032 13.1437C127.616 13.6855 130 14.507 130 16.7267C130 19.1562 128.434 20.3796 125.373 20.3796ZM121.423 18.9639C121.903 19.3659 123.202 20.2923 125.356 20.2923C128.381 20.2923 129.911 19.1037 129.911 16.7442C129.911 14.5769 127.562 13.7729 125.996 13.2311L125.765 13.1437C124.395 12.6543 122.829 12.1125 122.829 10.9065C122.829 9.49076 123.683 8.80911 125.427 8.80911C127.082 8.80911 128.345 9.49076 128.95 10.1025V8.77415C128.577 8.40711 127.527 7.62059 125.427 7.62059C123.523 7.62059 121.476 8.4945 121.476 10.924C121.476 13.0563 124.003 13.9127 125.213 14.3322L125.373 14.3846C126.868 14.8915 128.559 15.4508 128.559 16.7617C128.559 17.8453 128.007 19.1212 125.373 19.1212C124.039 19.1212 122.241 18.2298 121.441 17.5831V18.9639H121.423Z" fill="#010101"/>
</g>
</g>
<path id="Vector_17" d="M16.2478 0C16.7639 1.43321 16.4257 3.09363 15.2512 4.22971C14.4148 5.03371 13.3114 5.41823 12.2437 5.40075C12.1369 5.40075 12.0479 5.38327 11.9411 5.38327C10.731 5.29588 9.71663 4.05493 8.79124 3.25094L8.75565 3.21598L8.63107 3.14607L8.59548 3.12859L8.48871 3.05868H8.47091L8.43532 3.0412L8.38193 2.97129L8.34634 2.95381L8.31075 2.93633L8.27515 2.91885L8.23956 2.90137L8.18617 2.84894L8.16838 2.83146L8.15058 2.81398L8.11499 2.7965L8.0794 2.77903L8.0438 2.76155L7.97262 2.70911L7.93703 2.69164L7.90144 2.67416L7.86584 2.65668L7.79466 2.62172L7.75907 2.60424L7.72348 2.58677L7.65229 2.55181L7.6167 2.53433L7.58111 2.51685L7.54552 2.49938L7.50992 2.4819L7.43874 2.44694L7.40315 2.42946L7.36756 2.41199L7.33196 2.39451L7.29637 2.37703L7.26078 2.35955L7.22519 2.34207L7.11841 2.30712L7.10062 2.28964L7.08282 2.27216H7.06502H7.04723H7.02943H7.01164H6.99384L6.92266 2.25468H6.90486H6.88706C6.79808 2.21973 6.69131 2.18477 6.60233 2.14981C5.28542 2.98876 4.11088 4.03745 3.1321 5.22597C4.11088 4.9638 5.16085 5.06866 6.06845 5.5231C6.47775 5.71536 6.85147 5.97753 7.1896 6.30961C8.84463 7.93508 10.1615 8.84395 12.7598 8.68664C13.2224 8.65169 13.7029 8.58177 14.1478 8.45943C15.8919 8.00499 15.6961 7.30587 17.013 6.01249C18.6324 4.42197 21.2485 4.42197 22.8679 6.01249C24.4873 7.603 24.4873 10.1723 22.8679 11.7453C21.2485 13.3358 18.6324 13.3358 17.013 11.7453C15.5893 10.3471 15.5359 9.87516 12.742 9.64794L12.6174 9.63046H12.5996C9.32512 9.45568 9.02259 10.2422 7.1718 12.0599C5.87269 13.2834 3.93292 13.5281 2.38467 12.7591C1.97536 12.5668 1.60164 12.3046 1.24572 11.9725C0.854209 11.588 0.569473 11.2734 0.302532 11.0112C0.106776 11.9551 0 12.9338 0 13.9301C0 14.1748 0 14.402 0.017796 14.6467C0.444901 14.9613 0.854209 15.206 1.3525 15.4332H1.37029L1.40589 15.4507L1.47707 15.4856H1.49487L1.53046 15.5031C3.02532 16.2197 4.75154 16.377 6.33539 15.9401C7.26078 15.6779 8.20397 15.171 9.00479 14.5418C10.6598 13.2135 11.3183 12.1823 13.5962 12.8115C14.2724 13.0037 14.9131 13.3533 15.447 13.8777C17.0486 15.4682 17.0308 18.0549 15.3936 19.628C14.5572 20.432 13.4538 20.8165 12.386 20.799C12.2793 20.799 12.1903 20.7815 12.0835 20.7815C10.8734 20.6941 9.859 19.4532 8.93361 18.6492L8.89801 18.6142L8.79124 18.5268L8.75565 18.5094L8.64887 18.4395H8.63107L8.59548 18.422L8.5243 18.3695L8.48871 18.3521L8.45311 18.3346L8.41752 18.3171L8.38193 18.2996L8.34634 18.2821L8.32854 18.2647L8.31075 18.2472L8.27515 18.2297L8.23956 18.2122L8.20397 18.1948L8.13278 18.1423L8.09719 18.1248L8.0616 18.1074L8.02601 18.0899L7.99042 18.0724L7.95482 18.0549L7.91923 18.0375L7.84805 18.0025L7.81246 17.985L7.77686 17.9675L7.74127 17.9501L7.70568 17.9326L7.67009 17.9151L7.6345 17.8976L7.5989 17.8802L7.56331 17.8627L7.52772 17.8452L7.49213 17.8277L7.45654 17.8102L7.36756 17.7753L7.34976 17.7578L7.33196 17.7403H7.31417H7.29637L7.27858 17.7228H7.26078H7.24298L7.1718 17.7054H7.154H7.13621C6.45996 17.4607 5.76591 17.3034 5.05407 17.2509L4.78713 17.1286H4.76934C3.29226 17.0412 1.86858 17.3558 0.622861 18.0724C0.996578 19.2609 1.53046 20.397 2.18891 21.4282C3.80835 20.1698 6.15743 20.2921 7.65229 21.7603C9.02259 23.1061 9.23614 25.1511 8.27515 26.7066C10.1081 27.5456 12.1547 28.0175 14.308 28.0175C22.2094 28.0175 28.6338 21.7253 28.6338 13.9476C28.6516 6.81648 23.2416 0.926342 16.2478 0Z" fill="url(#paint0_linear_3769_2171)"/>
</g>
</g>
<defs>
<linearGradient id="paint0_linear_3769_2171" x1="14.3217" y1="26.2318" x2="14.3217" y2="10.1358" gradientUnits="userSpaceOnUse">
<stop stop-color="#424394"/>
<stop offset="0.9989" stop-color="#DB2530"/>
</linearGradient>
<clipPath id="clip0_3769_2171">
<rect width="130" height="28" fill="white"/>
</clipPath>
</defs>
</svg>
