<svg width="96" height="44" viewBox="0 0 96 44" fill="none" xmlns="http://www.w3.org/2000/svg">
<path d="M12.2242 8.44857L10.6483 27.335C10.4592 29.3699 9.38766 31.0869 7.43364 32.5495C5.41658 34.012 3.08436 34.7115 0.5 34.7115L0.941231 29.4335C1.69763 29.4335 2.32796 29.2427 2.89526 28.7976C3.46255 28.4161 3.77772 27.9709 3.84075 27.335L5.47961 8.44857H12.2242Z" fill="#794EFF"/>
<path d="M21.6778 8.44857L20.2281 25.2365C20.039 28.2253 17.5177 30.5146 14.6181 30.5146H13.0423L14.9333 8.44857H21.6778Z" fill="#794EFF"/>
<path d="M42.8572 13.7266L41.8486 25.3001C41.5965 28.2889 39.1382 30.5146 36.1757 30.5146H34.5998L35.9235 15.8251C35.9866 15.2528 35.7344 14.7441 35.2302 14.3625C34.7259 13.981 34.0956 13.7266 33.3392 13.7266C32.6458 13.7266 31.9525 13.9174 31.3852 14.3625C30.8179 14.7441 30.5027 15.2528 30.4397 15.8251L29.6202 25.3001C29.3681 28.2889 26.9098 30.5146 23.9473 30.5146H22.3714L24.2624 8.44857H31.007L30.8179 10.5471C32.2676 9.14807 34.1586 8.44857 36.4278 8.44857C38.3188 8.44857 39.8946 8.9573 41.0923 9.97475C42.479 10.9922 43.0463 12.264 42.8572 13.7266Z" fill="#794EFF"/>
<path d="M64.9804 8.44857L63.2154 28.4161C63.0263 30.451 61.9548 32.1679 60.0007 33.6305C58.0467 35.0931 55.7145 35.7926 53.1301 35.7926H44.7467C44.7467 32.8674 47.079 30.5146 49.9785 30.5146H53.5714C54.3278 30.5146 54.9581 30.3238 55.5254 29.8786C56.0927 29.4971 56.4079 28.9884 56.4709 28.4161L56.66 26.3176C55.2102 27.7166 53.3192 28.4161 51.05 28.4161C49.1591 28.4161 47.6463 27.9073 46.3856 26.8899C45.1249 25.8724 44.5576 24.6006 44.6837 23.2016L45.5031 13.7266C45.6292 12.264 46.3856 11.0558 47.8354 10.0383C49.2221 9.02089 50.861 8.51216 52.7519 8.51216C55.0211 8.51216 56.7861 9.21166 57.9837 10.6107L58.1728 8.51216H64.9804V8.44857ZM57.6055 15.8251C57.6685 15.2528 57.4164 14.7441 56.9121 14.3625C56.4079 13.981 55.7775 13.7266 55.0211 13.7266C54.3278 13.7266 53.6344 13.9174 53.0671 14.3625C52.4998 14.7441 52.1846 15.2528 52.1216 15.8251L51.6804 21.1031C51.6173 21.6754 51.8695 22.1842 52.3737 22.5657C52.878 22.9473 53.5083 23.2016 54.2647 23.2016C55.0211 23.2016 55.6515 23.0108 56.2188 22.5657C56.7861 22.1842 57.1012 21.6754 57.1643 21.1031L57.6055 15.8251Z" fill="#794EFF"/>
<path d="M74.8127 4.26682L73.0478 24.5523C72.7326 27.9226 69.9591 30.5298 66.5554 30.5298H65.7359L68.0051 4.26682H74.8127Z" fill="#794EFF"/>
<path d="M95.4865 15.8251L94.9192 22.1206H82.7538L82.6908 23.2016C82.6277 23.7739 82.8799 24.2827 83.3841 24.6642C83.8884 25.0457 84.5187 25.3001 85.2121 25.3001C85.9685 25.3001 86.6618 25.1093 87.2291 24.6642C87.7964 24.2827 88.1116 23.7739 88.1746 23.2016H94.9822C94.7931 25.2365 93.7215 26.9535 91.7675 28.4161C89.8135 29.8786 87.4813 30.5781 84.8339 30.5781C82.1865 30.5781 80.0434 29.8786 78.2784 28.4161C76.5765 26.9535 75.7571 25.2365 75.9462 23.2016L76.6396 15.8251C76.8287 13.7902 77.9002 12.0732 79.8543 10.6107C81.8083 9.14807 84.1405 8.44857 86.7249 8.44857C89.3723 8.44857 91.5154 9.14807 93.2803 10.6107C94.8561 12.0732 95.6125 13.7902 95.4865 15.8251ZM88.6789 15.8251C88.7419 15.2528 88.4898 14.7441 87.9855 14.3625C87.4813 13.981 86.8509 13.7266 86.0945 13.7266C85.4012 13.7266 84.7078 13.9174 84.1405 14.3625C83.5732 14.7441 83.258 15.2528 83.195 15.8251L83.132 16.9061H88.5528L88.6789 15.8251Z" fill="#794EFF"/>
<path d="M12.2875 3.43371C12.2875 5.34133 10.7748 6.86742 8.88388 6.86742C6.99299 6.86742 5.48028 5.34133 5.48028 3.43371C5.48028 1.52609 6.99299 0 8.88388 0C10.7748 0 12.2875 1.52609 12.2875 3.43371Z" fill="#794EFF"/>
<path d="M71.2818 36.7581L70.9666 40.5097C70.9036 41.0184 70.6515 41.4 70.2103 41.7179C69.769 42.0358 69.2018 42.2266 68.5715 42.2266C67.8151 42.2266 67.2479 41.9722 66.8697 41.5271L66.8067 41.9722C66.7436 42.8625 65.9873 43.5619 65.1049 43.5619H64.4746L65.2309 34.9776H67.437L67.3739 35.6771C67.8782 35.232 68.4454 34.9776 69.2018 34.9776C69.8321 34.9776 70.3363 35.1684 70.7145 35.4863C71.1557 35.8679 71.3448 36.313 71.2818 36.7581ZM69.0127 37.4575C69.0127 37.2668 68.9497 37.076 68.8236 36.9488C68.6345 36.8217 68.4454 36.7581 68.1933 36.7581C67.9412 36.7581 67.7521 36.8217 67.563 36.9488C67.3739 37.076 67.2479 37.2668 67.2479 37.4575L67.0588 39.8739C67.0588 40.0646 67.1218 40.2554 67.2479 40.3826C67.437 40.5097 67.626 40.5733 67.8782 40.5733C68.1303 40.5733 68.3194 40.5097 68.5085 40.3826C68.6975 40.2554 68.8236 40.0646 68.8236 39.8739L69.0127 37.4575Z" fill="#794EFF"/>
<path d="M78.3411 37.4575L78.026 40.9548C77.963 41.6543 77.3327 42.2266 76.6393 42.2266H75.6939L75.7569 41.5271C75.2527 41.9722 74.6854 42.2266 73.9291 42.2266C73.2988 42.2266 72.7945 42.0358 72.4164 41.7179C72.0382 41.4 71.8491 40.9548 71.8491 40.5097L72.1012 37.394C72.1642 36.7581 72.4794 36.1858 73.1727 35.6771C73.803 35.232 74.5594 34.9776 75.4418 34.9776C76.3242 34.9776 77.0175 35.232 77.5848 35.6771C78.1521 36.2494 78.4042 36.8217 78.3411 37.4575ZM76.1351 37.4575C76.1351 37.2668 76.0721 37.076 75.946 36.9488C75.7569 36.8217 75.5678 36.7581 75.3157 36.7581C75.0636 36.7581 74.8745 36.8217 74.6854 36.9488C74.4963 37.076 74.3703 37.2668 74.3703 37.4575L74.1812 39.8739C74.1812 40.0646 74.2442 40.2554 74.3703 40.3826C74.5594 40.5097 74.7485 40.5733 75.0006 40.5733C75.2527 40.5733 75.4418 40.5097 75.6309 40.3826C75.82 40.2554 75.946 40.0646 75.946 39.8739L76.1351 37.4575Z" fill="#794EFF"/>
<path d="M85.5891 35.0342L85.0218 41.5837C84.9588 42.2196 84.6436 42.7918 83.9503 43.3005C83.32 43.7457 82.5637 44 81.6813 44H78.908V43.8728C78.908 42.9826 79.6013 42.2831 80.4837 42.2831H81.8073C82.0594 42.2831 82.2485 42.2196 82.4376 42.0924C82.6267 41.9652 82.7528 41.7744 82.7528 41.5837L82.8158 40.8842C82.3116 41.3293 81.7443 41.5837 80.9879 41.5837C80.3576 41.5837 79.8534 41.3929 79.4752 41.075C79.097 40.7571 78.908 40.3119 78.908 39.8668L79.3492 35.0342H81.5552L81.177 39.1674C81.177 39.3581 81.2401 39.5489 81.3661 39.6761C81.5552 39.8032 81.7443 39.8668 81.9964 39.8668C82.2485 39.8668 82.4376 39.8032 82.6267 39.6761C82.8158 39.5489 82.8788 39.3581 82.9419 39.1674L83.32 35.0342H85.5891Z" fill="#794EFF"/>
</svg>
