<svg width="101" height="44" viewBox="0 0 101 44" fill="none" xmlns="http://www.w3.org/2000/svg">
<g id="63f6d3901517f93b9279354a_Black 1">
<g id="Clip path group">
<mask id="mask0_3769_2136" style="mask-type:luminance" maskUnits="userSpaceOnUse" x="56" y="6" width="30" height="15">
<g id="clip0_1624_44390">
<path id="Vector" d="M85.0956 6.54639H56.7305V20.2488H85.0956V6.54639Z" fill="white"/>
</g>
</mask>
<g mask="url(#mask0_3769_2136)">
<g id="Group">
<path id="Vector_2" d="M61.9666 9.83062C62.6634 9.83062 63.0117 9.4767 63.0117 8.77279C63.019 8.63563 62.9977 8.49846 62.9492 8.36964C62.9007 8.2408 62.8261 8.12301 62.7298 8.0234C62.6286 7.92855 62.5086 7.85507 62.3774 7.80745C62.2461 7.75985 62.1064 7.73913 61.9666 7.74659C61.8249 7.73998 61.6831 7.76182 61.5502 7.81077C61.4173 7.85972 61.2959 7.93476 61.1934 8.03131C61.0966 8.12915 61.0211 8.24538 60.9716 8.37288C60.922 8.50037 60.8996 8.63646 60.9055 8.77279C60.898 8.91405 60.9196 9.05535 60.9691 9.18822C61.0185 9.32104 61.0949 9.44269 61.1934 9.5459C61.2959 9.64243 61.4173 9.7175 61.5502 9.76645C61.6831 9.8154 61.8249 9.83722 61.9666 9.83062ZM75.7153 18.1648H73.2427C72.5339 18.1648 72.1815 18.5069 72.1815 19.191C72.1741 19.3325 72.1957 19.4741 72.2451 19.6072C72.2946 19.7404 72.3709 19.8624 72.4694 19.966C72.5719 20.0624 72.6934 20.1371 72.8263 20.1857C72.9593 20.2343 73.101 20.2558 73.2427 20.2488H75.7153C76.412 20.2488 76.7603 19.8962 76.7603 19.191C76.7716 19.0534 76.7522 18.9151 76.7037 18.7855C76.6552 18.6561 76.5786 18.5384 76.4792 18.4409C76.3798 18.3432 76.2601 18.2681 76.1281 18.2204C75.9963 18.1727 75.8554 18.1538 75.7153 18.1648ZM84.0071 7.1198C83.7287 7.26604 83.4961 7.48385 83.334 7.74993C83.1719 8.01602 83.0865 8.32037 83.0869 8.63042V13.4293C83.0869 13.9355 82.9823 14.2933 82.7728 14.5029C82.5635 14.7125 82.2125 14.8179 81.7198 14.8192H80.713V16.7293H81.8386C82.8024 16.7293 83.5742 16.4505 84.1541 15.8929C84.7864 15.2813 85.1025 14.4653 85.1025 13.445V6.54639L84.0071 7.1198ZM76.5348 14.5582C76.3636 14.3843 76.2791 14.0936 76.2791 13.6824V10.2102L75.1737 10.7916C74.8946 10.9375 74.6612 11.1551 74.4984 11.4211C74.3357 11.6872 74.2495 11.9918 74.2494 12.3022V13.6863C74.2494 14.0975 74.1629 14.3882 73.9917 14.5622C73.8206 14.7362 73.5306 14.8232 73.1238 14.8232H68.3778C67.9751 14.8232 67.6811 14.7362 67.51 14.5622C67.3388 14.3882 67.2522 14.0975 67.2522 13.6863V10.2102L66.1489 10.7916C65.8703 10.9379 65.6374 11.1557 65.475 11.4217C65.3127 11.6877 65.2268 11.992 65.2266 12.3022V15.7189C65.244 16.0052 65.1976 16.2918 65.0909 16.5589C64.9842 16.8259 64.8195 17.0669 64.6084 17.2652C64.1897 17.6329 63.613 17.8168 62.8788 17.8168H61.0243C60.7023 17.8284 60.3817 17.7709 60.0847 17.6483C59.7877 17.5257 59.5215 17.341 59.3047 17.1069C58.8278 16.5706 58.5798 15.8746 58.6121 15.1633C58.6143 14.3678 58.837 13.5879 59.2564 12.9072L57.7704 13.2117C57.6215 13.2414 57.4819 13.3053 57.363 13.3981C57.244 13.4909 57.149 13.6099 57.0858 13.7456C56.8434 14.293 56.7226 14.8848 56.7314 15.4816C56.7111 16.4752 57.0403 17.4452 57.6637 18.228C58.457 19.2286 59.5773 19.7288 61.0243 19.7288H62.8788C63.8478 19.7578 64.8024 19.4934 65.6132 18.9715C66.0204 18.6947 66.3678 18.3415 66.6353 17.9322C66.9028 17.523 67.0851 17.0658 67.1717 16.5869C67.4981 16.6837 67.8376 16.7317 68.1785 16.7293H73.3212C74.0229 16.7547 74.7114 16.537 75.2662 16.1144C75.8208 16.5376 76.5095 16.7553 77.2114 16.7293H80.7069V14.8192H77.4047C76.9959 14.8192 76.708 14.7322 76.5348 14.5582Z" fill="#000029"/>
</g>
</g>
</g>
<path id="Vector_3" d="M47.8039 27.1001H49.139V35.3369H54.9212V37.3008H46.6641V28.2279C46.6641 27.9288 46.7842 27.6418 46.9979 27.4304C47.2117 27.2189 47.5015 27.1001 47.8039 27.1001Z" fill="#000029"/>
<path id="Vector_4" d="M66.1425 32.9853H60.8402V35.3382H67.0079V37.3008H58.3652V28.2279C58.3652 27.9288 58.4853 27.6418 58.6991 27.4304C58.9128 27.2189 59.2028 27.1001 59.5051 27.1001H66.916V28.4994C66.9162 28.5734 66.9016 28.6467 66.873 28.7152C66.8445 28.7836 66.8025 28.8457 66.7496 28.898C66.6967 28.9504 66.6339 28.9919 66.5648 29.0201C66.4956 29.0484 66.4215 29.0629 66.3467 29.0627H60.8402V31.0227H66.1425V32.9853Z" fill="#000029"/>
<path id="Vector_5" d="M73.6229 34.9656L72.7107 37.3008H70.1621L74.0381 27.806C74.1228 27.5976 74.2687 27.4189 74.457 27.2931C74.6452 27.1672 74.8673 27.1 75.0946 27.1001H77.4989L81.8745 37.3008H79.1917L78.2207 34.9656H73.6229ZM77.5309 33.0018C76.5625 30.6514 76.0924 29.4567 75.8446 28.6787H75.8305C75.6005 29.4365 75.0487 30.9962 74.2655 33.0018H77.5309Z" fill="#000029"/>
<path id="Vector_6" d="M85.2734 37.3008V27.1001H87.5901C87.7786 27.1006 87.964 27.1468 88.13 27.2349C88.2961 27.323 88.4377 27.4503 88.5423 27.6053C91.182 31.5733 92.3231 33.1483 92.942 34.3089H92.9714C92.8704 33.2316 92.886 31.3296 92.886 29.6525V27.1001H95.1603V37.3008H93.0301C92.8392 37.3011 92.6509 37.2538 92.4829 37.1631C92.3149 37.0723 92.1735 36.9412 92.0706 36.7817C90.8208 34.8519 88.0433 30.5782 87.4855 29.5211H87.4561C87.5416 30.784 87.5416 32.2326 87.5416 34.0437V37.3008H85.2734Z" fill="#000029"/>
<g id="Clip path group_2">
<mask id="mask1_3769_2136" style="mask-type:luminance" maskUnits="userSpaceOnUse" x="5" y="5" width="34" height="34">
<g id="clip1_1624_44390">
<path id="Vector_7" d="M38.8863 5.17627H5.18359V38.8233H38.8863V5.17627Z" fill="white"/>
</g>
</mask>
<g mask="url(#mask1_3769_2136)">
<g id="Group_2">
<path id="Vector_8" d="M22.0351 5.17627C12.7282 5.17627 5.18359 12.7085 5.18359 22C5.18359 31.2915 12.7282 38.8236 22.0351 38.8236C31.342 38.8236 38.8866 31.2915 38.8866 22C38.8866 12.7085 31.3417 5.17627 22.0351 5.17627ZM31.0081 23.4451L27.7827 28.9854C27.5255 29.4252 27.1563 29.7906 26.7117 30.0442C26.2672 30.2977 25.7635 30.4313 25.2506 30.4306H18.814C18.3011 30.4309 17.7974 30.2977 17.3529 30.0442C16.9083 29.7906 16.5391 29.4252 16.2819 28.9854L13.0612 23.4451C12.8068 23.0053 12.6734 22.5067 12.6734 22C12.6734 21.4931 12.8071 20.9947 13.0612 20.5548L16.2819 15.0145C16.5395 14.574 16.9093 14.2087 17.3546 13.9548C17.7998 13.7012 18.3044 13.568 18.8177 13.569H25.2542C25.7671 13.5687 26.2708 13.7018 26.7153 13.9554C27.1598 14.2089 27.529 14.5743 27.7864 15.0141L31.0081 20.5545C31.2631 20.9943 31.3968 21.4925 31.3968 21.9996C31.3968 22.5067 31.2627 23.0056 31.0081 23.4451Z" fill="#000029"/>
<path id="Vector_9" d="M28.3798 21.3168H27.6853C27.5644 21.3168 27.4459 21.2851 27.3412 21.2255C27.2364 21.1654 27.1496 21.0797 27.0889 20.9758L26.2704 19.5702L25.4566 18.1646C25.3962 18.0608 25.3645 17.9431 25.3645 17.8231C25.3645 17.7031 25.3962 17.5854 25.4566 17.4815L25.8041 16.8794C25.8867 16.7234 25.9055 16.5415 25.8559 16.3723C25.8064 16.2029 25.6931 16.059 25.5389 15.9707C25.385 15.8823 25.2026 15.8566 25.0299 15.8988C24.8572 15.9411 24.7077 16.0475 24.6125 16.1965L24.2651 16.7927C24.2049 16.8969 24.1181 16.9833 24.0134 17.0433C23.9087 17.1033 23.7898 17.1349 23.6689 17.1346H20.396C20.2751 17.1346 20.1562 17.1033 20.0516 17.0433C19.9468 16.9833 19.8599 16.8969 19.7999 16.7927L19.4524 16.1965C19.4091 16.1151 19.3501 16.0433 19.2781 15.9849C19.206 15.9268 19.1232 15.8837 19.0339 15.8579C18.9448 15.8322 18.8513 15.8249 18.7592 15.8362C18.667 15.8474 18.5782 15.8767 18.4979 15.9229C18.4176 15.969 18.3473 16.0307 18.2919 16.1042C18.236 16.1777 18.1961 16.2618 18.174 16.3512C18.1518 16.4405 18.1482 16.5335 18.163 16.6242C18.1779 16.7149 18.2112 16.8019 18.2608 16.8797L18.6083 17.4818C18.6687 17.5856 18.7004 17.7033 18.7004 17.8234C18.7004 17.9434 18.6687 18.0611 18.6083 18.165L17.7899 19.5706L16.9714 20.9762C16.911 21.0801 16.8241 21.1661 16.7195 21.2258C16.6148 21.2855 16.4962 21.3171 16.3753 21.3171H15.6807C15.4981 21.3171 15.3231 21.389 15.194 21.5172C15.0648 21.6456 14.9922 21.819 14.9922 22.0003C14.9922 22.1816 15.0648 22.3551 15.194 22.4833C15.3231 22.6116 15.4981 22.6835 15.6807 22.6835H16.3753C16.4962 22.6835 16.6148 22.7149 16.7195 22.7748C16.8241 22.8348 16.911 22.9209 16.9714 23.0244L17.7899 24.43L18.6083 25.8356C18.6687 25.9395 18.7004 26.0572 18.7004 26.1772C18.7004 26.2972 18.6687 26.415 18.6083 26.5188L18.2608 27.1149C18.2112 27.1928 18.1779 27.2795 18.163 27.3705C18.1482 27.4612 18.1518 27.5541 18.174 27.6435C18.1961 27.7329 18.2364 27.8169 18.2919 27.8904C18.3477 27.964 18.4176 28.0257 18.4979 28.0718C18.5782 28.118 18.667 28.1473 18.7592 28.1585C18.8513 28.1698 18.9448 28.1621 19.0339 28.1368C19.1232 28.111 19.206 28.0682 19.2781 28.0098C19.3501 27.9518 19.4091 27.8795 19.4524 27.7981L19.7999 27.202C19.8599 27.0978 19.9468 27.0114 20.0516 26.9514C20.1562 26.8914 20.2751 26.8597 20.396 26.86H23.664C23.7849 26.86 23.9038 26.8914 24.0085 26.9514C24.1131 27.0114 24.2 27.0981 24.2601 27.202L24.6076 27.7981C24.7027 27.9472 24.8523 28.0536 25.025 28.0959C25.1977 28.138 25.38 28.1124 25.5339 28.024C25.6878 27.9359 25.8015 27.7918 25.8507 27.6224C25.9002 27.4529 25.8817 27.2712 25.7988 27.1149L25.4514 26.5188C25.391 26.415 25.3592 26.2972 25.3592 26.1772C25.3592 26.0572 25.391 25.9395 25.4514 25.8356L26.2698 24.43L27.0931 23.0244C27.1536 22.9209 27.2407 22.8348 27.3454 22.7752C27.4502 22.7155 27.5687 22.6838 27.6895 22.6838H28.3795C28.5622 22.6838 28.7372 22.6119 28.8663 22.4837C28.9955 22.3554 29.0681 22.182 29.0681 22.0006C29.0681 21.8193 28.9955 21.6458 28.8663 21.5176C28.7372 21.3896 28.5625 21.3168 28.3798 21.3168Z" fill="#000029"/>
</g>
</g>
</g>
</g>
</svg>
