<svg width="154" height="33" viewBox="0 0 154 33" fill="none" xmlns="http://www.w3.org/2000/svg">
<g id="partner/moneygram">
<g id="XMLID_129_">
<g id="XMLID_97_">
<path id="XMLID_381_" d="M51.5675 8.09326H50.7536C49.9591 8.09326 49.6103 8.32842 49.087 9.21025L44.7463 16.3237L42.9441 9.28863C42.7309 8.44599 42.4984 8.11286 41.5876 8.11286H40.9094C40.018 8.11286 39.456 8.64196 39.2816 9.58257L37.2662 21.0268C37.1112 21.889 37.4988 22.3397 38.2351 22.3397H38.5452C39.3203 22.3397 39.6691 21.9478 39.8048 21.1051L41.4326 11.8557L43.0022 18.0481C43.1379 18.6752 43.2541 19.0867 44.4362 19.0867C45.4245 19.0867 45.6571 18.734 46.0059 18.1657L49.8428 11.7969L48.215 21.0464C48.06 21.9282 48.4476 22.3593 49.1646 22.3593H49.494C50.2691 22.3593 50.6179 21.9478 50.7536 21.1247L52.7496 9.60217C52.924 8.68115 52.4783 8.09326 51.5675 8.09326Z" fill="black"/>
<path id="XMLID_378_" d="M63.6798 16.2845C63.5829 13.5019 61.7226 11.4639 58.5833 11.4639C54.9983 11.4639 52.8085 14.4229 52.9054 17.6563C53.0217 20.6153 55.0371 22.5161 58.0019 22.5161C61.6838 22.4965 63.7767 19.5179 63.6798 16.2845ZM58.0213 20.4781C56.3354 20.4781 55.2696 19.2436 55.2115 17.5583C55.1339 15.3831 56.5486 13.4627 58.5639 13.4627C60.1142 13.4627 61.335 14.6972 61.3932 16.4021C61.4513 18.6949 60.0367 20.4781 58.0213 20.4781Z" fill="black"/>
<path id="XMLID_308_" d="M71.6829 11.4639C70.1908 11.4639 69.0087 12.2085 68.2142 13.4627C68.2917 12.0322 67.5166 11.6206 66.7221 11.6206C66.3539 11.6206 66.0632 11.7186 66.0438 11.7578L64.4161 21.066C64.261 22.0262 64.7842 22.3006 65.4819 22.3006H65.7725C66.5283 22.3006 66.8384 21.987 66.9934 21.066L67.9623 15.4811C68.6599 14.2465 69.4351 13.6586 70.6365 13.6586C71.838 13.6586 72.555 14.3837 72.5744 15.5791C72.5937 15.8926 72.5162 16.2845 72.4581 16.7548L71.7023 21.066C71.5473 22.0262 72.0899 22.3006 72.7681 22.3006H73.0588C73.8146 22.3006 74.1246 21.987 74.2796 21.066L75.1129 16.3041C75.2098 15.775 75.2679 15.3047 75.2486 14.8736C75.1904 12.8748 73.8727 11.4639 71.6829 11.4639Z" fill="black"/>
<path id="XMLID_305_" d="M117.531 11.4639C116.31 11.4639 115.399 12.1693 114.779 13.4627C114.876 12.0322 114.101 11.6206 113.306 11.6206C112.919 11.6206 112.648 11.7186 112.628 11.7578L110.981 21.066C110.826 22.0262 111.446 22.3006 112.144 22.3006H112.434C113.093 22.3006 113.403 21.987 113.578 21.066L114.12 17.9502C114.527 15.5203 115.419 13.835 116.853 13.835C117.55 13.835 117.996 14.129 118.287 14.4621C118.325 14.5013 119.411 14.0702 119.372 12.7768C119.314 11.9734 118.519 11.4639 117.531 11.4639Z" fill="black"/>
<path id="XMLID_113_" d="M130.051 11.6207C129.043 11.6207 128.481 12.1106 128.152 13.404C127.512 12.189 126.194 11.4443 124.663 11.4443C121.408 11.4443 119.141 14.3838 119.141 17.7151C119.141 20.4586 120.807 22.4966 123.443 22.4966C125.051 22.4966 126.291 21.8303 127.086 20.4782C126.969 21.8891 127.241 22.3202 128.248 22.3202C129.14 22.3202 129.431 21.9871 129.527 20.9877C129.644 19.1456 130.264 16.1474 130.981 11.9342C130.981 11.8559 130.574 11.6207 130.051 11.6207ZM124.005 20.4782C122.416 20.4782 121.505 19.4592 121.505 17.6563C121.505 15.5399 122.726 13.4236 124.993 13.4236C126.834 13.4236 127.609 14.7953 127.609 16.3042C127.609 18.205 126.33 20.4782 124.005 20.4782Z" fill="black"/>
<path id="XMLID_112_" d="M145.514 11.4639C143.731 11.4639 142.549 12.3849 141.715 13.737C141.308 12.3065 140.088 11.4639 138.537 11.4639C137.181 11.4639 135.999 12.1105 135.185 13.3451C135.224 12.0322 134.468 11.6402 133.693 11.6402C133.305 11.6402 133.034 11.7382 133.015 11.7774L131.387 21.0856C131.232 22.0458 131.755 22.3202 132.453 22.3202H132.743C133.402 22.3202 133.809 22.0458 133.964 21.0856L134.972 15.3047C135.708 14.1485 136.406 13.6586 137.491 13.6586C138.557 13.6586 139.216 14.4621 139.216 15.6771C139.216 15.873 139.196 16.0886 139.157 16.3237L138.344 21.0856C138.189 22.0458 138.731 22.3202 139.409 22.3202H139.681C140.34 22.3202 140.766 22.0262 140.921 21.0856L141.929 15.3047C142.665 14.1485 143.363 13.6586 144.448 13.6586C145.475 13.6586 146.231 14.2857 146.231 15.5791C146.231 15.8926 146.172 16.2845 146.095 16.7548L145.339 21.066C145.184 22.0262 145.707 22.3006 146.405 22.3006H146.696C147.451 22.3006 147.761 21.987 147.917 21.066L148.75 16.3041C148.847 15.775 148.885 15.3047 148.885 14.8736C148.905 12.7768 147.51 11.4639 145.514 11.4639Z" fill="black"/>
<path id="XMLID_108_" d="M87.0097 16.1279C87.0097 14.6778 86.719 13.7176 86.0795 12.8749C85.3819 11.9735 84.0835 11.4248 82.572 11.4248C77.9987 11.4248 76.3516 14.8345 76.3516 17.7936C76.3516 20.6154 78.3669 22.4967 81.4675 22.4967C84.568 22.4967 86.312 21.1053 86.312 19.9883C86.312 19.2437 85.7888 18.9889 85.1881 18.9301C84.3742 19.9883 83.2503 20.4978 81.7194 20.4978C80.3629 20.4978 78.7545 19.9687 78.6382 17.5192H85.6726C86.4283 17.5388 87.0097 17.1077 87.0097 16.1279ZM84.7424 15.7948H78.8708C79.4327 14.2858 80.7311 13.3452 82.3782 13.3452C83.2115 13.3452 83.851 13.5804 84.2773 14.0507C84.6455 14.4818 84.7812 15.0697 84.7424 15.7948Z" fill="black"/>
<path id="XMLID_107_" d="M108.849 14.6973H104.663C104.16 14.6973 103.927 14.8149 103.772 14.9717C103.52 15.246 103.384 15.8731 103.384 16.1475C103.404 16.5786 103.772 16.8333 104.45 16.8333H107.415C107.008 18.9301 105.69 20.3802 103.423 20.3802C101.04 20.3802 99.4506 18.8517 99.3537 16.2454C99.2374 12.9729 101.388 10.2686 104.431 10.2686C106.214 10.2686 107.609 11.2288 108.171 12.5026C108.248 12.6005 109.896 12.6005 109.837 11.17C109.818 10.6605 109.527 10.053 108.985 9.54354C108.113 8.66171 106.466 7.89746 104.276 7.89746C101.214 7.89746 98.7917 9.60233 97.5321 12.0715C97.5321 12.0519 97.5127 12.0519 97.5127 12.0519C97.2608 11.7187 96.8539 11.562 96.4469 11.562C95.7687 11.562 95.323 11.7775 94.6641 12.9533L91.4085 18.7342L90.1877 12.9729C89.9552 11.8951 89.5676 11.562 88.8894 11.562C88.0948 11.562 87.4553 12.1498 87.4747 12.287L89.8001 21.5952L87.3972 25.5928C87.1453 26.0239 87.1259 26.5922 88.0367 26.5922H88.5405C89.4901 26.5922 89.8001 26.0044 90.2652 25.2009L96.8151 13.9919C96.6213 14.7757 96.5244 15.6184 96.5632 16.4806C96.6795 20.2431 99.1987 22.5162 102.881 22.5162C104.625 22.5162 106.02 21.85 106.795 20.831C106.737 21.9283 107.318 22.3595 108.093 22.3595C108.52 22.3595 108.83 22.2223 108.83 22.1439L109.896 16.1083C110.07 15.1677 109.721 14.6973 108.849 14.6973Z" fill="black"/>
<g id="XMLID_99_">
<path id="XMLID_104_" d="M151.657 21.1641C151.735 21.3013 151.793 21.36 151.89 21.36C151.89 21.36 151.909 21.5168 151.715 21.5168C151.599 21.5168 151.521 21.458 151.405 21.2425L151.192 20.8505H150.998L150.901 21.3992C150.882 21.4776 150.843 21.5168 150.766 21.5168H150.727C150.649 21.5168 150.611 21.4776 150.63 21.3796L150.901 19.9687C150.921 19.8707 150.979 19.8315 151.076 19.8315H151.483C151.851 19.8315 152.064 19.9883 152.064 20.2627C152.064 20.5958 151.851 20.8114 151.483 20.831L151.657 21.1641ZM151.405 20.635C151.657 20.635 151.793 20.4978 151.773 20.2823C151.773 20.1255 151.657 20.0275 151.444 20.0275H151.153L151.037 20.6154H151.405V20.635Z" fill="black"/>
<path id="XMLID_101_" d="M151.347 19.3807C152.103 19.3807 152.703 20.0077 152.703 20.7524C152.703 21.5166 152.083 22.1241 151.347 22.1241C150.591 22.1241 149.99 21.4971 149.99 20.7524C149.971 20.0077 150.591 19.3807 151.347 19.3807ZM151.347 19.1455C150.475 19.1455 149.758 19.8706 149.758 20.7524C149.758 21.6342 150.475 22.3593 151.347 22.3593C152.219 22.3593 152.936 21.6342 152.936 20.7524C152.936 19.8706 152.219 19.1455 151.347 19.1455Z" fill="black"/>
</g>
</g>
<path id="XMLID_96_" d="M16.453 32.04C24.94 32.04 31.82 25.0826 31.82 16.5002C31.82 7.91785 24.94 0.960449 16.453 0.960449C7.966 0.960449 1.08594 7.91785 1.08594 16.5002C1.08594 25.0826 7.966 32.04 16.453 32.04Z" fill="white"/>
<path id="XMLID_13_" d="M31.82 16.5002C31.82 25.0834 24.9407 32.04 16.453 32.04C7.96526 32.04 1.08594 25.0834 1.08594 16.5002C1.08594 14.1291 1.60915 11.8951 2.53932 9.89632C1.91921 11.4836 1.62853 13.0709 1.62853 14.5406C1.62853 21.5757 7.24826 22.5947 9.6318 22.5751C13.2749 22.5359 17.5188 20.733 21.1038 17.4017C21.1038 17.4017 20.6387 20.0276 20.5031 20.831C20.3674 21.6148 20.8713 22.3007 21.6464 22.3007H21.9565C22.751 22.3007 23.3323 21.6344 23.468 20.831L24.7663 13.502C24.9213 12.679 24.3981 12.0323 23.5842 12.0323H16.3367C15.5228 12.0323 14.7865 12.4634 14.6508 13.2865C14.6508 13.3257 14.5927 13.5608 14.5927 13.6196C14.4764 14.4034 15.019 14.9913 15.7941 14.9913H19.5729C19.5148 15.0501 19.4566 15.1089 19.3985 15.1677C16.7824 17.6564 13.5462 19.0281 10.872 19.0281C8.21718 19.0281 5.23291 17.3233 5.23291 13.502C5.23291 5.56556 12.5967 0.960449 16.453 0.960449C24.9213 0.960449 31.82 7.9171 31.82 16.5002Z" fill="#DF2127"/>
</g>
</g>
</svg>
