<svg width="128" height="22" viewBox="0 0 128 22" fill="none" xmlns="http://www.w3.org/2000/svg">
<g id="logo 1" clip-path="url(#clip0_3769_2156)">
<g id="Group">
<g id="Group_2">
<path id="Vector" d="M32.7647 13.1832C32.7647 13.3854 32.7647 13.554 32.7647 13.7226C32.7647 13.9249 32.7647 14.0935 32.7479 14.2621H19.6956C19.7124 14.9533 19.8638 15.5939 20.1665 16.2176C20.4693 16.8414 20.8393 17.3471 21.3271 17.8023C21.8149 18.2406 22.37 18.5946 23.0091 18.8644C23.6483 19.1172 24.3211 19.2353 25.0275 19.2353C26.1376 19.2353 27.0964 18.9824 27.9206 18.5104C28.7279 18.0215 29.3503 17.4146 29.8212 16.7234L32.1087 18.5609C31.2173 19.7241 30.2081 20.5839 28.997 21.1402C27.8196 21.6797 26.474 21.9494 25.0275 21.9494C23.766 21.9494 22.6391 21.7471 21.5794 21.3257C20.5198 20.9042 19.6115 20.331 18.8378 19.5724C18.0809 18.8307 17.4754 17.9203 17.038 16.8582C16.6007 15.7962 16.3652 14.6161 16.3652 13.318C16.3652 12.0536 16.5839 10.8736 17.0044 9.77779C17.4249 8.682 18.0472 7.77166 18.7873 7.01304C19.5442 6.25441 20.4693 5.64752 21.4953 5.22606C22.5382 4.80461 23.6651 4.58545 24.8425 4.58545C26.0535 4.58545 27.13 4.78775 28.1224 5.17549C29.1148 5.56323 29.9558 6.13641 30.6117 6.87817C31.3014 7.61993 31.8228 8.51342 32.1928 9.57549C32.5965 10.6881 32.7647 11.8682 32.7647 13.1832ZM29.4512 11.8682C29.4344 11.2276 29.3334 10.6038 29.1316 10.0307C28.9298 9.45748 28.6438 8.96859 28.2738 8.54714C27.9037 8.12568 27.416 7.80537 26.8441 7.5525C26.2722 7.29963 25.6162 7.18162 24.8425 7.18162C24.1529 7.18162 23.4801 7.29963 22.8914 7.5525C22.269 7.80537 21.7644 8.12568 21.2935 8.54714C20.8562 8.96859 20.4861 9.45748 20.1834 10.0307C19.8806 10.6038 19.7124 11.2107 19.6956 11.8682H29.4512Z" fill="#0069B1"/>
<path id="Vector_2" d="M65.6483 5.09131L61.9311 17.7856L57.9112 5.09131H54.4799L50.5272 17.7856L46.7763 5.09131H43.2441L48.7275 21.5618H52.1083L56.1282 9.20472H56.1955L60.2491 21.5618H63.6468L69.0796 5.09131H65.6483Z" fill="#0069B1"/>
<path id="Vector_3" d="M86.4708 13.2843C86.4708 14.5655 86.2521 15.7287 85.798 16.7908C85.3606 17.8528 84.7047 18.7632 83.9309 19.5555C83.1404 20.3141 82.1985 20.9379 81.122 21.3593C80.0287 21.7808 78.885 22 77.6235 22C76.362 22 75.2014 21.7808 74.1249 21.3593C73.0316 20.9379 72.1065 20.3141 71.316 19.5555C70.5254 18.7969 69.9031 17.8528 69.4658 16.7908C69.0284 15.7287 68.793 14.5655 68.793 13.2843C68.793 12.0199 69.0116 10.8398 69.4658 9.79459C69.9031 8.73252 70.5254 7.83904 71.316 7.08042C72.1065 6.3218 73.0484 5.7149 74.1249 5.29344C75.2182 4.87199 76.362 4.65283 77.6235 4.65283C78.885 4.65283 80.0455 4.87199 81.122 5.29344C82.2153 5.7149 83.1404 6.30494 83.9309 7.08042C84.7215 7.8559 85.3606 8.76624 85.798 9.79459C86.2521 10.8567 86.4708 12.0199 86.4708 13.2843ZM83.0731 13.3011C83.0731 12.5088 82.9554 11.767 82.7031 11.059C82.4508 10.3341 82.1144 9.72716 81.6434 9.1877C81.1725 8.64823 80.6006 8.22678 79.911 7.87276C79.2214 7.55245 78.4476 7.38387 77.573 7.38387C76.6815 7.38387 75.9246 7.55245 75.235 7.87276C74.5454 8.19306 73.9735 8.63138 73.5026 9.1877C73.0316 9.74402 72.6952 10.3509 72.4429 11.059C72.1906 11.7839 72.0729 12.5256 72.0729 13.3011C72.0729 14.0934 72.1906 14.8352 72.4429 15.5433C72.6952 16.2513 73.0316 16.9088 73.5026 17.4482C73.9735 17.9877 74.5454 18.4429 75.235 18.7632C75.9246 19.0835 76.6984 19.2521 77.573 19.2521C78.4645 19.2521 79.2214 19.0835 79.911 18.7632C80.6006 18.4429 81.1725 18.0046 81.6434 17.4482C82.1144 16.9088 82.4508 16.2682 82.7031 15.5433C82.9722 14.8352 83.0731 14.0934 83.0731 13.3011Z" fill="#0069B1"/>
<path id="Vector_4" d="M102.265 0H99.002V21.5617H102.265V0Z" fill="#0069B1"/>
<path id="Vector_5" d="M41.9487 7.58621V5.09119H37.8447V0H34.6152V16.6897C34.6152 18.3923 35.0357 19.6736 35.8431 20.5502C36.6505 21.41 37.8447 21.8314 39.3921 21.8314C39.9135 21.8314 40.3845 21.7808 40.8723 21.7134C41.2591 21.646 41.6123 21.5617 41.9319 21.4437V18.7464C41.6796 18.8475 41.4105 18.9149 41.1246 18.9992C40.7713 19.0667 40.4518 19.1004 40.1658 19.1004C39.3585 19.1004 38.7529 18.8812 38.3829 18.4598C38.0129 18.0383 37.8447 17.3303 37.8447 16.3356V7.60306L41.9487 7.58621Z" fill="#0069B1"/>
<path id="Vector_6" d="M96.2448 4.65283C95.1347 4.65283 94.1423 4.95628 93.2677 5.54632C92.3762 6.13636 91.5857 6.91184 91.1484 7.88961V5.09115H88.0703V21.5616H91.3334V12.9134C91.3334 12.2222 91.4343 11.5479 91.6025 10.9072C91.7707 10.2666 92.0735 9.72716 92.4435 9.22141C92.8135 8.73253 93.3013 8.36164 93.8732 8.0582C94.4451 7.75475 95.1347 7.61988 95.9252 7.61988C96.4467 7.61988 96.9344 7.67046 97.4054 7.78846V4.75398C97.069 4.66969 96.699 4.65283 96.2448 4.65283Z" fill="#0069B1"/>
<path id="Vector_7" d="M14.2802 8.73278C14.0279 7.92359 13.6578 7.2324 13.1532 6.60864C12.6318 6.01861 12.0263 5.51286 11.2526 5.17569C10.4957 4.82167 9.57056 4.63623 8.51091 4.63623C7.92221 4.63623 7.33351 4.70366 6.77845 4.8891C6.24021 5.05769 5.71879 5.27684 5.24783 5.56343C4.77687 5.86688 4.39001 6.18719 4.01997 6.57493C3.64993 6.94581 3.27989 7.36726 3.06124 7.80558V5.10826H0V21.5788H3.26307V12.8293C3.26307 11.1941 3.68357 9.86228 4.49093 8.90136C5.29829 7.90673 6.35795 7.41784 7.65309 7.41784C8.40999 7.41784 9.03233 7.56956 9.5201 7.8393C10.0079 8.10903 10.3779 8.47991 10.647 8.95194C10.9162 9.42397 11.118 9.94658 11.2189 10.5535C11.3198 11.1435 11.3703 11.7841 11.3703 12.4585V21.5788H14.6502V11.3627C14.6502 10.4186 14.5325 9.54198 14.2802 8.73278Z" fill="#0069B1"/>
<path id="Vector_8" d="M109.195 5.09131H113.215L106.286 13.3856L113.115 21.5618H109.095L102.266 13.3856L109.195 5.09131Z" fill="#0069B1"/>
</g>
<path id="Vector_9" d="M121.071 5.09131H117.051L123.981 13.3856L117.152 21.5618H121.172L128.001 13.3856L121.071 5.09131Z" fill="#E12E56"/>
</g>
</g>
<defs>
<clipPath id="clip0_3769_2156">
<rect width="128" height="22" fill="white"/>
</clipPath>
</defs>
</svg>
