<svg width="104" height="32" viewBox="0 0 104 32" fill="none" xmlns="http://www.w3.org/2000/svg">
<g id="AAICO 1">
<path id="Vector" d="M8.37843 16.6748H7.07843V23.2723H4.33398V5.65477H8.37843C11.1229 5.65477 12.4951 7.17727 12.4951 10.0048V12.3248C12.4951 15.1523 11.1229 16.6748 8.37843 16.6748ZM9.75065 9.85977C9.75065 8.62727 9.2451 8.19227 8.37843 8.19227H7.07843V14.1373H8.37843C9.2451 14.1373 9.75065 13.7023 9.75065 12.4698V9.85977ZM13.5784 23.2723V5.65477H16.3229V20.7348H20.8729V23.2723H13.5784ZM25.6395 23.4898C22.9673 23.4898 21.5229 21.8948 21.5229 19.0673V5.65477H24.2673V19.2123C24.2673 20.4448 24.8451 20.9523 25.7118 20.9523C26.5784 20.9523 27.1562 20.5173 27.1562 19.2123V5.65477H29.7562V19.0673C29.7562 21.8948 28.384 23.4898 25.6395 23.4898ZM35.3895 16.0223V13.4848H39.2173V19.0673C39.2173 21.8948 37.8451 23.4898 35.1007 23.4898C32.3562 23.4898 30.984 21.8948 30.984 19.0673V9.93227C30.984 7.10477 32.3562 5.50977 35.1007 5.50977C37.8451 5.50977 39.2173 7.10477 39.2173 9.93227V11.6723H36.6173V9.78727C36.6173 8.55477 36.0395 8.04727 35.1729 8.04727C34.3062 8.04727 33.7284 8.55477 33.7284 9.78727V19.2848C33.7284 20.5173 34.3062 21.0248 35.1729 21.0248C36.0395 21.0248 36.6173 20.5898 36.6173 19.2848V16.0223H35.3895Z" fill="#070E34"/>
<path id="Vector_2" d="M45.7175 7.68506H42.612L40.4453 21.1701H42.3953L42.7564 18.7051H45.3564L45.7175 21.1701H47.8842L45.7175 7.68506ZM44.0564 10.0776L45.0675 16.8926H43.0453L44.0564 10.0776Z" fill="#070E34"/>
<path id="Vector_3" d="M53.0832 21.1701H55.2499V7.68506H53.3721V15.7326L51.2054 7.68506H48.5332V21.1701H50.4832V11.3826L53.0832 21.1701Z" fill="#070E34"/>
<path id="Vector_4" d="M56.4785 21.1701H59.8007C61.8952 21.1701 62.9785 20.0101 62.9785 17.8351V11.0201C62.9785 8.84506 61.9674 7.68506 59.8007 7.68506H56.4785V21.1701ZM59.8007 9.64256C60.4507 9.64256 60.8841 10.0051 60.8841 10.9476V17.9801C60.8841 18.9226 60.4507 19.2851 59.8007 19.2851H58.6452V9.64256H59.8007Z" fill="#070E34"/>
<path id="Vector_5" d="M68.4663 16.6753H67.1663V23.2728H64.4219V5.65527H68.4663C71.2108 5.65527 72.583 7.17777 72.583 10.0053V12.3253C72.583 15.1528 71.2108 16.6753 68.4663 16.6753ZM69.8385 9.86027C69.8385 8.62777 69.333 8.19277 68.4663 8.19277H67.1663V14.1378H68.4663C69.333 14.1378 69.8385 13.7028 69.8385 12.4703V9.86027ZM73.5941 23.2728V5.65527H76.3385V20.7353H80.8885V23.2728H73.5941ZM88.7608 23.2728L88.2552 20.0828H84.8608L84.3552 23.2728H81.8274L84.6441 5.65527H88.6885L91.5052 23.2728H88.6885H88.7608ZM86.5941 8.77277L85.2941 17.6903H87.9663L86.6663 8.77277H86.5941ZM96.1997 17.4728V23.2728H93.4552V17.4728L89.9885 5.72777H92.8774L94.9719 13.7753L97.0663 5.72777H99.6663L96.1997 17.4728Z" fill="#070E34"/>
</g>
</svg>
