<svg width="153" height="21" viewBox="0 0 153 21" fill="none" xmlns="http://www.w3.org/2000/svg">
<g id="Group 515411">
<path id="path-1" d="M33.8004 20C32.6439 20 31.5372 19.8349 30.4801 19.5047C29.423 19.1745 28.5963 18.7595 28 18.2597L28.8674 16.7604C29.4637 17.2245 30.2135 17.6037 31.117 17.8983C32.0205 18.1928 32.9602 18.34 33.9359 18.34C35.237 18.34 36.1992 18.1392 36.8226 17.7376C37.446 17.336 37.7577 16.7693 37.7577 16.0375C37.7577 15.5199 37.586 15.1138 37.2427 14.8193C36.8994 14.5248 36.4657 14.3017 35.9417 14.1499C35.4177 13.9982 34.722 13.851 33.8546 13.7082C32.6981 13.494 31.7676 13.2753 31.0628 13.0522C30.3581 12.8291 29.7573 12.4498 29.2604 11.9143C28.7634 11.3788 28.515 10.6381 28.515 9.6921C28.515 8.51405 29.0119 7.5502 30.0057 6.80054C30.9996 6.05087 32.3819 5.67604 34.1528 5.67604C35.0743 5.67604 35.9959 5.79652 36.9175 6.03748C37.839 6.27845 38.5979 6.59527 39.1942 6.98795L38.354 8.51406C37.1795 7.71084 35.7791 7.30924 34.1528 7.30924C32.924 7.30924 31.9979 7.52343 31.3745 7.95181C30.7511 8.38019 30.4394 8.94243 30.4394 9.63855C30.4394 10.174 30.6156 10.6024 30.968 10.9237C31.3203 11.245 31.7585 11.4815 32.2825 11.6332C32.8066 11.7849 33.5294 11.9411 34.4509 12.1017C35.5893 12.3159 36.5018 12.5301 37.1885 12.7443C37.8752 12.9585 38.4624 13.3244 38.9503 13.842C39.4382 14.3597 39.6821 15.0736 39.6821 15.9839C39.6821 17.2155 39.1626 18.1928 38.1236 18.9157C37.0846 19.6386 35.6435 20 33.8004 20ZM88.0798 0V19.8661H86.2367V17.0817C85.6584 18.0277 84.895 18.7506 83.9463 19.2503C82.9977 19.7501 81.927 20 80.7344 20C79.3973 20 78.1866 19.6966 77.1024 19.0897C76.0182 18.4828 75.1689 17.635 74.5546 16.5462C73.9402 15.4574 73.633 14.2169 73.633 12.8246C73.633 11.4324 73.9402 10.1919 74.5546 9.10308C75.1689 8.01427 76.0182 7.17091 77.1024 6.57296C78.1866 5.97501 79.3973 5.67604 80.7344 5.67604C81.8909 5.67604 82.9344 5.91254 83.865 6.38554C84.7956 6.85855 85.5591 7.5502 86.1554 8.46051V0H88.0798ZM80.8971 18.3133C81.8909 18.3133 82.7899 18.0857 83.594 17.6305C84.3981 17.1754 85.0305 16.5283 85.4913 15.6894C85.9521 14.8505 86.1825 13.8956 86.1825 12.8246C86.1825 11.7537 85.9521 10.7988 85.4913 9.95984C85.0305 9.12092 84.3981 8.4739 83.594 8.01874C82.7899 7.56359 81.8909 7.33601 80.8971 7.33601C79.8851 7.33601 78.9771 7.56359 78.173 8.01874C77.3689 8.4739 76.7365 9.12092 76.2757 9.95984C75.8149 10.7988 75.5845 11.7537 75.5845 12.8246C75.5845 13.8956 75.8149 14.8505 76.2757 15.6894C76.7365 16.5283 77.3689 17.1754 78.173 17.6305C78.9771 18.0857 79.8851 18.3133 80.8971 18.3133ZM96.9069 20C95.7504 20 94.6437 19.8349 93.5866 19.5047C92.5295 19.1745 91.7028 18.7595 91.1065 18.2597L91.9738 16.7604C92.5702 17.2245 93.32 17.6037 94.2235 17.8983C95.127 18.1928 96.0667 18.34 97.0424 18.34C98.3435 18.34 99.3057 18.1392 99.9291 17.7376C100.552 17.336 100.864 16.7693 100.864 16.0375C100.864 15.5199 100.693 15.1138 100.349 14.8193C100.006 14.5248 99.5722 14.3017 99.0482 14.1499C98.5242 13.9982 97.8285 13.851 96.9611 13.7082C95.8046 13.494 94.8741 13.2753 94.1693 13.0522C93.4646 12.8291 92.8638 12.4498 92.3669 11.9143C91.8699 11.3788 91.6215 10.6381 91.6215 9.6921C91.6215 8.51405 92.1184 7.5502 93.1123 6.80054C94.1061 6.05087 95.4884 5.67604 97.2593 5.67604C98.1808 5.67604 99.1024 5.79652 100.024 6.03748C100.946 6.27845 101.704 6.59527 102.301 6.98795L101.46 8.51406C100.286 7.71084 98.8856 7.30924 97.2593 7.30924C96.0305 7.30924 95.1044 7.52343 94.481 7.95181C93.8576 8.38019 93.5459 8.94243 93.5459 9.63855C93.5459 10.174 93.7221 10.6024 94.0745 10.9237C94.4268 11.245 94.865 11.4815 95.389 11.6332C95.9131 11.7849 96.6359 11.9411 97.5574 12.1017C98.6958 12.3159 99.6083 12.5301 100.295 12.7443C100.982 12.9585 101.569 13.3244 102.057 13.842C102.545 14.3597 102.789 15.0736 102.789 15.9839C102.789 17.2155 102.269 18.1928 101.23 18.9157C100.191 19.6386 98.75 20 96.9069 20ZM112.454 19.0094C112.092 19.3307 111.65 19.5761 111.126 19.7456C110.602 19.9152 110.05 20 109.472 20C108.135 20 107.105 19.643 106.382 18.9291C105.659 18.2151 105.298 17.2066 105.298 15.9036V2.70415H107.222V5.78313H111.532V7.38956H107.222V15.7965C107.222 16.6354 107.43 17.2735 107.846 17.7108C108.261 18.1482 108.867 18.3668 109.662 18.3668C110.529 18.3668 111.234 18.1258 111.776 17.6439L112.454 19.0094ZM128.96 5.78313V19.8661H127.117V17.0817C126.539 18.0277 125.776 18.7506 124.827 19.2503C123.878 19.7501 122.808 20 121.615 20C120.278 20 119.067 19.6966 117.983 19.0897C116.899 18.4828 116.05 17.635 115.435 16.5462C114.821 15.4574 114.514 14.2169 114.514 12.8246C114.514 11.4324 114.821 10.1919 115.435 9.10308C116.05 8.01427 116.899 7.17091 117.983 6.57296C119.067 5.97501 120.278 5.67604 121.615 5.67604C122.772 5.67604 123.815 5.91254 124.746 6.38554C125.676 6.85855 126.44 7.5502 127.036 8.46051V5.78313H128.96ZM121.778 18.3133C122.772 18.3133 123.671 18.0857 124.475 17.6305C125.279 17.1754 125.911 16.5283 126.372 15.6894C126.833 14.8505 127.063 13.8956 127.063 12.8246C127.063 11.7537 126.833 10.7988 126.372 9.95984C125.911 9.12092 125.279 8.4739 124.475 8.01874C123.671 7.56359 122.772 7.33601 121.778 7.33601C120.766 7.33601 119.858 7.56359 119.054 8.01874C118.25 8.4739 117.617 9.12092 117.156 9.95984C116.696 10.7988 116.465 11.7537 116.465 12.8246C116.465 13.8956 116.696 14.8505 117.156 15.6894C117.617 16.5283 118.25 17.1754 119.054 17.6305C119.858 18.0857 120.766 18.3133 121.778 18.3133ZM134.271 8.54083C134.722 7.59482 135.396 6.88086 136.29 6.39893C137.184 5.917 138.291 5.67604 139.61 5.67604V7.52343L139.15 7.49665C137.65 7.49665 136.475 7.9518 135.626 8.86211C134.777 9.77243 134.352 11.0486 134.352 12.6908V19.8661H132.428V5.78313H134.271V8.54083ZM147.118 20C145.962 20 144.855 19.8349 143.798 19.5047C142.741 19.1745 141.914 18.7595 141.318 18.2597L142.185 16.7604C142.782 17.2245 143.531 17.6037 144.435 17.8983C145.338 18.1928 146.278 18.34 147.254 18.34C148.555 18.34 149.517 18.1392 150.14 17.7376C150.764 17.336 151.076 16.7693 151.076 16.0375C151.076 15.5199 150.904 15.1138 150.561 14.8193C150.217 14.5248 149.784 14.3017 149.26 14.1499C148.736 13.9982 148.04 13.851 147.173 13.7082C146.016 13.494 145.085 13.2753 144.381 13.0522C143.676 12.8291 143.075 12.4498 142.578 11.9143C142.081 11.3788 141.833 10.6381 141.833 9.6921C141.833 8.51405 142.33 7.5502 143.324 6.80054C144.317 6.05087 145.7 5.67604 147.471 5.67604C148.392 5.67604 149.314 5.79652 150.235 6.03748C151.157 6.27845 151.916 6.59527 152.512 6.98795L151.672 8.51406C150.497 7.71084 149.097 7.30924 147.471 7.30924C146.242 7.30924 145.316 7.52343 144.692 7.95181C144.069 8.38019 143.757 8.94243 143.757 9.63855C143.757 10.174 143.933 10.6024 144.286 10.9237C144.638 11.245 145.076 11.4815 145.6 11.6332C146.124 11.7849 146.847 11.9411 147.769 12.1017C148.907 12.3159 149.82 12.5301 150.506 12.7443C151.193 12.9585 151.78 13.3244 152.268 13.842C152.756 14.3597 153 15.0736 153 15.9839C153 17.2155 152.481 18.1928 151.441 18.9157C150.402 19.6386 148.961 20 147.118 20ZM71.4517 13.3118H59.7754C59.8816 14.7981 60.4389 15.9989 61.4473 16.9142C62.4557 17.8295 63.7295 18.2872 65.2686 18.2872C66.1355 18.2872 66.9316 18.1286 67.6569 17.8114C68.3823 17.4942 69.0103 17.0275 69.5411 16.4112L70.6025 17.6619C69.9833 18.4231 69.2094 19.0031 68.2806 19.4019C67.3518 19.8006 66.3301 20 65.2155 20C63.7825 20 62.5132 19.6873 61.4075 19.062C60.3017 18.4367 59.4393 17.5712 58.8201 16.4656C58.2009 15.36 57.8913 14.1093 57.8913 12.7137C57.8913 11.318 58.1876 10.0674 58.7803 8.96177C59.373 7.85613 60.1868 6.99519 61.2217 6.37893C62.2567 5.76267 63.4198 5.45455 64.7113 5.45455C66.0028 5.45455 67.1616 5.76267 68.1877 6.37893C69.2138 6.99519 70.0187 7.85159 70.6025 8.94817C71.1864 10.0448 71.4783 11.2999 71.4783 12.7137L71.4517 13.3118ZM64.7113 7.113C63.3668 7.113 62.239 7.55253 61.3279 8.43161C60.4167 9.31068 59.8993 10.4571 59.7754 11.8709H69.6737C69.5499 10.4571 69.0324 9.31068 68.1213 8.43161C67.2102 7.55253 66.0736 7.113 64.7113 7.113ZM55.1474 13.3118H43.4711C43.5772 14.7981 44.1345 15.9989 45.1429 16.9142C46.1513 17.8295 47.4251 18.2872 48.9643 18.2872C49.8311 18.2872 50.6272 18.1286 51.3526 17.8114C52.0779 17.4942 52.706 17.0275 53.2367 16.4112L54.2982 17.6619C53.679 18.4231 52.905 19.0031 51.9762 19.4019C51.0474 19.8006 50.0257 20 48.9112 20C47.4782 20 46.2088 19.6873 45.1031 19.062C43.9974 18.4367 43.135 17.5712 42.5158 16.4656C41.8966 15.36 41.587 14.1093 41.587 12.7137C41.587 11.318 41.8833 10.0674 42.476 8.96177C43.0686 7.85613 43.8824 6.99519 44.9174 6.37893C45.9523 5.76267 47.1155 5.45455 48.407 5.45455C49.6984 5.45455 50.8572 5.76267 51.8833 6.37893C52.9094 6.99519 53.7144 7.85159 54.2982 8.94817C54.882 10.0448 55.1739 11.2999 55.1739 12.7137L55.1474 13.3118ZM48.407 7.113C47.0624 7.113 45.9346 7.55253 45.0235 8.43161C44.1124 9.31068 43.5949 10.4571 43.4711 11.8709H53.3694C53.2456 10.4571 52.7281 9.31068 51.817 8.43161C50.9059 7.55253 49.7692 7.113 48.407 7.113Z" fill="#1F1F1F"/>
<path id="path-3" d="M8.18697 1C7.94447 1 7.74988 1.20873 7.758 1.46445C7.8089 3.00194 8.00905 5.53023 8.3589 9.05068C6.95395 8.20535 4.73682 7.21229 1.70751 6.07104C1.4804 5.98565 1.22764 6.11486 1.15322 6.35748L0.0211348 10.0492C-0.0545659 10.2967 0.079728 10.562 0.31795 10.6275C2.55518 11.2473 4.90917 11.8107 7.37993 12.3159C6.40138 13.2669 4.80439 15.1785 2.58769 18.0519C2.43201 18.2539 2.46794 18.5553 2.66809 18.7071L5.56739 20.9137C5.75771 21.0582 6.02373 21.0171 6.16144 20.817C7.24606 19.2406 8.48892 17.0431 9.8896 14.2234C11.3899 16.9532 12.7051 19.1494 13.8346 20.8134C13.971 21.0158 14.2366 21.0591 14.4286 20.9159L17.3797 18.7075C17.5824 18.5562 17.6192 18.2507 17.4614 18.0479C15.3379 15.3194 13.681 13.4088 12.4908 12.3159C14.8482 12.0303 17.2514 11.4737 19.7003 10.6469C19.9266 10.5705 20.0523 10.3112 19.9792 10.0727L18.8377 6.35115C18.7641 6.11079 18.5156 5.98022 18.2889 6.06064C15.7442 6.96922 13.4745 7.95505 11.4806 9.01815C11.8595 6.0367 12.0892 3.51925 12.1692 1.46626C12.179 1.21009 11.9831 1 11.7398 1H8.18697Z" fill="#1F1F1F"/>
</g>
</svg>
