<svg width="171" height="21" viewBox="0 0 171 21" fill="none" xmlns="http://www.w3.org/2000/svg">
<g id="western-union-seeklogo 1">
<g id="Clip path group">
<mask id="mask0_3769_1803" style="mask-type:luminance" maskUnits="userSpaceOnUse" x="6" y="1" width="17" height="19">
<g id="2380b6f55a">
<path id="Vector" d="M6.41211 1.3999H22.7996V19.4522H6.41211V1.3999Z" fill="white"/>
</g>
</mask>
<g mask="url(#mask0_3769_1803)">
<g id="Group">
<path id="Vector_2" d="M15.9845 17.0787C17.5959 19.8186 20.2372 19.8186 21.8515 17.0787L22.7532 15.5475L14.6764 1.80176H7.00586L15.9845 17.0787Z" fill="#FFDD00"/>
</g>
</g>
</g>
<g id="Clip path group_2">
<mask id="mask1_3769_1803" style="mask-type:luminance" maskUnits="userSpaceOnUse" x="17" y="1" width="22" height="19">
<g id="e14471736d">
<path id="Vector_3" d="M17.0996 1.3999H38.4746V19.4522H17.0996V1.3999Z" fill="white"/>
</g>
</mask>
<g mask="url(#mask1_3769_1803)">
<g id="Group_2">
<path id="Vector_4" d="M32.9973 11.208C32.4073 12.2061 31.0185 12.2033 30.4312 11.2053L24.8954 1.80176H17.2305L26.2146 17.0842C27.8289 19.824 30.4646 19.824 32.0761 17.0842L38.0906 6.84941L35.132 1.80176H27.4699L32.9973 11.208Z" fill="#FFDD00"/>
</g>
</g>
</g>
<path id="Vector_5" d="M46.3032 17.1447H48.9194L48.9417 17.0627C50.5532 11.1811 51.2156 8.66816 51.4855 7.1123C51.7472 8.66269 52.3762 11.2111 53.9181 17.0627L53.9403 17.1447H56.615L60.3361 3.69434H57.9008L57.8786 3.77637C56.2615 9.88223 55.6437 12.3541 55.3653 13.9291C55.0397 12.2365 54.3383 9.44473 52.827 3.77637L52.8048 3.69434H50.2609L50.2387 3.77637C48.6662 9.82207 48.0065 12.4115 47.7227 14.0932C47.4137 12.4553 46.7207 9.74004 45.1482 3.77637L45.1287 3.69434H42.6016L46.281 17.0627L46.3032 17.1447Z" fill="black"/>
<path id="Vector_6" d="M64.4699 17.3306C66.4459 17.3306 68.319 16.2696 69.0677 14.6946L67.2614 13.7923L67.2225 13.7868L67.1891 13.8579C66.9692 14.3036 66.1704 15.3427 64.4894 15.3427C62.9614 15.3427 61.8008 14.3884 61.6227 13.0075H69.3961L69.3989 12.9009C69.4462 11.0169 68.9258 9.46924 67.8932 8.43018C66.997 7.52783 65.7613 7.04932 64.3196 7.04932C62.8974 7.04932 61.6004 7.57705 60.6708 8.53135C59.7496 9.47744 59.2402 10.7845 59.2402 12.2091C59.2402 15.2251 61.3916 17.3306 64.4699 17.3306ZM64.3196 8.99893C65.7613 8.99893 66.8551 9.904 66.9664 11.1673H61.6227C61.7869 9.904 62.9001 8.99893 64.3196 8.99893Z" fill="black"/>
<path id="Vector_7" d="M74.3141 17.3305C76.8579 17.3305 78.4416 16.1684 78.4416 14.2953C78.4416 12.0777 76.3875 11.5527 74.7371 11.1316C73.596 10.8418 72.6135 10.5902 72.6135 9.8793C72.6135 9.30781 73.2286 8.90586 74.1081 8.90586C75.0711 8.90586 75.7391 9.40625 75.8476 10.2102L75.9144 10.6176L75.9617 10.6094L77.9851 10.243C77.9851 8.37812 76.3068 7.06836 74.1276 7.06836C71.8843 7.06836 70.3174 8.28516 70.3174 10.027C70.3174 12.1324 72.3102 12.6574 73.9105 13.0785C75.0711 13.3848 76.0703 13.6473 76.0703 14.3883C76.0703 15.0336 75.4273 15.4355 74.3892 15.4355C73.1423 15.4355 72.3046 14.8668 72.2016 13.948L72.1821 13.7977L70.0391 14.1969C70.0391 16.2395 72.3658 17.3305 74.3141 17.3305Z" fill="black"/>
<path id="Vector_8" d="M80.2507 15.3123C80.2507 16.4252 80.9687 17.3303 82.1572 17.3303C83.6295 17.3303 84.0609 17.1443 84.0609 17.1443V15.2686C84.0609 15.2686 83.6211 15.3396 83.084 15.3396C82.7361 15.3396 82.4912 15.1346 82.4912 14.8229V9.14902H84.047L84.0247 7.2541H82.4912V4.44043L80.2507 4.99277V7.2541H79.0817L79.0762 9.14902H80.2507V15.3123Z" fill="black"/>
<path id="Vector_9" d="M97.8064 8.50661V7.25427H95.8359V17.1445H98.2044L98.185 11.0961C98.2156 10.4863 98.4243 10.0215 98.8028 9.70974C99.301 9.30232 100.075 9.16286 101.105 9.29685L101.23 9.31326L101.249 7.2488L101.155 7.23786C99.7324 7.04646 98.4494 7.47302 97.8064 8.50661Z" fill="black"/>
<path id="Vector_10" d="M107.676 7.04932C106.254 7.04932 104.918 7.60713 104.255 8.66807V7.2544H102.207V17.1446H104.592V11.8345C104.592 10.131 105.502 9.11104 107.022 9.11104C108.063 9.11104 109.304 9.55947 109.304 11.6868V17.1446H111.692V11.3696C111.692 8.18408 109.619 7.04932 107.676 7.04932Z" fill="black"/>
<path id="Vector_11" d="M124.525 11.5748C124.525 13.8607 123.423 15.1186 121.422 15.1186C119.435 15.1186 118.341 13.8607 118.341 11.5748V3.69434H115.934V11.5201C115.934 15.1568 117.985 17.3307 121.422 17.3307C124.862 17.3307 126.913 15.1568 126.913 11.5201V3.69434H124.525V11.5748Z" fill="black"/>
<path id="Vector_12" d="M133.808 7.04932C132.385 7.04932 131.05 7.60713 130.39 8.66807V7.2544H128.336V17.1446H130.727V11.8345C130.727 10.131 131.634 9.11104 133.154 9.11104C134.195 9.11104 135.436 9.55947 135.436 11.6868V17.1446H137.824V11.3696C137.824 8.18408 135.75 7.04932 133.808 7.04932Z" fill="black"/>
<path id="Vector_13" d="M139.303 17.1446H141.674V7.25439H139.303V17.1446Z" fill="black"/>
<path id="Vector_14" d="M140.496 3.60938C139.722 3.60938 139.115 4.19727 139.115 4.94375C139.115 5.67109 139.736 6.26172 140.496 6.26172C141.247 6.26172 141.859 5.67109 141.859 4.94375C141.859 4.2082 141.247 3.60938 140.496 3.60938Z" fill="black"/>
<path id="Vector_15" d="M148.079 7.04932C146.607 7.04932 145.257 7.56885 144.286 8.51221C143.312 9.4583 142.777 10.7626 142.777 12.1899C142.777 15.1677 145.007 17.3306 148.079 17.3306C151.163 17.3306 153.401 15.1677 153.401 12.1899C153.401 10.7626 152.864 9.45557 151.89 8.51221C150.915 7.56885 149.563 7.04932 148.079 7.04932ZM148.079 15.1923C146.376 15.1923 145.09 13.9017 145.09 12.1899C145.09 10.4782 146.376 9.1876 148.079 9.1876C149.805 9.1876 151.107 10.4782 151.107 12.1899C151.107 13.9017 149.805 15.1923 148.079 15.1923Z" fill="black"/>
<path id="Vector_16" d="M159.979 7.04932C158.554 7.04932 157.221 7.60713 156.558 8.66807V7.2544H154.51V17.1446H156.898V11.8345C156.898 10.131 157.805 9.11104 159.327 9.11104C160.366 9.11104 161.607 9.55947 161.607 11.6868V17.1446H163.995V11.3696C163.995 8.18408 161.921 7.04932 159.979 7.04932Z" fill="black"/>
<path id="Vector_17" d="M89.7356 7.04932C88.3134 7.04932 87.0164 7.57705 86.084 8.53135C85.1628 9.47744 84.6562 10.7845 84.6562 12.2091C84.6562 15.2251 86.8049 17.3306 89.8831 17.3306C91.862 17.3306 93.7323 16.2696 94.481 14.6946L92.6774 13.7923L92.6385 13.7868L92.6051 13.8579C92.3852 14.3036 91.5836 15.3427 89.9026 15.3427C88.3774 15.3427 87.214 14.3884 87.0387 13.0075H94.8122L94.8149 12.9009C94.8623 11.0169 94.3418 9.46924 93.3064 8.43018C92.4103 7.52783 91.1773 7.04932 89.7356 7.04932ZM87.0359 11.1673C87.2001 9.904 88.3162 8.99893 89.7356 8.99893C91.1745 8.99893 92.2711 9.904 92.3824 11.1673H87.0359Z" fill="black"/>
</g>
</svg>
