<svg width="181" height="63" viewBox="0 0 181 63" fill="none" xmlns="http://www.w3.org/2000/svg">
<g clip-path="url(#clip0_75_1084)">
<path d="M127.266 59.9089L127.357 54.1642H130.275C131.339 54.1642 131.917 54.8329 131.917 55.6536C131.917 56.3526 131.461 56.839 130.944 56.9605C131.552 57.0517 132.038 57.6596 132.038 58.3587C132.038 59.2706 131.461 59.9089 130.275 59.9089H127.266ZM130.914 55.8055C130.914 55.4104 130.64 55.076 130.123 55.076H128.391V56.5654H130.123C130.579 56.5654 130.914 56.2311 130.914 55.8055ZM131.005 58.2371C131.005 57.842 130.731 57.4469 130.154 57.4469H128.391V59.0578H130.154C130.67 59.0274 131.005 58.7235 131.005 58.2371ZM134.531 59.9089V57.538L132.312 54.1642H133.467L135.017 56.6262L136.567 54.1642H137.722L135.503 57.538V59.9089H134.531ZM143.74 59.9089L142.464 57.7812H141.43V59.9089H140.427V54.1642H142.92C144.075 54.1642 144.804 54.8937 144.804 55.9575C144.804 56.9909 144.135 57.5077 143.436 57.6292L144.834 59.8785H143.74V59.9089ZM143.862 55.9879C143.862 55.4408 143.467 55.076 142.889 55.076H141.491V56.8694H142.889C143.467 56.8694 143.862 56.5046 143.862 55.9879ZM146.02 59.9089V54.1642H149.971V55.076H147.023V56.5654H149.88V57.4773H147.023V59.0882H149.941V60L146.02 59.9089ZM151.187 59.9089V54.1642H155.138V55.076H152.22V56.5654H155.078V57.4773H152.22V59.9696H151.187V59.9089ZM156.172 54.1642H157.205V59.9089H156.172V54.1642ZM162.828 59.9089L159.819 55.8055V59.9089H158.847V54.1642H159.88L162.798 58.1459V54.1642H163.831V59.9089H162.828ZM165.442 54.1642H166.415V59.9089H165.442V54.1642ZM169.242 59.9089V55.076H167.509V54.1642H171.977V55.076H170.245V59.9089H169.242ZM173.041 54.1642H174.075V59.9089H173.041V54.1642ZM177.266 59.9089L175.017 54.1642H176.172L177.904 58.8146L179.637 54.1642H180.792L178.543 59.9089H177.266Z" fill="#949493"/>
<path d="M96.0168 48.4192L100.789 33.9816L105.591 48.4192H96.0168Z" fill="#949493"/>
<path d="M165.531 48.4192L170.334 33.9816L175.106 48.4192H165.531Z" fill="#949493"/>
<path d="M123.038 48.4191L125.925 36.2915L128.904 48.4191H123.038Z" fill="#949493"/>
<path d="M181.76 48.4194V0L1 48.4194H73.3707V44.4376L81.6077 33.4042H73.3707V29.0577H88.2035V33.0091L79.936 44.0729H88.4162V48.4194H91.3342L98.629 29.0577H104.951L112.246 48.4194H118.751L113.188 29.0577H118.781L121.729 41.9756L125.042 29.0577H128.872L132.185 41.9756L135.103 29.0577H140.726L135.194 48.4194H149.51V40.6382L142.155 29.0577H147.778L152.003 36.2005L156.167 29.0577H161.82L154.526 40.6382V48.4194H160.878L168.173 29.0577H174.495L181.76 48.4194Z" fill="#949493"/>
</g>
<defs>
<clipPath id="clip0_75_1084">
<rect width="181" height="63" fill="white"/>
</clipPath>
</defs>
</svg>
