<svg width="35" height="36" viewBox="0 0 35 36" fill="none" xmlns="http://www.w3.org/2000/svg">
<path d="M17.2958 0.941406H17.7336C17.7988 0.953383 17.8666 0.969903 17.9318 0.973895C18.5399 1.01781 19.1521 1.03459 19.759 1.10645C20.76 1.22781 21.7473 1.44397 22.7078 1.75104C26.1994 2.84511 29.2602 5.0063 31.4597 7.93049C33.6591 10.8547 34.8865 14.3947 34.9693 18.0528C34.9749 18.1341 34.9852 18.2145 35 18.2946V18.5883C34.9863 18.6443 34.9766 18.7011 34.9708 18.7585C34.9561 19.0446 34.9587 19.3314 34.9308 19.6162C34.8683 20.2324 34.8177 20.8521 34.7152 21.4616C34.4845 22.8458 34.077 24.1955 33.5029 25.476C31.9572 29.0172 29.2731 31.941 25.8765 33.7828C23.4164 35.145 20.6571 35.876 17.8454 35.9115C17.7782 35.9162 17.7114 35.9266 17.6457 35.9414H17.3543C17.2936 35.9265 17.2316 35.9161 17.1693 35.9115C16.3934 35.9035 15.6192 35.8404 14.8525 35.7218C13.6394 35.5396 12.4495 35.227 11.3034 34.79C7.9016 33.5101 4.98896 31.1913 2.97826 28.1635C1.10695 25.407 0.0824299 22.1639 0.030702 18.8326C0.0250374 18.7606 0.0147196 18.6888 0 18.6181V18.2686C0.0149356 18.2132 0.0246995 18.1567 0.02924 18.0996C0.0746977 15.5692 0.671544 13.0787 1.77796 10.8025C3.71215 6.83686 7.0694 3.74574 11.1809 2.14481C13.0592 1.41153 15.0523 1.01567 17.0682 0.975195C17.1447 0.969224 17.2208 0.95759 17.2958 0.941406ZM19.204 28.6612V28.439C19.204 26.0241 19.204 23.6097 19.204 21.1939C19.195 20.7024 19.2628 20.2115 19.405 19.741C19.5082 19.3461 19.7141 18.9868 20.0018 18.6974C20.2896 18.408 20.6488 18.1999 21.0431 18.0944C21.4373 17.9872 21.849 17.9585 22.2541 18.0112C22.5555 18.0371 22.8468 18.1324 23.1053 18.2894C23.3639 18.4463 23.5826 18.6616 23.7445 18.917C24.0838 19.4721 24.2578 20.112 24.2462 20.7624C24.2661 22.4152 24.2556 24.0662 24.2556 25.719C24.2556 26.6434 24.2556 27.567 24.2556 28.4897C24.2556 28.5882 24.2556 28.6664 24.3886 28.6651C25.7797 28.6651 27.1699 28.6651 28.5592 28.6651C28.6723 28.6651 28.7029 28.622 28.6923 28.5209C28.6816 28.4197 28.6923 28.2974 28.6923 28.1856C28.6843 25.1528 28.6816 22.1188 28.6643 19.0873C28.6528 18.4315 28.534 17.7815 28.313 17.1639C27.9735 16.0686 27.2254 15.1453 26.2238 14.5869C25.1522 14.0168 23.925 13.8091 22.7252 13.993C21.5262 14.1431 20.4262 14.7343 19.6392 15.6512C19.4835 15.8269 19.3478 16.0179 19.1815 16.2295V14.3777H19.007C17.7042 14.3777 16.4015 14.3777 15.0987 14.3777C14.9457 14.3777 14.9124 14.4289 14.9124 14.57C14.9124 19.2072 14.9124 23.8442 14.9124 28.4806C14.9124 28.6203 14.9457 28.6729 15.0987 28.6716C16.4055 28.6716 17.7137 28.6716 19.0218 28.6716L19.204 28.6612ZM12.1377 14.3764H7.88604C7.69175 14.3764 7.69045 14.3758 7.69045 14.5661C7.69045 19.2042 7.69045 23.8416 7.69045 28.478C7.69045 28.6244 7.72903 28.6664 7.87808 28.6664C9.24342 28.6664 10.6101 28.6664 11.9754 28.6664C12.0273 28.6664 12.0806 28.6664 12.1405 28.6664L12.1377 14.3764ZM12.5263 9.89804C12.5334 9.55027 12.4709 9.20501 12.3424 8.88177C12.2139 8.55854 12.0221 8.26426 11.7782 8.01626C11.5343 7.76827 11.2433 7.57049 10.9223 7.43665C10.6012 7.30281 10.2566 7.23521 9.9088 7.23652C9.21097 7.23827 8.54206 7.51564 8.048 8.00846C7.55393 8.50129 7.2747 9.16902 7.27119 9.86685C7.27245 10.5674 7.5483 11.24 8.03939 11.7395C8.53048 12.2391 9.19769 12.5268 9.89808 12.5401C10.5964 12.5358 11.2647 12.2555 11.7571 11.7603C12.2495 11.2652 12.5259 10.595 12.5263 9.89674V9.89804Z" fill="#0B66C2"/>
</svg>
