<svg width="15" height="15" viewBox="0 0 15 15" fill="none" xmlns="http://www.w3.org/2000/svg">
<g clip-path="url(#clip0_7188_139)">
<path d="M8.66634 7.49984C9.79436 7.49984 10.708 6.58619 10.708 5.45817C10.708 4.33015 9.79436 3.4165 8.66634 3.4165C7.53832 3.4165 6.62467 4.33015 6.62467 5.45817C6.62467 6.58619 7.53832 7.49984 8.66634 7.49984ZM8.66634 8.52067C7.30353 8.52067 4.58301 9.20463 4.58301 10.5623V11.0728C4.58301 11.3535 4.8127 11.5832 5.09342 11.5832H12.2393C12.52 11.5832 12.7497 11.3535 12.7497 11.0728V10.5623C12.7497 9.20463 10.0292 8.52067 8.66634 8.52067Z" fill="#101214"/>
<path d="M3.99967 5.16683V6.3335H5.16634C5.48717 6.3335 5.74967 6.596 5.74967 6.91683C5.74967 7.23766 5.48717 7.50016 5.16634 7.50016H3.99967V8.66683C3.99967 8.98766 3.73717 9.25016 3.41634 9.25016C3.09551 9.25016 2.83301 8.98766 2.83301 8.66683V7.50016H1.66634C1.34551 7.50016 1.08301 7.23766 1.08301 6.91683C1.08301 6.596 1.34551 6.3335 1.66634 6.3335H2.83301V5.16683C2.83301 4.846 3.09551 4.5835 3.41634 4.5835C3.73717 4.5835 3.99967 4.846 3.99967 5.16683Z" fill="#101214"/>
</g>
<defs>
<clipPath id="clip0_7188_139">
<rect width="14" height="14" fill="white" transform="translate(0.5 0.5)"/>
</clipPath>
</defs>
</svg>
