<svg width="29" height="29" viewBox="0 0 29 29" fill="none" xmlns="http://www.w3.org/2000/svg">
<mask id="mask0_7188_189" style="mask-type:luminance" maskUnits="userSpaceOnUse" x="0" y="0" width="29" height="29">
<path d="M28.728 0.454346H0.273438V28.9089H28.728V0.454346Z" fill="white"/>
</mask>
<g mask="url(#mask0_7188_189)">
<mask id="mask1_7188_189" style="mask-type:alpha" maskUnits="userSpaceOnUse" x="0" y="0" width="29" height="29">
<path d="M14.5007 28.9089C22.3582 28.9089 28.728 22.5391 28.728 14.6816C28.728 6.82412 22.3582 0.454346 14.5007 0.454346C6.64321 0.454346 0.273438 6.82412 0.273438 14.6816C0.273438 22.5391 6.64321 28.9089 14.5007 28.9089Z" fill="#231D9A"/>
</mask>
<g mask="url(#mask1_7188_189)">
<path d="M28.728 0.454346H0.273438V28.9089H28.728V0.454346Z" fill="#231D9A"/>
<path d="M7.36635 19.4268L4.99805 21.7951L7.36635 24.1634L9.73466 21.7951L7.36635 19.4268Z" fill="white"/>
<path d="M17.4851 9.34058L15.9971 10.8287L17.4851 12.3167L18.9732 10.8287L17.4851 9.34058Z" fill="white"/>
<path d="M21.6355 4.59814L20.1475 6.08621L21.6355 7.57425L23.1236 6.08621L21.6355 4.59814Z" fill="white"/>
<path d="M21.6355 21.1963L20.1475 22.6843L21.6355 24.1724L23.1236 22.6843L21.6355 21.1963Z" fill="white"/>
<path d="M25.1921 8.7478L23.7041 10.2359L25.1921 11.7239L26.6802 10.2359L25.1921 8.7478Z" fill="white"/>
<path d="M22.8002 12.9124L21.9199 13.7926L22.8002 14.6729L23.6805 13.7926L22.8002 12.9124Z" fill="white"/>
<mask id="mask2_7188_189" style="mask-type:alpha" maskUnits="userSpaceOnUse" x="0" y="0" width="14" height="13">
<path d="M13.9227 0.454346H0.273438V12.9032H13.9227V0.454346Z" fill="#D9D9D9"/>
</mask>
<g mask="url(#mask2_7188_189)">
<path d="M5.52805 4.38163V4.2396L-0.721091 0.12085C-1.00643 0.474337 -1.35504 0.869903 -1.57324 1.25705L3.25563 4.38162L5.52805 4.38163Z" fill="#F0263C"/>
<path d="M5.38625 3.586L0.00328743 0.0211301C-0.124536 0.163156 -0.252358 0.305182 -0.36598 0.447207L5.40043 4.25352V4.38135H3.51149L-1.0051 1.39878C-1.09031 1.56921 -1.17553 1.73964 -1.26074 1.91007L2.48891 4.38135H1.48763H0.102713C0.060105 4.56598 0.0174973 4.75061 -0.0109079 4.94946H5.95432V-1.01562C5.75549 -0.987219 5.57085 -0.944609 5.3862 -0.902002L5.38625 3.586Z" fill="white"/>
<path d="M-0.0107421 7.22192C0.0176631 7.42075 0.0602707 7.60539 0.102879 7.78999H2.48908L-1.31738 10.318C-1.24637 10.4885 -1.16115 10.6589 -1.06174 10.8293L3.51166 7.78999H5.3864V7.90363L-0.436821 11.7667C-0.323203 11.9229 -0.19538 12.0649 -0.0675555 12.1928L5.3864 8.58534V12.9313C5.57104 12.9739 5.75568 13.0165 5.95451 13.0449V8.20187V7.52016V7.22192H-0.0107421Z" fill="white"/>
<path d="M14.1914 4.94939C14.163 4.75054 14.1204 4.56591 14.0778 4.38127H11.692L14.9015 2.25089C14.8163 2.08046 14.7453 1.91003 14.6459 1.7396L10.6694 4.38127H8.79468V4.26765L14.447 0.546573C14.3334 0.390345 14.2056 0.248319 14.0778 0.120496L8.79468 3.58593V-0.873687C8.61003 -0.916293 8.42543 -0.958899 8.22656 -0.987305V3.9694V4.65112V4.94939H14.1914Z" fill="white"/>
<path d="M8.22661 7.22192L8.22656 13.1869C8.42543 13.1586 8.61003 13.1159 8.79468 13.0733V8.58534L13.9642 11.9087C14.092 11.7667 14.2198 11.6247 14.3334 11.4826L8.79468 7.90363V7.78999H10.6694L14.5039 10.2896C14.589 10.1192 14.6743 9.94876 14.7595 9.77834L11.692 7.78999H14.0778C14.1204 7.60539 14.163 7.42075 14.1914 7.22192H8.22661Z" fill="white"/>
<path d="M14.76 1.68273C14.5754 1.35607 14.3623 1.02941 14.1351 0.745361L8.79492 4.26761V4.38123H10.6697L14.76 1.68273Z" fill="#F0263C"/>
<path d="M-0.635742 10.5456C-0.451108 10.8722 -0.238068 11.1989 -0.0108279 11.4829L5.38615 7.90388V7.79028H3.51141L-0.635742 10.5456Z" fill="#F0263C"/>
<path d="M8.79492 7.79028V7.90388L13.9931 11.2841C14.2345 10.9859 14.4333 10.6734 14.618 10.3467L10.6697 7.79028H8.79492Z" fill="#F0263C"/>
<path d="M14.0492 4.94956H8.22615V4.6513V3.96957V-0.873483C7.85686 -0.944495 7.47339 -0.9729 7.08992 -0.9729C6.70645 -0.9729 6.32298 -0.944495 5.95374 -0.873483V4.94956H0.130668C0.0596552 5.3188 0.03125 5.70227 0.03125 6.08574C0.03125 6.46921 0.0596552 6.85268 0.130668 7.22197H5.95374L5.95369 13.045C6.32298 13.1018 6.70645 13.1444 7.08992 13.1444C7.47339 13.1444 7.85686 13.116 8.22615 13.045V7.22197H14.0492C14.106 6.85268 14.1486 6.46921 14.1486 6.08574C14.1486 5.70227 14.1202 5.3188 14.0492 4.94956Z" fill="#F0263C"/>
</g>
</g>
</g>
</svg>
