<svg width="30" height="29" viewBox="0 0 30 29" fill="none" xmlns="http://www.w3.org/2000/svg">
<g clip-path="url(#clip0_7188_179)">
<mask id="mask0_7188_179" style="mask-type:alpha" maskUnits="userSpaceOnUse" x="0" y="0" width="31" height="29">
<path d="M27.7265 0.454346H3.73205C2.17302 0.454346 0.90918 2.15295 0.90918 4.24829V25.115C0.90918 27.2103 2.17302 28.9089 3.73205 28.9089H27.7265C29.2855 28.9089 30.5493 27.2103 30.5493 25.115V4.24829C30.5493 2.15295 29.2855 0.454346 27.7265 0.454346Z" fill="white"/>
</mask>
<g mask="url(#mask0_7188_179)">
<path d="M27.7265 0.454346H3.73205C2.17302 0.454346 0.90918 2.15295 0.90918 4.24829V25.115C0.90918 27.2103 2.17302 28.9089 3.73205 28.9089H27.7265C29.2855 28.9089 30.5493 27.2103 30.5493 25.115V4.24829C30.5493 2.15295 29.2855 0.454346 27.7265 0.454346Z" fill="white"/>
<path fill-rule="evenodd" clip-rule="evenodd" d="M15.136 19.4241C17.7538 19.4241 19.8784 17.2995 19.8784 14.6816C19.8784 12.0638 17.7538 9.93921 15.136 9.93921C12.5182 9.93921 10.3936 12.0638 10.3936 14.6816C10.3936 17.2995 12.5182 19.4241 15.136 19.4241ZM15.136 17.5271C16.7067 17.5271 17.9814 16.2523 17.9814 14.6816C17.9814 13.1109 16.7067 11.8362 15.136 11.8362C13.5653 11.8362 12.2905 13.1109 12.2905 14.6816C12.2905 16.2523 13.5653 17.5271 15.136 17.5271Z" fill="#00008A"/>
<path d="M15.1368 15.8671C15.7916 15.8671 16.3224 15.3362 16.3224 14.6815C16.3224 14.0267 15.7916 13.4958 15.1368 13.4958C14.482 13.4958 13.9512 14.0267 13.9512 14.6815C13.9512 15.3362 14.482 15.8671 15.1368 15.8671Z" fill="#00008A"/>
<path fill-rule="evenodd" clip-rule="evenodd" d="M0.90918 19.4241H30.5493V28.9089H0.90918V19.4241Z" fill="#018900"/>
<path fill-rule="evenodd" clip-rule="evenodd" d="M0.90918 0.454346H30.5493V9.93919H0.90918V0.454346Z" fill="#FF991E"/>
</g>
</g>
<defs>
<clipPath id="clip0_7188_179">
<rect x="0.90918" y="0.454346" width="29.6402" height="28.4545" rx="3.55682" fill="white"/>
</clipPath>
</defs>
</svg>
