<svg width="30" height="29" viewBox="0 0 30 29" fill="none" xmlns="http://www.w3.org/2000/svg">
<g clip-path="url(#clip0_7188_230)">
<rect x="0.636719" y="0.454346" width="28.4545" height="28.4545" rx="14.2273" fill="white"/>
<mask id="mask0_7188_230" style="mask-type:luminance" maskUnits="userSpaceOnUse" x="0" y="0" width="30" height="29">
<path d="M29.0913 0.454346H0.636719V28.9089H29.0913V0.454346Z" fill="white"/>
</mask>
<g mask="url(#mask0_7188_230)">
<path d="M22.7189 2.82556C20.4662 1.31391 17.769 0.454346 14.8643 0.454346V2.82556H22.7189Z" fill="#F0263C"/>
<path d="M22.7189 2.82544H14.8643V5.19666H25.4754C24.6455 4.30745 23.7266 3.50717 22.7189 2.82544Z" fill="white"/>
<path d="M14.8643 7.56802H27.1945C26.6907 6.70842 26.1275 5.9378 25.4754 5.19678H14.8643V7.56802Z" fill="#F0263C"/>
<path d="M14.8643 9.93907H28.2912C27.9948 9.10917 27.6391 8.30889 27.1945 7.56787H14.8643V9.93907Z" fill="white"/>
<path d="M14.8643 12.3104H28.884C28.7358 11.4805 28.5284 10.7098 28.2616 9.93921H14.8643V12.3104Z" fill="#F0263C"/>
<path d="M14.8643 14.6815H29.0915C29.0915 13.8813 29.0323 13.081 28.884 12.3103H14.8643V14.6815Z" fill="white"/>
<path d="M0.636719 14.6816C0.636719 15.4819 0.695999 16.2822 0.8442 17.0528H28.8838C29.0023 16.2822 29.0913 15.4819 29.0913 14.6816H14.864H0.636719Z" fill="#F0263C"/>
<path d="M1.43851 19.4242H28.2629C28.5296 18.6535 28.7371 17.8829 28.8853 17.053H0.845703C0.964264 17.8829 1.17174 18.6535 1.43851 19.4242Z" fill="white"/>
<path d="M2.53516 21.7953H27.1661C27.6107 21.0543 27.9664 20.254 28.2628 19.4241H1.43848C1.73488 20.254 2.1202 21.0543 2.53516 21.7953Z" fill="#F0263C"/>
<path d="M4.25233 24.1664H25.445C26.0971 23.4254 26.6603 22.6547 27.1642 21.7952H2.5332C3.03708 22.6547 3.60025 23.4254 4.25233 24.1664Z" fill="white"/>
<path d="M7.01045 26.5376H22.7494C23.7571 25.8559 24.676 25.0556 25.4762 24.1664H4.25391C5.08385 25.0556 6.00267 25.8559 7.01045 26.5376Z" fill="#F0263C"/>
<path d="M7.00977 26.5378C9.26243 28.0495 11.9597 28.9091 14.8644 28.9091C17.7691 28.9091 20.4664 28.0495 22.719 26.5378H7.00977Z" fill="white"/>
<path d="M7.00934 2.82556C6.0016 3.50728 5.08274 4.30757 4.28246 5.19678C3.63037 5.93776 3.06721 6.70843 2.56333 7.56798C2.11872 8.309 1.76304 9.10928 1.46664 9.93918C1.19988 10.7099 0.992401 11.4805 0.8442 12.3104C0.695999 13.0811 0.636719 13.8813 0.636719 14.6816H14.864V12.3104V9.93918V7.56798V5.19678V2.82556V0.454346C11.9593 0.454346 9.262 1.31391 7.00934 2.82556Z" fill="#231D9A"/>
<path d="M11.3077 11.1245C12.6173 11.1245 13.679 10.0629 13.679 8.75328C13.679 7.4437 12.6173 6.38208 11.3077 6.38208C9.99814 6.38208 8.93652 7.4437 8.93652 8.75328C8.93652 10.0629 9.99814 11.1245 11.3077 11.1245Z" fill="#FFD400"/>
<path d="M5.379 8.75339C5.379 6.79714 6.97957 5.19657 8.93582 5.19657C9.41008 5.19657 9.85468 5.28549 10.2696 5.46333C9.55826 4.92981 8.69871 4.60376 7.7502 4.60376C5.46792 4.60376 3.60059 6.47111 3.60059 8.75339C3.60059 11.0357 5.46792 12.903 7.7502 12.903C8.69871 12.903 9.55826 12.577 10.2696 12.0434C9.85468 12.2213 9.41008 12.3102 8.93582 12.3102C6.97957 12.3102 5.379 10.7096 5.379 8.75339Z" fill="#FFD400"/>
</g>
</g>
<rect x="0.85902" y="0.676647" width="28.0099" height="28.0099" rx="14.005" stroke="#0E0F0C" stroke-opacity="0.12" stroke-width="0.444602"/>
<defs>
<clipPath id="clip0_7188_230">
<rect x="0.636719" y="0.454346" width="28.4545" height="28.4545" rx="14.2273" fill="white"/>
</clipPath>
</defs>
</svg>
