<svg width="30" height="29" viewBox="0 0 30 29" fill="none" xmlns="http://www.w3.org/2000/svg">
<g clip-path="url(#clip0_7188_217)">
<rect x="0.955078" y="0.454346" width="28.4545" height="28.4545" rx="14.2273" fill="white"/>
<mask id="mask0_7188_217" style="mask-type:luminance" maskUnits="userSpaceOnUse" x="0" y="0" width="30" height="29">
<path d="M29.4096 0.454346H0.955078V28.9089H29.4096V0.454346Z" fill="white"/>
</mask>
<g mask="url(#mask0_7188_217)">
<path d="M15.1824 0.454346C7.3277 0.454346 0.955078 6.82696 0.955078 14.6816H29.4096C29.4096 6.82696 23.037 0.454346 15.1824 0.454346Z" fill="#F0263C"/>
<path d="M15.1824 28.9089C23.037 28.9089 29.4096 22.5363 29.4096 14.6816H0.955078C0.955078 22.5363 7.3277 28.9089 15.1824 28.9089Z" fill="white"/>
<path d="M12.2323 5.18726L11.3311 6.08846L12.2323 6.98967L13.1335 6.08846L12.2323 5.18726Z" fill="white"/>
<path d="M10.3788 6.66968L9.24316 7.24833L9.82181 8.38393L10.9574 7.80528L10.3788 6.66968Z" fill="white"/>
<path d="M11.4883 9.07544L10.2295 9.2748L10.4289 10.5336L11.6877 10.3343L11.4883 9.07544Z" fill="white"/>
<path d="M12.9366 9.06372L12.7373 10.3226L13.9962 10.5219L14.1955 9.26304L12.9366 9.06372Z" fill="white"/>
<path d="M14.0542 6.65796L13.4756 7.79356L14.6112 8.37221L15.1898 7.23661L14.0542 6.65796Z" fill="white"/>
<path d="M7.47572 8.45701C7.47572 6.41184 8.86879 4.69271 10.7361 4.18883C10.3508 4.07026 9.96549 4.01099 9.5505 4.01099C7.09038 4.01099 5.10449 5.99689 5.10449 8.45701C5.10449 10.9171 7.09038 12.903 9.5505 12.903C9.96549 12.903 10.3508 12.8438 10.7361 12.7252C8.86879 12.2213 7.47572 10.5022 7.47572 8.45701Z" fill="white"/>
</g>
</g>
<rect x="1.17738" y="0.676647" width="28.0099" height="28.0099" rx="14.005" stroke="#0E0F0C" stroke-opacity="0.12" stroke-width="0.444602"/>
<defs>
<clipPath id="clip0_7188_217">
<rect x="0.955078" y="0.454346" width="28.4545" height="28.4545" rx="14.2273" fill="white"/>
</clipPath>
</defs>
</svg>
