<svg width="39" height="40" viewBox="0 0 39 40" fill="none" xmlns="http://www.w3.org/2000/svg">
<path d="M0 20C0 9.23045 8.73045 0.5 19.5 0.5C30.2696 0.5 39 9.23045 39 20V21C39 31.7696 30.2696 40.5 19.5 40.5C8.73045 40.5 0 31.7696 0 21V20Z" fill="black"/>
<path d="M20.3681 23.603H18.631C18.0764 23.603 17.6264 23.128 17.6264 22.5425C17.6264 21.9999 17.2102 21.5605 16.6963 21.5605C16.1824 21.5605 15.7661 21.9999 15.7661 22.5425C15.7661 24.1873 17.0195 25.5253 18.5694 25.5597L18.5706 25.9009C18.5706 26.4435 18.9868 26.8829 19.5007 26.8829C20.0147 26.8829 20.4309 26.4435 20.4309 25.9009V25.5597C21.9819 25.5241 23.2342 24.1873 23.2342 22.5425C23.2342 20.8755 21.9482 19.5179 20.3693 19.5179H18.6322C18.0776 19.5179 17.6276 19.0429 17.6276 18.4574C17.6276 17.8718 18.0776 17.3968 18.6322 17.3968H20.3693C20.9239 17.3968 21.3739 17.8718 21.3739 18.4574C21.3739 18.9999 21.7901 19.4394 22.304 19.4394C22.818 19.4394 23.2342 18.9999 23.2342 18.4574C23.2342 16.8125 21.9808 15.4745 20.4309 15.4402V15.0989C20.4309 14.5564 20.0147 14.1169 19.5007 14.1169C18.9868 14.1169 18.5706 14.5564 18.5706 15.0989V15.4402C17.0195 15.4758 15.7673 16.8125 15.7673 18.4574C15.7673 20.1243 17.0532 21.4819 18.6322 21.4819H20.3693C20.9239 21.4819 21.3738 21.957 21.3738 22.5425C21.3727 23.128 20.9216 23.603 20.3681 23.603Z" fill="white"/>
<path d="M30.5962 8.87437C30.2242 8.48882 29.624 8.48882 29.252 8.87437C28.88 9.25991 28.88 9.88192 29.252 10.2675L29.5301 10.5569H19.4651C14.223 10.5569 9.95752 14.9778 9.95752 20.4108C9.95752 22.8472 10.8251 25.1826 12.3986 26.9847C12.5876 27.2002 12.8455 27.3086 13.1045 27.3086C13.3315 27.3086 13.5597 27.2249 13.7427 27.0536C14.1325 26.6891 14.1623 26.0658 13.8093 25.6618C12.5519 24.2219 11.859 22.3581 11.859 20.411C11.859 16.0643 15.2711 12.5279 19.4651 12.5279H29.5301L29.252 12.8161C28.88 13.2017 28.88 13.8237 29.252 14.2092C29.4362 14.4026 29.6798 14.4987 29.9235 14.4987C30.1671 14.4987 30.4108 14.4026 30.5961 14.2105L32.4977 12.2397C32.8697 11.8541 32.8697 11.2321 32.4977 10.8466L30.5962 8.87437Z" fill="white"/>
<path d="M7.98924 31.701C8.17464 31.8932 8.41828 31.9893 8.66189 31.9893C8.90549 31.9893 9.14916 31.8932 9.33453 31.701C9.70653 31.3155 9.70653 30.6935 9.33453 30.3079L9.05525 30.0185H19.1177H19.138C21.6539 30.0185 24.0308 28.9912 25.8337 27.1263C27.6354 25.2627 28.6277 22.7906 28.6277 20.1646C28.6277 17.7282 27.7602 15.3928 26.1867 13.5907C25.8337 13.1854 25.2336 13.1559 24.8437 13.5217C24.4539 13.8863 24.4242 14.5096 24.7772 14.9136C26.0334 16.3535 26.7262 18.2173 26.7262 20.1644C26.7262 22.2633 25.9323 24.2415 24.4896 25.7318C23.0444 27.2259 21.1453 28.0475 19.1343 28.0475H19.1176H9.05515L9.33324 27.7592C9.70524 27.3737 9.70524 26.7517 9.33324 26.3661C8.96125 25.9806 8.3611 25.9806 7.9891 26.3661L6.08759 28.3369C5.71559 28.7225 5.71559 29.3445 6.08759 29.73L7.98924 31.701Z" fill="white"/>
</svg>
