<svg width="38" height="38" viewBox="0 0 38 38" fill="none" xmlns="http://www.w3.org/2000/svg">
<rect width="38" height="38" rx="19" fill="black"/>
<path d="M28.8162 17.6275V15.2461C28.8162 14.0042 27.805 12.9938 26.562 12.9938H23.6543L18.796 8.6789C18.5113 8.42604 18.0822 8.42604 17.7976 8.6789L12.9392 12.9938H11.0333C8.96171 12.9938 7.27637 14.6778 7.27637 16.7476V25.7567C7.27637 27.8266 8.96171 29.5105 11.0333 29.5105H26.562C27.8049 29.5105 28.8162 28.5002 28.8162 27.2582V24.8768C29.6907 24.5669 30.3189 23.7324 30.3189 22.7537V19.7506C30.319 18.7719 29.6907 17.9374 28.8162 17.6275ZM18.2968 10.2445L21.3923 12.9938H15.2012L18.2968 10.2445ZM27.3134 27.2582C27.3134 27.6722 26.9763 28.009 26.562 28.009H11.0333C9.79035 28.009 8.77913 26.9987 8.77913 25.7567V16.7476C8.77913 15.5057 9.79035 14.4953 11.0333 14.4953H26.562C26.9763 14.4953 27.3134 14.8321 27.3134 15.2461V17.4984H25.0592C22.9876 17.4984 21.3023 19.1823 21.3023 21.2522C21.3023 23.322 22.9876 25.006 25.0592 25.006H27.3134V27.2582ZM28.8162 22.7537C28.8162 23.1677 28.4791 23.5045 28.0648 23.5045H25.0592C23.8163 23.5045 22.8051 22.4941 22.8051 21.2522C22.8051 20.0103 23.8163 18.9999 25.0592 18.9999H28.0648C28.4791 18.9999 28.8162 19.3367 28.8162 19.7507V22.7537Z" fill="white"/>
<path d="M25.0634 21.8297C25.5099 21.8297 25.8719 21.5582 25.8719 21.2233C25.8719 20.8884 25.5099 20.6169 25.0634 20.6169C24.6169 20.6169 24.2549 20.8884 24.2549 21.2233C24.2549 21.5582 24.6169 21.8297 25.0634 21.8297Z" fill="white"/>
</svg>
