<svg width="36" height="36" viewBox="0 0 36 36" fill="none" xmlns="http://www.w3.org/2000/svg">
<path d="M0 18C0 8.05888 8.05888 0 18 0C27.9411 0 36 8.05888 36 18C36 27.9411 27.9411 36 18 36C8.05888 36 0 27.9411 0 18Z" fill="black"/>
<path d="M11.8623 27.9575H18.5798C18.7553 27.9575 18.9236 27.8886 19.0477 27.7658C19.1719 27.643 19.2416 27.4764 19.2416 27.3028V26.648C19.2416 26.4743 19.1719 26.3078 19.0477 26.185C18.9236 26.0622 18.7553 25.9932 18.5798 25.9932H11.8623C11.534 25.9913 11.2136 25.8945 10.9402 25.7148C10.6668 25.535 10.4525 25.2802 10.3235 24.9816C9.87377 23.958 9.64281 22.8534 9.64515 21.7372C9.64532 21.2242 9.69407 20.7123 9.79075 20.2083C10.3831 17.1113 13.2455 14.8621 16.5943 14.8621C17.7053 14.8545 18.8022 15.1082 19.7946 15.6023C20.7871 16.0963 21.6466 16.8167 22.3025 17.7038C22.3929 17.8362 22.5147 17.9448 22.6571 18.0201C22.7995 18.0954 22.9584 18.1352 23.1199 18.136C23.3173 18.1403 23.5116 18.0862 23.6779 17.9806C23.8441 17.8751 23.9747 17.7228 24.053 17.5434C24.1191 17.3826 24.1419 17.2076 24.1193 17.0355C24.0967 16.8634 24.0294 16.7 23.924 16.5613C23.0688 15.3854 21.9317 14.4382 20.6149 13.8047L20.2343 13.6246L20.509 13.2972C21.1874 12.5013 21.559 11.4934 21.558 10.4523V9.95136C21.558 9.34357 21.3139 8.76067 20.8795 8.33089C20.4451 7.90111 19.8559 7.65967 19.2416 7.65967H13.947C13.3327 7.65967 12.7435 7.90111 12.3091 8.33089C11.8747 8.76067 11.6306 9.34357 11.6306 9.95136V10.4523C11.6309 11.4984 12.0075 12.5104 12.6928 13.3071L12.9675 13.6344L12.5836 13.8178C11.3693 14.3824 10.3068 15.2225 9.48224 16.2698C8.65772 17.317 8.09452 18.5419 7.83838 19.8449C7.71952 20.4688 7.6597 21.1023 7.65968 21.7372C7.65723 23.1227 7.94452 24.4937 8.50351 25.7641C8.78617 26.4139 9.25473 26.9677 9.8515 27.3575C10.4483 27.7472 11.1472 27.9558 11.8623 27.9575ZM13.6161 9.95136C13.6161 9.86454 13.651 9.78126 13.713 9.71987C13.7751 9.65847 13.8592 9.62398 13.947 9.62398H19.2416C19.3293 9.62398 19.4135 9.65847 19.4756 9.71987C19.5376 9.78126 19.5725 9.86454 19.5725 9.95136V10.4523C19.5742 10.6486 19.5508 10.8444 19.503 11.035C19.3711 11.5668 19.0627 12.0393 18.6271 12.3771C18.1915 12.7148 17.654 12.8982 17.1006 12.8978H16.088C15.534 12.8989 14.9957 12.7159 14.5594 12.3781C14.1232 12.0403 13.8143 11.5673 13.6823 11.035C13.6356 10.8443 13.6133 10.6485 13.6161 10.4523V9.95136Z" fill="white"/>
<path d="M27.0001 26.0425H23.1703C22.9164 26.0425 22.6729 26.1434 22.4933 26.3229C22.3138 26.5025 22.2129 26.746 22.2129 26.9999C22.2129 27.2539 22.3138 27.4974 22.4933 27.6769C22.6729 27.8565 22.9164 27.9574 23.1703 27.9574H27.0001C27.2541 27.9574 27.4976 27.8565 27.6771 27.6769C27.8567 27.4974 27.9576 27.2539 27.9576 26.9999C27.9576 26.746 27.8567 26.5025 27.6771 26.3229C27.4976 26.1434 27.2541 26.0425 27.0001 26.0425Z" fill="white"/>
<path d="M27.0001 21.0637H23.1703C22.9164 21.0637 22.6729 21.1646 22.4933 21.3442C22.3138 21.5237 22.2129 21.7672 22.2129 22.0212C22.2129 22.2751 22.3138 22.5186 22.4933 22.6982C22.6729 22.8777 22.9164 22.9786 23.1703 22.9786H27.0001C27.2541 22.9786 27.4976 22.8777 27.6771 22.6982C27.8567 22.5186 27.9576 22.2751 27.9576 22.0212C27.9576 21.7672 27.8567 21.5237 27.6771 21.3442C27.4976 21.1646 27.2541 21.0637 27.0001 21.0637Z" fill="white"/>
</svg>
